{
.appVersion = "3258";
.formatVersion = 3;
DisplayStrings = (
"6",
"AÁÂÄÀÅÃÆBCÇDÐEÉÊËÈFGHIĲÍÎÏÌJ/Jacute KLMNÑOÓÔÖÒØÕŒPÞQRSẞTUÚÛÜÙVWẂŴẄẀXYÝŶŸỲZaáâäàåãæbcçdðeéêëèfghiıíîïìĳjȷ/jacute klmnñoóôöòøõœpþqrsßtuúûüùvwẃŵẅẁxyýŷÿỳz0123456789 /nbspace/enspace/emspace/enquad/emquad/threeperemspace/fourperemspace/sixperemspace/figurespace/punctuationspace/thinspace/hairspace/zerowidthspace/zerowidthnonjoiner/zerowidthjoiner/narrownbspace/mediumspace-math/lefttorightmark/righttoleftmark/space-han .,:;…!¡?¿·•*#///backslash -–—_(){}[]‚„“”‘’«»‹›\"'⚹@&§°|†$€%̧̈̇̀́̂̊̃¨"
);
axes = (
{
name = Weight;
tag = wght;
}
);
date = "2023-12-13 19:17:06 +0000";
familyName = Promptus;
fontMaster = (
{
axesValues = (
100
);
customParameters = (
{
name = typoAscender;
value = 800;
},
{
name = typoDescender;
value = -200;
},
{
name = typoLineGap;
value = 200;
},
{
name = winAscent;
value = 1086;
},
{
name = winDescent;
value = 216;
},
{
name = hheaAscender;
value = 1000;
},
{
name = hheaDescender;
value = -200;
},
{
name = strikeoutPosition;
value = 315;
},
{
name = strikeoutSize;
value = 50;
},
{
name = underlinePosition;
value = -125;
}
);
iconName = Light;
id = "529A3C21-2EE4-4A9B-A6FF-34138032017A";
metricValues = (
{
over = 16;
pos = 1000;
},
{
over = 16;
pos = 833;
},
{
over = 16;
pos = 633;
},
{
over = -16;
},
{
over = -16;
pos = -200;
},
{
}
);
name = Thin;
stemValues = (
36,
34
);
userData = {
GSOffsetHorizontal = -10;
GSOffsetKeepCompatible = 1;
GSOffsetVertical = -13;
};
},
{
axesValues = (
300
);
id = m01;
metricValues = (
{
over = 16;
pos = 1000;
},
{
over = 16;
pos = 800;
},
{
over = 16;
pos = 600;
},
{
over = -16;
},
{
over = -16;
pos = -200;
},
{
}
);
name = Regular;
stemValues = (
90,
80
);
userData = {
GSExtrudeAngle = 30;
GSExtrudeOffset = 15;
GSOffsetHorizontal = -2;
GSOffsetKeepCompatible = 1;
GSOffsetProportional = 1;
GSOffsetVertical = 4;
};
},
{
axesValues = (
900
);
iconName = Bold;
id = "23BFF7D0-A449-46AC-916C-A2933124BFA1";
metricValues = (
{
over = 16;
pos = 1000;
},
{

glyphs = (
{
glyphname = A;
lastChange = "2024-04-20 13:21:10 +0000";
layers = (
{
anchors = (
{
name = bottom;
pos = (356,0);
},
{
name = ogonek;
pos = (640,10);
},
{
name = top;
pos = (356,800);
}
);
layerId = m01;
shapes = (
{
closed = 1;
nodes = (
(108,0,l),
(397,800,l),
(304,800,l),
(20,0,l)
);
},
{
closed = 1;
nodes = (
(543,224,l),
(543,299,l),
(168,299,l),
(168,224,l)
);
},
{
closed = 1;
nodes = (
(691,0,l),
(407,800,l),
(317,800,l),
(601,0,l)
);
}
);
width = 711;
},
{
anchors = (
{
name = bottom;
pos = (406,0);
},
{
name = ogonek;
pos = (730,10);
},
{
name = top;
pos = (406,700);
}
);
layerId = "23BFF7D0-A449-46AC-916C-A2933124BFA1";
shapes = (
{
closed = 1;
nodes = (
(233,0,l),
(522,800,l),
(286,800,l),
(2,0,l)
);
},
{
closed = 1;
nodes = (
(593,119,l),
(593,259,l),
(218,259,l),
(218,119,l)
);
},
{
closed = 1;
nodes = (
(809,0,l),
(525,800,l),
(292,800,l),
(576,0,l)
);
}
);
width = 811;
},
{
anchors = (
{
name = bottom;
pos = (339,0);
},
{
name = ogonek;
pos = (610,10);
},
{
name = top;
pos = (339,833);
}
);
layerId = "529A3C21-2EE4-4A9B-A6FF-34138032017A";
shapes = (
{
closed = 1;
nodes = (
(63,0,l),
(352,800,l),
(310,800,l),
(26,0,l)
);
},
{
closed = 1;
nodes = (
(526,280,l),
(526,312,l),
(151,312,l),
(151,280,l)
);
},
{
closed = 1;
nodes = (
(647,0,l),
(363,800,l),
(325,800,l),
(609,0,l)
);
}
);
width = 678;
}
);
unicode = 65;
},
{
glyphname = AE;
lastChange = "2024-04-20 13:21:10 +0000";
layers = (
{
layerId = m01;
shapes = (
{
closed = 1;
nodes = (
(108,0,l),
(447,800,l),
(354,800,l),
(20,0,l)
);
},
{
closed = 1;
nodes = (
(503,224,l),
(503,299,l),
(168,299,l),
(168,224,l)
);
},
{
closed = 1;
nodes = (
(827,0,l),
(827,80,l),
(473,80,l),
(473,0,l)
);
},
{
closed = 1;
nodes = (
(510,0,l),
(510,800,l),
(420,800,l),
(420,0,l)
);
},
{
closed = 1;
nodes = (
(807,370,l),
(807,450,l),
(473,450,l),
(473,370,l)
);
},
{
closed = 1;
nodes = (
(827,720,l),
(827,800,l),
(473,800,l),
(473,720,l)
);
}
);
width = 867;
},
{
layerId = "23BFF7D0-A449-46AC-916C-A2933124BFA1";
shapes = (
{
closed = 1;
nodes = (
(233,0,l),
(572,800,l),
(336,800,l),
(2,0,l)
);
},
{
closed = 1;
nodes = (
(643,119,l),
(643,259,l),
(218,259,l),
(218,119,l)
);
},
{
closed = 1;
nodes = (
(1069,0,l),
(1069,160,l),
(715,160,l),
(715,0,l)
);
},
{
closed = 1;
nodes = (
(752,0,l),
(752,800,l),
(512,800,l),
(512,0,l)
);
},
{
closed = 1;
nodes = (
(1049,310,l),
(1049,490,l),
(715,490,l),
(715,310,l)
);
},
{
closed = 1;
nodes = (
(1069,640,l),
(1069,800,l),
(715,800,l),
(715,640,l)
);
}
);
width = 1094;
},
{
layerId = "529A3C21-2EE4-4A9B-A6FF-34138032017A";
shapes = (
{
closed = 1;
nodes = (
(66,0,l),
(535,800,l),
(490,800,l),
(26,0,l)
);
},
{
closed = 1;
nodes = (
(546,259,l),
(546,287,l),
(211,287,l),
(211,259,l)
);
},
{
closed = 1;
nodes = (
(876,0,l),
(876,32,l),
(522,32,l),
(522,0,l)
);
},
{
closed = 1;
nodes = (
(555,0,l),
(555,800,l),
(519,800,l),
(519,0,l)
);
},
{
closed = 1;
nodes = (
(856,400,l),
(856,432,l),
(522,432,l),
(522,400,l)
);
},
{
closed = 1;
nodes = (
(876,768,l),
(876,800,l),
(522,800,l),
(522,768,l)
);
}
);
width = 922;
}
);
metricLeft = A;
metricRight = E;
unicode = 198;
},
{
glyphname = B;
lastChange = "2024-04-20 13:21:10 +0000";
layers = (
{
anchors = (
{
name = bottom;
pos = (326,0);
},
{
name = center;
pos = (163,200);
},
{
name = top;
pos = (326,800);
}
);
layerId = m01;
shapes = (
{
closed = 1;
nodes = (
(360,0,ls),
(507,0,o),
(611,95,o),
(611,229,cs),
(611,345,o),
(512,429,o),
(373,435,cs),
(133,445,l),
(133,365,l),
(372,365,ls),
(462,365,o),
(516,309,o),
(516,229,cs),
(516,145,o),
(458,80,o),
(363,80,cs),
(133,80,l),
(133,0,l)
);
},
{
closed = 1;
nodes = (
(170,0,l),
(170,800,l),
(80,800,l),
(80,0,l)
);
},
{
closed = 1;
nodes = (
(373,375,ls),
(495,380,o),
(581,469,o),
(581,591,cs),
(581,713,o),
(489,800,o),
(360,800,cs),
(133,800,l),
(133,720,l),
(363,720,ls),
(441,720,o),
(486,664,o),
(486,591,cs),
(486,505,o),
(445,445,o),
(372,445,cs),
(133,445,l),
(133,365,l)
);
}
);
width = 651;
},
{
anchors = (
{
name = bottom;
pos = (360,0);
},
{
name = center;
pos = (180,200);
},
{
name = top;
pos = (360,700);
}
);
layerId = "23BFF7D0-A449-46AC-916C-A2933124BFA1";
shapes = (
{
closed = 1;
nodes = (
(382,0,ls),
(576,0,o),
(694,95,o),
(694,229,cs),
(694,389,o),
(565,413,o),
(382,455,cs),
(208,495,l),
(208,315,l),
(382,315,ls),
(425,315,o),
(441,262,o),
(441,229,cs),
(441,192,o),
(431,160,o),
(382,160,cs),
(208,160,l),
(208,0,l)
);
},
{
closed = 1;
nodes = (
(305,0,l),
(305,800,l),
(55,800,l),
(55,0,l)
);
},
{
closed = 1;
nodes = (
(382,355,ls),
(546,393,o),
(664,415,o),
(664,581,cs),
(664,703,o),
(558,800,o),
(382,800,cs),
(208,800,l),
(208,640,l),
(372,640,ls),
(403,640,o),
(421,607,o),
(421,581,cs),
(421,542,o),
(398,495,o),
(372,495,cs),
(208,495,l),
(208,315,l)
);
}
);
width = 719;
},
{
anchors = (
{
name = bottom;
pos = (315,0);
},
{
name = center;
pos = (157,200);
},
{
name = top;
pos = (315,833);
}
);
layerId = "529A3C21-2EE4-4A9B-A6FF-34138032017A";
shapes = (
{
closed = 1;
nodes = (
(355,0,ls),
(489,0,o),
(583,95,o),
(583,229,cs),
(583,347,o),
(495,417,o),
(370,411,c),
(108,411,l),
(108,389,l),
(369,389,ls),
(473,389,o),
(547,323,o),
(547,229,cs),
(547,114,o),
(467,32,o),
(355,32,cs),
(108,32,l),
(108,0,l)
);
},
{
closed = 1;
nodes = (
(124,0,l),
(124,800,l),
(88,800,l),
(88,0,l)
);
},
{
closed = 1;
nodes = (
(370,399,l),
(477,393,o),
(553,468,o),
(553,594,cs),
(553,715,o),
(472,800,o),
(357,800,cs),
(108,800,l),
(108,768,l),
(357,768,ls),
(451,768,o),
(517,696,o),
(517,594,cs),
(517,493,o),
(457,421,o),
(372,421,cs),
(108,421,l),
(108,399,l)
);
}
);
width = 629;
}
);
metricLeft = H;
metricRight = O;
unicode = 66;
},
{
glyphname = C;
lastChange = "2024-04-20 13:21:10 +0000";
layers = (
{
anchors = (
{
name = bottom;
pos = (331,0);
},
{
name = top;
pos = (331,800);
}
);
background = {
shapes = (
{
closed = 0;
nodes = (
(418,-17,ls),
(507,-17,o),
(600,15,o),
(642,61,c),
(642,161,l),
(587,109,o),
(494,73,o),
(418,73,cs)
);
}
);
};
layerId = m01;
shapes = (
{
closed = 1;
nodes = (
(488,-18,o),
(580,14,o),
(622,60,c),
(622,161,l),
(566,109,o),
(473,72,o),
(398,72,cs),
(229,72,o),
(140,212,o),
(140,410,cs),
(140,593,o),
(229,723,o),
(398,723,cs),
(475,723,o),
(567,687,o),
(622,635,c),
(622,735,l),
(580,781,o),
(487,813,o),
(398,813,cs),
(177,813,o),
(40,646,o),
(40,410,cs),
(40,159,o),
(177,-18,o),
(398,-18,cs)
);
}
);
width = 662;
},
{
anchors = (
{
name = bottom;
pos = (313,0);
},
{
name = top;
pos = (313,700);
}
);
layerId = "23BFF7D0-A449-46AC-916C-A2933124BFA1";
shapes = (
{
closed = 1;
nodes = (
(506,-18,o),
(563,-8,o),
(601,7,c),
(601,215,l),
(560,196,o),
(502,182,o),
(463,182,cs),
(353,182,o),
(275,276,o),
(275,410,cs),
(275,529,o),
(353,613,o),
(463,613,cs),
(503,613,o),
(560,600,o),
(601,581,c),
(601,788,l),
(563,803,o),
(506,813,o),
(463,813,cs),
(206,813,o),
(25,646,o),
(25,410,cs),
(25,159,o),
(206,-18,o),
(463,-18,cs)
);
}
);
width = 626;
},
{
anchors = (
{
name = bottom;
pos = (336,0);
},
{
name = top;
pos = (336,833);
}
);
layerId = "529A3C21-2EE4-4A9B-A6FF-34138032017A";
shapes = (
{
closed = 1;
nodes = (
(467,-18,o),
(572,22,o),
(628,78,c),
(628,117,l),
(570,58,o),
(465,16,o),
(375,16,cs),
(202,16,o),
(80,179,o),
(80,410,cs),
(80,626,o),
(202,779,o),
(375,779,cs),
(465,779,o),
(570,736,o),
(627,675,c),
(628,717,l),
(554,773,o),
(449,813,o),
(375,813,cs),
(181,813,o),
(44,646,o),
(44,410,cs),
(44,159,o),
(181,-18,o),
(375,-18,cs)
);
}
);
width = 674;
}
);
metricLeft = O;
metricRight = O;
unicode = 67;
},
{
glyphname = D;
lastChange = "2024-04-20 13:21:10 +0000";
layers = (
{
anchors = (
{
name = bottom;
pos = (371,0);
},
{
name = center;
pos = (190,400);
},
{
name = top;
pos = (371,800);
}
);
layerId = m01;
shapes = (
{
closed = 1;
nodes = (
(383,0,ls),
(563,0,o),
(691,171,o),
(691,413,cs),
(691,640,o),
(558,800,o),
(370,800,cs),
(133,800,l),
(133,720,l),
(373,720,ls),
(523,720,o),
(596,607,o),
(596,413,cs),
(596,199,o),
(526,80,o),
(382,80,cs),
(133,80,l),
(133,0,l)
);
},
{
closed = 1;
nodes = (
(170,0,l),
(170,800,l),
(80,800,l),
(80,0,l)
);
}
);
width = 731;
},
{
anchors = (
{
name = bottom;
pos = (406,0);
},
{
name = center;
pos = (213,350);
},
{
name = top;
pos = (406,700);
}
);
layerId = "23BFF7D0-A449-46AC-916C-A2933124BFA1";
shapes = (
{
closed = 1;
nodes = (
(403,0,ls),
(616,0,o),
(766,171,o),
(766,413,cs),
(766,640,o),
(616,800,o),
(403,800,cs),
(238,800,l),
(238,600,l),
(403,600,ls),
(472,600,o),
(521,525,o),
(521,413,cs),
(521,282,o),
(472,200,o),
(403,200,cs),
(238,200,l),
(238,0,l)
);
},
{
closed = 1;
nodes = (
(305,0,l),
(305,800,l),
(55,800,l),
(55,0,l)
);
}
);
width = 791;
},
{
anchors = (
{
name = bottom;
pos = (359,0);
},
{
name = center;
pos = (178,417);
},
{
name = top;
pos = (359,833);
}
);
layerId = "529A3C21-2EE4-4A9B-A6FF-34138032017A";
shapes = (
{
closed = 1;
nodes = (
(376,0,ls),
(546,0,o),
(666,171,o),
(666,413,cs),
(666,640,o),
(539,800,o),
(359,800,cs),
(98,800,l),
(98,768,l),
(363,768,ls),
(519,768,o),
(630,621,o),
(630,413,cs),
(630,189,o),
(524,31,o),
(375,31,cs),
(98,31,l),
(98,0,l)
);
},
{
closed = 1;
nodes = (
(124,0,l),
(124,800,l),
(88,800,l),
(88,0,l)
);
}
);
width = 712;
}
);
metricLeft = H;
metricRight = O;
unicode = 68;
},
{
glyphname = Eth;
lastChange = "2024-04-20 13:21:10 +0000";
layers = (
{
layerId = m01;
shapes = (
{
closed = 1;
nodes = (
(373,0,ls),
(553,0,o),
(681,171,o),
(681,413,cs),
(681,640,o),
(548,800,o),
(360,800,cs),
(133,800,l),
(133,720,l),
(363,720,ls),
(513,720,o),
(586,607,o),
(586,413,cs),
(586,199,o),
(516,80,o),
(372,80,cs),
(133,80,l),
(133,0,l)
);
},
{
closed = 1;
nodes = (
(170,0,l),
(170,800,l),
(80,800,l),
(80,0,l)
);
},
{
closed = 1;
nodes = (
(261,374,l),
(261,449,l),
(-4,449,l),
(-4,374,l)
);
}
);
width = 600;
},
{
layerId = "23BFF7D0-A449-46AC-916C-A2933124BFA1";
shapes = (
{
closed = 1;
nodes = (
(383,0,ls),
(596,0,o),
(746,171,o),
(746,413,cs),
(746,640,o),
(596,800,o),
(383,800,cs),
(238,800,l),
(238,600,l),
(383,600,ls),
(452,600,o),
(501,525,o),
(501,413,cs),
(501,282,o),
(452,200,o),
(383,200,cs),
(238,200,l),
(238,0,l)
);
},
{
closed = 1;
nodes = (
(305,0,l),
(305,800,l),
(55,800,l),
(55,0,l)
);
},
{
closed = 1;
nodes = (
(372,337,l),
(372,477,l),
(-3,477,l),
(-3,337,l)
);
}
);
width = 600;
},
{
layerId = "529A3C21-2EE4-4A9B-A6FF-34138032017A";
shapes = (
{
closed = 1;
nodes = (
(370,0,ls),
(539,0,o),
(659,171,o),
(659,413,cs),
(659,640,o),
(532,800,o),
(352,800,cs),
(98,800,l),
(98,768,l),
(356,768,ls),
(512,768,o),
(623,621,o),
(623,413,cs),
(623,190,o),
(517,32,o),
(368,32,cs),
(98,32,l),
(98,0,l)
);
},
{
closed = 1;
nodes = (
(125,0,l),
(125,800,l),
(88,800,l),
(88,0,l)
);
},
{
closed = 1;
nodes = (
(224,402,l),
(224,430,l),
(-4,430,l),
(-4,402,l)
);
}
);
width = 600;
}
);
unicode = 208;
},
{
glyphname = E;
lastChange = "2024-04-20 13:21:10 +0000";
layers = (
{
anchors = (
{
name = bottom;
pos = (264,0);
},
{
name = ogonek;
pos = (474,10);
},
{
name = top;
pos = (264,800);
},
{
name = topleft;
pos = (20,800);
}
);
layerId = m01;
shapes = (
{
closed = 1;
nodes = (
(170,0,l),
(170,800,l),
(80,800,l),
(80,0,l)
);
},
{
closed = 1;
nodes = (
(487,0,l),
(487,80,l),
(133,80,l),
(133,0,l)
);
},
{
closed = 1;
nodes = (
(467,370,l),
(467,450,l),
(133,450,l),
(133,370,l)
);
},
{
closed = 1;
nodes = (
(487,720,l),
(487,800,l),
(133,800,l),
(133,720,l)
);
}
);
width = 527;
},
{
anchors = (
{
name = bottom;
pos = (319,0);
},
{
name = ogonek;
pos = (573,10);
},
{
name = top;
pos = (319,700);
},
{
name = topleft;
pos = (20,700);
}
);
layerId = "23BFF7D0-A449-46AC-916C-A2933124BFA1";
shapes = (
{
closed = 1;
nodes = (
(295,0,l),
(295,800,l),
(55,800,l),
(55,0,l)
);
},
{
closed = 1;
nodes = (
(612,0,l),
(612,160,l),
(258,160,l),
(258,0,l)
);
},
{
closed = 1;
nodes = (
(592,310,l),
(592,490,l),
(258,490,l),
(258,310,l)
);
},
{
closed = 1;
nodes = (
(612,640,l),
(612,800,l),
(258,800,l),
(258,640,l)
);
}
);
width = 637;
},
{
anchors = (
{
name = bottom;
pos = (246,0);
},
{
name = ogonek;
pos = (441,10);
},
{
name = top;
pos = (246,833);
},
{
name = topleft;
pos = (20,833);
}
);
layerId = "529A3C21-2EE4-4A9B-A6FF-34138032017A";
shapes = (
{
closed = 1;
nodes = (
(124,0,l),
(124,800,l),
(88,800,l),
(88,0,l)
);
},
{
closed = 1;
nodes = (
(445,0,l),
(445,34,l),
(91,34,l),
(91,0,l)
);
},
{
closed = 1;
nodes = (
(425,398,l),
(425,430,l),
(91,430,l),
(91,398,l)
);
},
{
closed = 1;
nodes = (
(445,768,l),
(445,800,l),
(91,800,l),
(91,768,l)
);
}
);
width = 491;
}
);
metricLeft = H;
metricRight = O;
unicode = 69;
},
{
glyphname = F;
lastChange = "2024-04-20 13:21:10 +0000";
layers = (
{
anchors = (
{
name = bottom;
pos = (264,0);
},
{
name = top;
pos = (264,800);
}
);
layerId = m01;
shapes = (
{
closed = 1;
nodes = (
(170,0,l),
(170,370,l),
(477,370,l),
(477,450,l),
(170,450,l),
(170,720,l),
(487,720,l),
(487,800,l),
(80,800,l),
(80,0,l)
);
}
);
width = 527;
},
{
anchors = (
{
name = bottom;
pos = (284,0);
},
{
name = top;
pos = (284,700);
}
);
layerId = "23BFF7D0-A449-46AC-916C-A2933124BFA1";
shapes = (
{
closed = 1;
nodes = (
(295,0,l),
(295,290,l),
(522,290,l),
(522,470,l),
(295,470,l),
(295,640,l),
(542,640,l),
(542,800,l),
(55,800,l),
(55,0,l)
);
}
);
width = 567;
},
{
anchors = (
{
name = bottom;
pos = (257,0);
},
{
name = top;
pos = (257,833);
}
);
layerId = "529A3C21-2EE4-4A9B-A6FF-34138032017A";
shapes = (
{
closed = 1;
nodes = (
(124,0,l),
(124,404,l),
(462,404,l),
(462,436,l),
(124,436,l),
(124,768,l),
(469,768,l),
(469,800,l),
(88,800,l),
(88,0,l)
);
}
);
width = 515;
}
);
metricLeft = H;
metricRight = O;
unicode = 70;
},
{
glyphname = G;
lastChange = "2024-04-20 13:21:10 +0000";
layers = (
{
anchors = (
{
name = bottom;
pos = (367,0);
},
{
name = top;
pos = (367,800);
}
);
background = {
shapes = (
{
closed = 0;
nodes = (
(440,725,ls),
(517,725,o),
(609,689,o),
(664,637,c),
(664,737,l),
(622,783,o),
(529,815,o),
(440,815,cs)
);
}
);
};
layerId = m01;
shapes = (
{
closed = 1;
nodes = (
(516,-16,o),
(615,15,o),
(674,59,c),
(674,157,l),
(611,108,o),
(512,74,o),
(435,74,cs),
(256,74,o),
(140,213,o),
(140,410,cs),
(140,594,o),
(240,725,o),
(445,725,cs),
(519,725,o),
(609,689,o),
(664,637,c),
(664,738,l),
(618,783,o),
(527,815,o),
(445,815,cs),
(187,815,o),
(40,647,o),
(40,410,cs),
(40,160,o),
(204,-16,o),
(435,-16,cs)
);
},
{
closed = 1;
nodes = (
(674,59,l),
(674,365,l),
(589,365,l),
(589,59,l)
);
},
{
closed = 1;
nodes = (
(674,330,l),
(674,410,l),
(385,410,l),
(385,330,l)
);
}
);
width = 734;
},
{
anchors = (
{
name = bottom;
pos = (412,0);
},
{
name = top;
pos = (412,700);
}
);
layerId = "23BFF7D0-A449-46AC-916C-A2933124BFA1";
shapes = (
{
closed = 1;
nodes = (
(607,-16,o),
(737,16,o),
(799,62,c),
(699,267,l),
(637,218,o),
(549,184,o),
(485,184,cs),
(362,184,o),
(275,278,o),
(275,410,cs),
(275,530,o),
(362,615,o),
(485,615,cs),
(585,615,o),
(698,591,o),
(759,557,c),
(759,738,l),
(713,783,o),
(599,815,o),
(485,815,cs),
(216,815,o),
(25,647,o),
(25,410,cs),
(25,160,o),
(216,-16,o),
(485,-16,cs)
);
},
{
closed = 1;
nodes = (
(799,62,l),
(799,368,l),
(599,368,l),
(599,62,l)
);
},
{
closed = 1;
nodes = (
(799,285,l),
(799,465,l),
(410,465,l),
(410,285,l)
);
}
);
width = 824;
},
{
anchors = (
{
name = bottom;
pos = (351,0);
},
{
name = top;
pos = (351,833);
}
);
layerId = "529A3C21-2EE4-4A9B-A6FF-34138032017A";
shapes = (
{
closed = 1;
nodes = (
(504,-16,o),
(573,5,o),
(631,58,c),
(628,96,l),
(568,40,o),
(500,18,o),
(417,18,cs),
(220,18,o),
(80,180,o),
(80,410,cs),
(80,627,o),
(225,781,o),
(431,781,cs),
(500,781,o),
(583,744,o),
(631,691,c),
(631,738,l),
(585,783,o),
(502,815,o),
(431,815,cs),
(204,815,o),
(44,647,o),
(44,410,cs),
(44,160,o),
(199,-16,o),
(417,-16,cs)
);
},
{
closed = 1;
nodes = (
(631,58,l),
(631,364,l),
(595,364,l),
(595,58,l)
);
},
{
closed = 1;
nodes = (
(631,356,l),
(631,388,l),
(376,388,l),
(376,356,l)
);
}
);
width = 703;
}
);
metricLeft = O;
unicode = 71;
},
{
glyphname = H;
lastChange = "2024-04-20 13:21:10 +0000";
layers = (
{
anchors = (
{
name = bottom;
pos = (372,0);
},
{
name = center;
pos = (372,600);
},
{
name = top;
pos = (372,800);
},
{
name = topleft;
pos = (20,800);
}
);
layerId = m01;
shapes = (
{
closed = 1;
nodes = (
(663,0,l),
(663,800,l),
(573,800,l),
(573,0,l)
);
},
{
closed = 1;
nodes = (
(170,0,l),
(170,800,l),
(80,800,l),
(80,0,l)
);
},
{
closed = 1;
nodes = (
(609,376,l),
(609,456,l),
(124,456,l),
(124,376,l)
);
}
);
width = 743;
},
{
anchors = (
{
name = bottom;
pos = (407,0);
},
{
name = center;
pos = (407,600);
},
{
name = top;
pos = (407,700);
},
{
name = topleft;
pos = (20,700);
}
);
layerId = "23BFF7D0-A449-46AC-916C-A2933124BFA1";
shapes = (
{
closed = 1;
nodes = (
(758,0,l),
(758,800,l),
(508,800,l),
(508,0,l)
);
},
{
closed = 1;
nodes = (
(305,0,l),
(305,800,l),
(55,800,l),
(55,0,l)
);
},
{
closed = 1;
nodes = (
(634,326,l),
(634,506,l),
(149,506,l),
(149,326,l)
);
}
);
width = 813;
},
{
anchors = (
{
name = bottom;
pos = (360,0);
},
{
name = center;
pos = (360,600);
},
{
name = top;
pos = (360,833);
},
{
name = topleft;
pos = (20,833);
}
);
layerId = "529A3C21-2EE4-4A9B-A6FF-34138032017A";
shapes = (
{
closed = 1;
nodes = (
(631,0,l),
(631,800,l),
(595,800,l),
(595,0,l)
);
},
{
closed = 1;
nodes = (
(124,0,l),
(124,800,l),
(88,800,l),
(88,0,l)
);
},
{
closed = 1;
nodes = (
(601,400,l),
(601,432,l),
(116,432,l),
(116,400,l)
);
}
);
width = 720;
}
);
unicode = 72;
},
{
glyphname = I;
lastChange = "2024-04-20 13:21:10 +0000";
layers = (
{
anchors = (
{
name = bottom;
pos = (125,0);
},
{
name = ogonek;
pos = (225,10);
},
{
name = top;
pos = (125,800);
},
{
name = topleft;
pos = (20,800);
}
);
layerId = m01;
shapes = (
{
closed = 1;
nodes = (
(170,0,l),
(170,800,l),
(80,800,l),
(80,0,l)
);
}
);
width = 250;
},
{
anchors = (
{
name = bottom;
pos = (180,0);
},
{
name = ogonek;
pos = (324,10);
},
{
name = top;
pos = (180,700);
},
{
name = topleft;
pos = (20,700);
}
);
layerId = "23BFF7D0-A449-46AC-916C-A2933124BFA1";
shapes = (
{
closed = 1;
nodes = (
(305,0,l),
(305,800,l),
(55,800,l),
(55,0,l)
);
}
);
width = 360;
},
{
anchors = (
{
name = bottom;
pos = (107,0);
},
{
name = ogonek;
pos = (192,10);
},
{
name = top;
pos = (107,833);
},
{
name = topleft;
pos = (20,833);
}
);
layerId = "529A3C21-2EE4-4A9B-A6FF-34138032017A";
shapes = (
{
closed = 1;
nodes = (
(124,0,l),
(124,800,l),
(88,800,l),
(88,0,l)
);
}
);
width = 213;
}
);
metricLeft = H;
metricRight = H;
unicode = 73;
},
{
glyphname = J;
lastChange = "2024-04-20 13:21:10 +0000";
layers = (
{
anchors = (
{
name = bottom;
pos = (215,0);
},
{
name = top;
pos = (215,800);
}
);
layerId = m01;
shapes = (
{
closed = 1;
nodes = (
(267,-16,o),
(349,70,o),
(349,178,cs),
(349,800,l),
(259,800,l),
(259,178,ls),
(259,117,o),
(219,74,o),
(163,74,cs),
(124,74,o),
(80,95,o),
(64,122,c),
(0,60,l),
(27,18,o),
(99,-16,o),
(163,-16,cs)
);
}
);
width = 429;
},
{
anchors = (
{
name = bottom;
pos = (285,0);
},
{
name = top;
pos = (285,700);
}
);
layerId = "23BFF7D0-A449-46AC-916C-A2933124BFA1";
shapes = (
{
closed = 1;
nodes = (
(398,-16,o),
(514,102,o),
(514,268,cs),
(514,800,l),
(264,800,l),
(264,282,ls),
(264,224,o),
(237,183,o),
(198,183,cs),
(181,183,o),
(150,199,o),
(124,221,c),
(0,60,l),
(29,15,o),
(125,-16,o),
(233,-16,cs)
);
}
);
width = 569;
},
{
anchors = (
{
name = bottom;
pos = (192,0);
},
{
name = top;
pos = (192,833);
}
);
layerId = "529A3C21-2EE4-4A9B-A6FF-34138032017A";
shapes = (
{
closed = 1;
nodes = (
(230,-16,o),
(294,51,o),
(294,146,cs),
(294,800,l),
(258,800,l),
(258,146,ls),
(258,69,o),
(209,14,o),
(139,14,cs),
(100,14,o),
(54,43,o),
(29,85,c),
(0,60,l),
(28,15,o),
(85,-16,o),
(139,-16,cs)
);
}
);
width = 383;
}
);
metricRight = H;
unicode = 74;
},
{
glyphname = K;
lastChange = "2024-04-20 13:21:10 +0000";
layers = (
{
anchors = (
{
name = bottom;
pos = (314,0);
},
{
name = top;
pos = (314,800);
}
);
layerId = m01;
shapes = (
{
closed = 1;
nodes = (
(647,0,l),
(257,440,l),
(130,440,l),
(520,0,l)
);
},
{
closed = 1;
nodes = (
(170,0,l),
(170,800,l),
(80,800,l),
(80,0,l)
);
},
{
closed = 1;
nodes = (
(610,800,l),
(492,800,l),
(170,453,l),
(170,329,l)
);
}
);
width = 627;
},
{
anchors = (
{
name = bottom;
pos = (420,0);
},
{
name = top;
pos = (420,700);
}
);
layerId = "23BFF7D0-A449-46AC-916C-A2933124BFA1";
shapes = (
{
closed = 1;
nodes = (
(839,0,l),
(449,440,l),
(185,440,l),
(525,0,l)
);
},
{
closed = 1;
nodes = (
(305,0,l),
(305,800,l),
(55,800,l),
(55,0,l)
);
},
{
closed = 1;
nodes = (
(802,800,l),
(504,800,l),
(235,451,l),
(362,329,l)
);
}
);
width = 839;
},
{
anchors = (
{
name = bottom;
pos = (279,0);
},
{
name = top;
pos = (279,833);
}
);
layerId = "529A3C21-2EE4-4A9B-A6FF-34138032017A";
shapes = (
{
closed = 1;
nodes = (
(562,0,l),
(175,422,l),
(152,397,l),
(518,0,l)
);
},
{
closed = 1;
nodes = (
(124,0,l),
(124,800,l),
(88,800,l),
(88,0,l)
);
},
{
closed = 1;
nodes = (
(546,800,l),
(497,800,l),
(106,380,l),
(106,329,l)
);
}
);
width = 556;
}
);
metricLeft = H;
unicode = 75;
},
{
glyphname = L;
lastChange = "2024-04-20 13:21:10 +0000";
layers = (
{
anchors = (
{
name = bottom;
pos = (246,0);
},
{
name = center;
pos = (246,400);
},
{
name = top;
pos = (246,800);
},
{
name = topright;
pos = (471,800);
}
);
layerId = m01;
shapes = (
{
closed = 1;
nodes = (
(170,0,l),
(170,800,l),
(80,800,l),
(80,0,l)
);
},
{
closed = 1;
nodes = (
(471,0,l),
(471,85,l),
(117,85,l),
(117,0,l)
);
}
);
width = 491;
},
{
anchors = (
{
name = bottom;
pos = (306,0);
},
{
name = center;
pos = (306,350);
},
{
name = top;
pos = (306,700);
},
{
name = topright;
pos = (591,700);
}
);
layerId = "23BFF7D0-A449-46AC-916C-A2933124BFA1";
shapes = (
{
closed = 1;
nodes = (
(305,0,l),
(305,800,l),
(55,800,l),
(55,0,l)
);
},
{
closed = 1;
nodes = (
(566,0,l),
(566,200,l),
(212,200,l),
(212,0,l)
);
}
);
width = 611;
},
{
anchors = (
{
name = bottom;
pos = (226,0);
},
{
name = center;
pos = (226,417);
},
{
name = top;
pos = (226,833);
},
{
name = topright;
pos = (431,833);
}
);
layerId = "529A3C21-2EE4-4A9B-A6FF-34138032017A";
shapes = (
{
closed = 1;
nodes = (
(124,0,l),
(124,800,l),
(88,800,l),
(88,0,l)
);
},
{
closed = 1;
nodes = (
(439,0,l),
(439,34,l),
(105,34,l),
(105,0,l)
);
}
);
width = 451;
}
);
metricLeft = H;
unicode = 76;
},
{
glyphname = M;
lastChange = "2024-04-20 13:21:10 +0000";
layers = (
{
anchors = (
{
name = bottom;
pos = (480,0);
},
{
name = top;
pos = (480,800);
}
);
layerId = m01;
shapes = (
{
closed = 1;
nodes = (
(529,0,l),
(183,800,l),
(80,800,l),
(426,0,l)
);
},
{
closed = 1;
nodes = (
(165,0,l),
(165,800,l),
(80,800,l),
(80,0,l)
);
},
{
closed = 1;
nodes = (
(528,0,l),
(854,800,l),
(773,800,l),
(447,0,l)
);
},
{
closed = 1;
nodes = (
(880,0,l),
(880,800,l),
(797,800,l),
(797,0,l)
);
}
);
width = 960;
},
{
anchors = (
{
name = bottom;
pos = (576,0);
},
{
name = top;
pos = (576,700);
}
);
layerId = "23BFF7D0-A449-46AC-916C-A2933124BFA1";
shapes = (
{
closed = 1;
nodes = (
(704,0,l),
(398,800,l),
(156,800,l),
(462,0,l)
);
},
{
closed = 1;
nodes = (
(266,0,l),
(346,800,l),
(135,800,l),
(55,0,l)
);
},
{
closed = 1;
nodes = (
(703,0,l),
(949,800,l),
(749,800,l),
(503,0,l)
);
},
{
closed = 1;
nodes = (
(1097,0,l),
(1017,800,l),
(786,800,l),
(866,0,l)
);
}
);
width = 1152;
},
{
anchors = (
{
name = bottom;
pos = (461,0);
},
{
name = top;
pos = (461,833);
}
);
layerId = "529A3C21-2EE4-4A9B-A6FF-34138032017A";
shapes = (
{
closed = 1;
nodes = (
(487,0,l),
(127,800,l),
(88,800,l),
(447,0,l)
);
},
{
closed = 1;
nodes = (
(124,0,l),
(124,800,l),
(88,800,l),
(88,0,l)
);
},
{
closed = 1;
nodes = (
(488,0,l),
(834,800,l),
(794,800,l),
(447,0,l)
);
},
{
closed = 1;
nodes = (
(834,0,l),
(834,800,l),
(798,800,l),
(798,0,l)
);
}
);
width = 923;
}
);
metricLeft = H;
metricRight = H;
unicode = 77;
},
{
glyphname = N;
lastChange = "2024-04-20 13:21:10 +0000";
layers = (
{
anchors = (
{
name = bottom;
pos = (382,0);
},
{
name = top;
pos = (382,800);
}
);
layerId = m01;
shapes = (
{
closed = 1;
nodes = (
(683,0,l),
(180,800,l),
(80,800,l),
(583,0,l)
);
},
{
closed = 1;
nodes = (
(170,0,l),
(170,800,l),
(80,800,l),
(80,0,l)
);
},
{
closed = 1;
nodes = (
(683,0,l),
(683,800,l),
(593,800,l),
(593,0,l)
);
}
);
width = 763;
},
{
anchors = (
{
name = bottom;
pos = (437,0);
},
{
name = top;
pos = (437,700);
}
);
layerId = "23BFF7D0-A449-46AC-916C-A2933124BFA1";
shapes = (
{
closed = 1;
nodes = (
(814,0,l),
(304,800,l),
(71,800,l),
(569,0,l)
);
},
{
closed = 1;
nodes = (
(295,0,l),
(295,800,l),
(55,800,l),
(55,0,l)
);
},
{
closed = 1;
nodes = (
(818,0,l),
(818,800,l),
(578,800,l),
(578,0,l)
);
}
);
width = 873;
},
{
anchors = (
{
name = bottom;
pos = (364,0);
},
{
name = top;
pos = (364,833);
}
);
layerId = "529A3C21-2EE4-4A9B-A6FF-34138032017A";
shapes = (
{
closed = 1;
nodes = (
(635,0,l),
(132,800,l),
(89,800,l),
(593,0,l)
);
},
{
closed = 1;
nodes = (
(124,0,l),
(124,800,l),
(88,800,l),
(88,0,l)
);
},
{
closed = 1;
nodes = (
(638,0,l),
(638,800,l),
(602,800,l),
(602,0,l)
);
}
);
width = 727;
}
);
metricLeft = H;
metricRight = H;
unicode = 78;
},
{
glyphname = O;
lastChange = "2024-04-20 13:21:10 +0000";
layers = (
{
anchors = (
{
name = bottom;
pos = (383,0);
},
{
name = center;
pos = (383,400);
},
{
name = ogonek;
pos = (689,10);
},
{
name = top;
pos = (383,800);
},
{
name = topleft;
pos = (20,800);
},
{
name = topright;
pos = (746,800);
}
);
layerId = m01;
shapes = (
{
closed = 1;
nodes = (
(594,-16,o),
(726,148,o),
(726,409,cs),
(726,658,o),
(594,815,o),
(383,815,cs),
(172,815,o),
(40,658,o),
(40,409,cs),
(40,148,o),
(172,-16,o),
(383,-16,cs)
);
},
{
closed = 1;
nodes = (
(213,74,o),
(140,184,o),
(140,409,cs),
(140,621,o),
(213,725,o),
(383,725,cs),
(553,725,o),
(626,621,o),
(626,409,cs),
(626,184,o),
(553,74,o),
(383,74,cs)
);
}
);
width = 766;
},
{
anchors = (
{
name = bottom;
pos = (408,0);
},
{
name = center;
pos = (408,350);
},
{
name = ogonek;
pos = (734,10);
},
{
name = top;
pos = (408,700);
},
{
name = topleft;
pos = (20,700);
},
{
name = topright;
pos = (796,700);
}
);
layerId = "23BFF7D0-A449-46AC-916C-A2933124BFA1";
shapes = (
{
closed = 1;
nodes = (
(632,-16,o),
(791,160,o),
(791,409,cs),
(791,647,o),
(632,815,o),
(408,815,cs),
(184,815,o),
(25,647,o),
(25,409,cs),
(25,160,o),
(184,-16,o),
(408,-16,cs)
);
},
{
closed = 1;
nodes = (
(323,184,o),
(275,264,o),
(275,409,cs),
(275,541,o),
(323,615,o),
(408,615,cs),
(493,615,o),
(541,541,o),
(541,409,cs),
(541,264,o),
(493,184,o),
(408,184,cs)
);
}
);
width = 816;
},
{
anchors = (
{
name = bottom;
pos = (375,0);
},
{
name = center;
pos = (375,417);
},
{
name = ogonek;
pos = (674,10);
},
{
name = top;
pos = (375,833);
},
{
name = topleft;
pos = (20,833);
},
{
name = topright;
pos = (729,833);
}
);
layerId = "529A3C21-2EE4-4A9B-A6FF-34138032017A";
shapes = (
{
closed = 1;
nodes = (
(576,-16,o),
(703,148,o),
(703,409,cs),
(703,658,o),
(576,815,o),
(374,815,cs),
(171,815,o),
(44,658,o),
(44,409,cs),
(44,148,o),
(171,-16,o),
(374,-16,cs)
);
},
{
closed = 1;
nodes = (
(193,18,o),
(80,169,o),
(80,409,cs),
(80,638,o),
(193,781,o),
(374,781,cs),
(554,781,o),
(667,638,o),
(667,409,cs),
(667,169,o),
(554,18,o),
(374,18,cs)
);
}
);
width = 749;
}
);
unicode = 79;
},
{
glyphname = Oslash;
lastChange = "2024-04-20 13:21:10 +0000";
layers = (
{
layerId = m01;
shapes = (
{
closed = 1;
nodes = (
(722,856,l),
(662,895,l),
(64,-28,l),
(124,-68,l)
);
},
{
closed = 1;
nodes = (
(594,-16,o),
(726,148,o),
(726,409,cs),
(726,658,o),
(594,815,o),
(383,815,cs),
(172,815,o),
(40,658,o),
(40,409,cs),
(40,148,o),
(172,-16,o),
(383,-16,cs)
);
},
{
closed = 1;
nodes = (
(213,74,o),
(140,184,o),
(140,409,cs),
(140,621,o),
(213,725,o),
(383,725,cs),
(553,725,o),
(626,621,o),
(626,409,cs),
(626,184,o),
(553,74,o),
(383,74,cs)
);
}
);
width = 766;
},
{
layerId = "23BFF7D0-A449-46AC-916C-A2933124BFA1";
shapes = (
{
closed = 1;
nodes = (
(752,845,l),
(673,895,l),
(75,-28,l),
(154,-79,l)
);
},
{
closed = 1;
nodes = (
(632,-16,o),
(791,160,o),
(791,409,cs),
(791,647,o),
(632,815,o),
(408,815,cs),
(184,815,o),
(25,647,o),
(25,409,cs),
(25,160,o),
(184,-16,o),
(408,-16,cs)
);
},
{
closed = 1;
nodes = (
(323,184,o),
(275,264,o),
(275,409,cs),
(275,541,o),
(323,615,o),
(408,615,cs),
(493,615,o),
(541,541,o),
(541,409,cs),
(541,264,o),
(493,184,o),
(408,184,cs)
);
}
);
width = 816;
},
{
layerId = "529A3C21-2EE4-4A9B-A6FF-34138032017A";
shapes = (
{
closed = 1;
nodes = (
(702,870,l),
(669,884,l),
(71,-39,l),
(104,-54,l)
);
},
{
closed = 1;
nodes = (
(577,-16,o),
(704,148,o),
(704,409,cs),
(704,658,o),
(577,815,o),
(375,815,cs),
(172,815,o),
(45,658,o),
(45,409,cs),
(45,148,o),
(172,-16,o),
(375,-16,cs)
);
},
{
closed = 1;
nodes = (
(194,18,o),
(81,169,o),
(81,409,cs),
(81,638,o),
(194,781,o),
(375,781,cs),
(555,781,o),
(668,638,o),
(668,409,cs),
(668,169,o),
(555,18,o),
(375,18,cs)
);
}
);
width = 749;
}
);
unicode = 216;
},
{
glyphname = OE;
lastChange = "2024-04-20 13:21:10 +0000";
layers = (
{
layerId = m01;
shapes = (
{
closed = 1;
nodes = (
(594,-16,o),
(706,148,o),
(706,409,cs),
(706,658,o),
(594,815,o),
(383,815,cs),
(172,815,o),
(40,658,o),
(40,409,cs),
(40,148,o),
(172,-16,o),
(383,-16,cs)
);
},
{
closed = 1;
nodes = (
(213,74,o),
(140,184,o),
(140,409,cs),
(140,621,o),
(213,725,o),
(383,725,cs),
(553,725,o),
(626,621,o),
(626,409,cs),
(626,184,o),
(553,74,o),
(383,74,cs)
);
},
{
closed = 1;
nodes = (
(1034,0,l),
(1034,80,l),
(680,80,l),
(680,0,l)
);
},
{
closed = 1;
nodes = (
(717,0,l),
(717,800,l),
(647,800,l),
(647,0,l)
);
},
{
closed = 1;
nodes = (
(1014,370,l),
(1014,450,l),
(680,450,l),
(680,370,l)
);
},
{
closed = 1;
nodes = (
(1034,720,l),
(1034,800,l),
(680,800,l),
(680,720,l)
);
}
);
width = 1074;
},
{
layerId = "23BFF7D0-A449-46AC-916C-A2933124BFA1";
shapes = (
{
closed = 1;
nodes = (
(632,-16,o),
(771,160,o),
(771,409,cs),
(771,647,o),
(632,815,o),
(408,815,cs),
(184,815,o),
(25,647,o),
(25,409,cs),
(25,160,o),
(184,-16,o),
(408,-16,cs)
);
},
{
closed = 1;
nodes = (
(323,184,o),
(275,264,o),
(275,409,cs),
(275,541,o),
(323,615,o),
(408,615,cs),
(493,615,o),
(541,541,o),
(541,409,cs),
(541,264,o),
(493,184,o),
(408,184,cs)
);
},
{
closed = 1;
nodes = (
(1100,0,l),
(1100,160,l),
(746,160,l),
(746,0,l)
);
},
{
closed = 1;
nodes = (
(781,0,l),
(781,800,l),
(561,800,l),
(561,0,l)
);
},
{
closed = 1;
nodes = (
(1078,310,l),
(1078,490,l),
(744,490,l),
(744,310,l)
);
},
{
closed = 1;
nodes = (
(1098,640,l),
(1098,800,l),
(744,800,l),
(744,640,l)
);
}
);
width = 1125;
},
{
layerId = "529A3C21-2EE4-4A9B-A6FF-34138032017A";
shapes = (
{
closed = 1;
nodes = (
(570,-16,o),
(689,148,o),
(689,409,cs),
(689,658,o),
(570,815,o),
(380,815,cs),
(177,815,o),
(50,658,o),
(50,409,cs),
(50,148,o),
(177,-16,o),
(380,-16,cs)
);
},
{
closed = 1;
nodes = (
(199,18,o),
(86,169,o),
(86,409,cs),
(86,638,o),
(199,781,o),
(380,781,cs),
(551,781,o),
(659,638,o),
(659,409,cs),
(659,169,o),
(551,18,o),
(380,18,cs)
);
},
{
closed = 1;
nodes = (
(1023,0,l),
(1023,32,l),
(659,32,l),
(659,0,l)
);
},
{
closed = 1;
nodes = (
(695,0,l),
(695,800,l),
(659,800,l),
(659,0,l)
);
},
{
closed = 1;
nodes = (
(1003,398,l),
(1003,430,l),
(659,430,l),
(659,398,l)
);
},
{
closed = 1;
nodes = (
(1023,768,l),
(1023,800,l),
(659,800,l),
(659,768,l)
);
}
);
width = 1069;
}
);
metricRight = E;
unicode = 338;
},
{
glyphname = P;
lastChange = "2024-04-20 13:21:10 +0000";
layers = (
{
anchors = (
{
name = bottom;
pos = (301,0);
},
{
name = top;
pos = (301,800);
}
);
layerId = m01;
shapes = (
{
closed = 1;
nodes = (
(323,325,ls),
(462,325,o),
(561,427,o),
(561,571,cs),
(561,705,o),
(457,800,o),
(310,800,cs),
(133,800,l),
(133,720,l),
(313,720,ls),
(408,720,o),
(466,655,o),
(466,571,cs),
(466,474,o),
(412,405,o),
(322,405,cs),
(133,405,l),
(133,325,l)
);
},
{
closed = 1;
nodes = (
(170,0,l),
(170,800,l),
(80,800,l),
(80,0,l)
);
}
);
width = 601;
},
{
anchors = (
{
name = bottom;
pos = (366,0);
},
{
name = top;
pos = (366,700);
}
);
layerId = "23BFF7D0-A449-46AC-916C-A2933124BFA1";
shapes = (
{
closed = 1;
nodes = (
(388,300,ls),
(574,300,o),
(706,406,o),
(706,556,cs),
(706,699,o),
(569,800,o),
(375,800,cs),
(188,800,l),
(188,640,l),
(368,640,ls),
(414,640,o),
(446,605,o),
(446,556,cs),
(446,500,o),
(417,460,o),
(377,460,cs),
(188,460,l),
(188,300,l)
);
},
{
closed = 1;
nodes = (
(305,0,l),
(305,800,l),
(55,800,l),
(55,0,l)
);
}
);
width = 731;
},
{
anchors = (
{
name = bottom;
pos = (279,0);
},
{
name = top;
pos = (279,833);
}
);
layerId = "529A3C21-2EE4-4A9B-A6FF-34138032017A";
shapes = (
{
closed = 1;
nodes = (
(301,344,ls),
(425,344,o),
(513,440,o),
(513,576,cs),
(513,707,o),
(420,800,o),
(288,800,cs),
(115,800,l),
(115,768,l),
(295,768,ls),
(402,768,o),
(477,688,o),
(477,576,cs),
(477,459,o),
(405,377,o),
(304,377,cs),
(115,377,l),
(115,344,l)
);
},
{
closed = 1;
nodes = (
(124,0,l),
(124,800,l),
(88,800,l),
(88,0,l)
);
}
);
width = 559;
}
);
metricLeft = H;
metricRight = O;
unicode = 80;
},
{
glyphname = Thorn;
lastChange = "2024-04-20 13:21:10 +0000";
layers = (
{
layerId = m01;
shapes = (
{
closed = 1;
nodes = (
(323,163,ls),
(462,163,o),
(561,265,o),
(561,409,cs),
(561,543,o),
(457,638,o),
(310,638,cs),
(133,638,l),
(133,558,l),
(313,558,ls),
(408,558,o),
(466,493,o),
(466,409,cs),
(466,312,o),
(412,243,o),
(322,243,cs),
(133,243,l),
(133,163,l)
);
},
{
closed = 1;
nodes = (
(170,0,l),
(170,800,l),
(80,800,l),
(80,0,l)
);
}
);
width = 601;
},
{
layerId = "23BFF7D0-A449-46AC-916C-A2933124BFA1";
shapes = (
{
closed = 1;
nodes = (
(388,140,ls),
(574,140,o),
(706,246,o),
(706,396,cs),
(706,539,o),
(569,640,o),
(375,640,cs),
(188,640,l),
(188,480,l),
(368,480,ls),
(414,480,o),
(446,445,o),
(446,396,cs),
(446,340,o),
(417,300,o),
(377,300,cs),
(188,300,l),
(188,140,l)
);
},
{
closed = 1;
nodes = (
(305,0,l),
(305,800,l),
(55,800,l),
(55,0,l)
);
}
);
width = 731;
},
{
layerId = "529A3C21-2EE4-4A9B-A6FF-34138032017A";
shapes = (
{
closed = 1;
nodes = (
(301,171,ls),
(431,171,o),
(513,264,o),
(513,413,cs),
(513,551,o),
(426,637,o),
(288,637,cs),
(115,637,l),
(115,605,l),
(295,605,ls),
(407,605,o),
(477,531,o),
(477,413,cs),
(477,284,o),
(410,203,o),
(304,203,cs),
(115,203,l),
(115,171,l)
);
},
{
closed = 1;
nodes = (
(124,0,l),
(124,800,l),
(88,800,l),
(88,0,l)
);
}
);
width = 559;
}
);
metricRight = P;
unicode = 222;
},
{
glyphname = Q;
lastChange = "2024-04-20 13:21:10 +0000";
layers = (
{
anchors = (
{
name = bottom;
pos = (383,0);
},
{
name = top;
pos = (383,800);
}
);
layerId = m01;
shapes = (
{
closed = 1;
nodes = (
(594,-16,o),
(726,148,o),
(726,409,cs),
(726,658,o),
(594,815,o),
(383,815,cs),
(172,815,o),
(40,658,o),
(40,409,cs),
(40,148,o),
(172,-16,o),
(383,-16,cs)
);
},
{
closed = 1;
nodes = (
(617,-160,l),
(500,60,l),
(408,60,l),
(525,-160,l)
);
},
{
closed = 1;
nodes = (
(213,74,o),
(140,184,o),
(140,409,cs),
(140,621,o),
(213,725,o),
(383,725,cs),
(553,725,o),
(626,621,o),
(626,409,cs),
(626,184,o),
(553,74,o),
(383,74,cs)
);
}
);
width = 766;
},
{
anchors = (
{
name = bottom;
pos = (415,0);
},
{
name = top;
pos = (415,700);
}
);
layerId = "23BFF7D0-A449-46AC-916C-A2933124BFA1";
shapes = (
{
closed = 1;
nodes = (
(632,-16,o),
(791,160,o),
(791,409,cs),
(791,647,o),
(632,815,o),
(408,815,cs),
(184,815,o),
(25,647,o),
(25,409,cs),
(25,160,o),
(184,-16,o),
(408,-16,cs)
);
},
{
closed = 1;
nodes = (
(805,-200,l),
(634,60,l),
(412,60,l),
(583,-200,l)
);
},
{
closed = 1;
nodes = (
(323,184,o),
(275,264,o),
(275,409,cs),
(275,541,o),
(323,615,o),
(408,615,cs),
(493,615,o),
(541,541,o),
(541,409,cs),
(541,264,o),
(493,184,o),
(408,184,cs)
);
}
);
width = 830;
},
{
anchors = (
{
name = bottom;
pos = (371,0);
},
{
name = top;
pos = (371,833);
}
);
layerId = "529A3C21-2EE4-4A9B-A6FF-34138032017A";
shapes = (
{
closed = 1;
nodes = (
(576,-16,o),
(703,148,o),
(703,409,cs),
(703,658,o),
(576,815,o),
(374,815,cs),
(171,815,o),
(44,658,o),
(44,409,cs),
(44,148,o),
(171,-16,o),
(374,-16,cs)
);
},
{
closed = 1;
nodes = (
(623,-187,l),
(524,20,l),
(484,20,l),
(583,-187,l)
);
},
{
closed = 1;
nodes = (
(193,18,o),
(80,169,o),
(80,409,cs),
(80,638,o),
(193,781,o),
(374,781,cs),
(554,781,o),
(667,638,o),
(667,409,cs),
(667,169,o),
(554,18,o),
(374,18,cs)
);
}
);
width = 749;
}
);
metricLeft = O;
metricRight = O;
unicode = 81;
},
{
glyphname = R;
lastChange = "2024-04-20 13:21:10 +0000";
layers = (
{
anchors = (
{
name = bottom;
pos = (315,0);
},
{
name = top;
pos = (315,800);
}
);
layerId = m01;
shapes = (
{
closed = 1;
nodes = (
(323,325,ls),
(462,325,o),
(561,427,o),
(561,571,cs),
(561,705,o),
(457,800,o),
(310,800,cs),
(133,800,l),
(133,720,l),
(313,720,ls),
(408,720,o),
(466,655,o),
(466,571,cs),
(466,474,o),
(412,405,o),
(322,405,cs),
(133,405,l),
(133,325,l)
);
},
{
closed = 1;
nodes = (
(170,0,l),
(170,800,l),
(80,800,l),
(80,0,l)
);
},
{
closed = 1;
nodes = (
(610,0,l),
(408,363,l),
(305,363,l),
(507,0,l)
);
}
);
width = 630;
},
{
anchors = (
{
name = bottom;
pos = (373,0);
},
{
name = top;
pos = (373,700);
}
);
layerId = "23BFF7D0-A449-46AC-916C-A2933124BFA1";
shapes = (
{
closed = 1;
nodes = (
(388,310,ls),
(574,310,o),
(706,406,o),
(706,556,cs),
(706,699,o),
(569,800,o),
(375,800,cs),
(188,800,l),
(188,640,l),
(368,640,ls),
(414,640,o),
(446,600,o),
(446,551,cs),
(446,495,o),
(417,450,o),
(377,450,cs),
(188,450,l),
(188,310,l)
);
},
{
closed = 1;
nodes = (
(305,0,l),
(305,800,l),
(55,800,l),
(55,0,l)
);
},
{
closed = 1;
nodes = (
(761,0,l),
(537,393,l),
(278,393,l),
(502,0,l)
);
}
);
width = 746;
},
{
anchors = (
{
name = bottom;
pos = (296,0);
},
{
name = top;
pos = (296,833);
}
);
layerId = "529A3C21-2EE4-4A9B-A6FF-34138032017A";
shapes = (
{
closed = 1;
nodes = (
(301,344,ls),
(425,344,o),
(513,440,o),
(513,576,cs),
(513,707,o),
(420,800,o),
(288,800,cs),
(115,800,l),
(115,768,l),
(295,768,ls),
(402,768,o),
(477,689,o),
(477,578,cs),
(477,460,o),
(405,376,o),
(304,376,cs),
(115,376,l),
(115,344,l)
);
},
{
closed = 1;
nodes = (
(124,0,l),
(124,800,l),
(88,800,l),
(88,0,l)
);
},
{
closed = 1;
nodes = (
(550,0,l),
(355,353,l),
(314,353,l),
(509,0,l)
);
}
);
width = 591;
}
);
metricLeft = H;
unicode = 82;
},
{
glyphname = S;
lastChange = "2024-04-20 13:21:10 +0000";
layers = (
{
anchors = (
{
name = bottom;
pos = (276,0);
},
{
name = top;
pos = (276,800);
}
);
layerId = m01;
shapes = (
{
closed = 1;
nodes = (
(412,-16,o),
(511,81,o),
(511,219,cs),
(511,470,o),
(135,423,o),
(135,585,cs),
(135,671,o),
(195,732,o),
(280,732,cs),
(344,732,o),
(423,698,o),
(470,650,c),
(470,759,l),
(420,793,o),
(341,817,o),
(280,817,cs),
(139,817,o),
(40,721,o),
(40,585,cs),
(40,334,o),
(416,381,o),
(416,219,cs),
(416,131,o),
(356,69,o),
(271,69,cs),
(190,69,o),
(102,107,o),
(58,160,c),
(58,52,l),
(103,12,o),
(191,-16,o),
(271,-16,cs)
);
}
);
width = 551;
},
{
anchors = (
{
name = bottom;
pos = (323,0);
},
{
name = top;
pos = (323,700);
}
);
layerId = "23BFF7D0-A449-46AC-916C-A2933124BFA1";
shapes = (
{
closed = 1;
nodes = (
(503,-16,o),
(621,90,o),
(621,239,cs),
(621,590,o),
(275,463,o),
(275,565,cs),
(275,595,o),
(307,616,o),
(352,616,cs),
(423,616,o),
(513,593,o),
(570,560,c),
(570,779,l),
(513,801,o),
(401,817,o),
(298,817,cs),
(138,817,o),
(25,713,o),
(25,565,cs),
(25,214,o),
(371,341,o),
(371,239,cs),
(371,208,o),
(334,186,o),
(282,186,cs),
(194,186,o),
(97,213,o),
(47,250,c),
(47,32,l),
(87,4,o),
(207,-16,o),
(336,-16,cs)
);
}
);
width = 646;
},
{
anchors = (
{
name = bottom;
pos = (259,0);
},
{
name = top;
pos = (259,833);
}
);
layerId = "529A3C21-2EE4-4A9B-A6FF-34138032017A";
shapes = (
{
closed = 1;
nodes = (
(390,-16,o),
(473,64,o),
(473,192,cs),
(473,410,o),
(79,422,o),
(79,612,cs),
(79,717,o),
(150,783,o),
(264,783,cs),
(327,783,o),
(393,757,o),
(436,715,c),
(436,762,l),
(389,800,o),
(322,817,o),
(264,817,cs),
(129,817,o),
(44,738,o),
(44,612,cs),
(44,394,o),
(438,382,o),
(438,192,cs),
(438,85,o),
(368,18,o),
(257,18,cs),
(178,18,o),
(102,48,o),
(61,84,c),
(61,39,l),
(107,5,o),
(182,-16,o),
(257,-16,cs)
);
}
);
width = 519;
}
);
metricLeft = O;
metricRight = O;
unicode = 83;
},
{
glyphname = Germandbls;
lastChange = "2024-04-20 13:21:10 +0000";
layers = (
{
background = {
shapes = (
{
closed = 1;
nodes = (
(165,0,l),
(169,175,o),
(171,430,o),
(171,616,cs),
(171,684,o),
(244,732,o),
(300,732,cs),
(374,732,o),
(428,684,o),
(428,615,cs),
(428,547,o),
(291,492,o),
(291,394,cs),
(291,204,o),
(480,262,o),
(480,152,cs),
(480,103,o),
(436,69,o),
(387,69,cs),
(341,69,o),
(289,95,o),
(261,131,c),
(261,28,l),
(291,2,o),
(343,-16,o),
(387,-16,cs),
(482,-16,o),
(570,54,o),
(570,152,cs),
(570,342,o),
(381,284,o),
(381,394,cs),
(381,456,o),
(517,498,o),
(517,615,cs),
(517,733,o),
(421,817,o),
(300,817,cs),
(189,817,o),
(80,734,o),
(80,616,cs),
(80,0,l)
);
}
);
};
layerId = m01;
shapes = (
{
closed = 1;
nodes = (
(502,-16,o),
(580,74,o),
(580,172,cs),
(580,362,o),
(401,324,o),
(401,434,cs),
(401,536,o),
(557,518,o),
(557,655,cs),
(557,817,l),
(290,817,ls),
(179,817,o),
(80,734,o),
(80,616,cs),
(80,0,l),
(165,0,l),
(169,175,o),
(171,430,o),
(171,616,cs),
(171,684,o),
(234,737,o),
(290,737,cs),
(467,737,l),
(467,655,ls),
(467,567,o),
(301,572,o),
(301,434,cs),
(301,244,o),
(480,282,o),
(480,172,cs),
(480,123,o),
(456,74,o),
(407,74,cs),
(361,74,o),
(289,100,o),
(261,136,c),
(261,28,l),
(291,2,o),
(363,-16,o),
(407,-16,cs)
);
}
);
width = 620;
},
{
layerId = "23BFF7D0-A449-46AC-916C-A2933124BFA1";
shapes = (
{
closed = 1;
nodes = (
(630,-16,o),
(722,54,o),
(722,152,cs),
(722,342,o),
(583,284,o),
(583,394,cs),
(583,456,o),
(689,478,o),
(689,595,cs),
(689,817,l),
(362,817,ls),
(177,817,o),
(45,734,o),
(45,616,cs),
(45,0,l),
(281,0,l),
(285,154,o),
(287,334,o),
(287,541,cs),
(287,586,o),
(326,617,o),
(362,617,cs),
(449,617,l),
(449,560,ls),
(449,492,o),
(343,492,o),
(343,394,cs),
(343,244,o),
(482,289,o),
(482,189,cs),
(482,164,o),
(456,146,o),
(419,146,cs),
(397,146,o),
(361,172,o),
(333,208,c),
(333,28,l),
(363,2,o),
(432,-16,o),
(499,-16,cs)
);
}
);
width = 747;
},
{
layerId = "529A3C21-2EE4-4A9B-A6FF-34138032017A";
shapes = (
{
closed = 1;
nodes = (
(508,-16,o),
(580,62,o),
(580,172,cs),
(580,342,o),
(335,294,o),
(335,434,cs),
(335,551,o),
(557,544,o),
(557,655,cs),
(557,817,l),
(290,817,ls),
(167,817,o),
(80,734,o),
(80,616,cs),
(80,0,l),
(111,0,l),
(115,154,o),
(117,409,o),
(117,616,cs),
(117,715,o),
(189,785,o),
(290,785,cs),
(521,785,l),
(521,655,ls),
(521,567,o),
(301,572,o),
(301,434,cs),
(301,264,o),
(544,312,o),
(544,172,cs),
(544,82,o),
(487,18,o),
(407,18,cs),
(362,18,o),
(302,35,o),
(261,66,c),
(261,28,l),
(291,2,o),
(351,-16,o),
(407,-16,cs)
);
}
);
width = 625;
}
);
metricRight = o;
unicode = 7838;
},
{
glyphname = T;
lastChange = "2024-04-20 13:21:10 +0000";
layers = (
{
anchors = (
{
name = bottom;
pos = (300,0);
},
{
name = center;
pos = (300,400);
},
{
name = top;
pos = (300,800);
}
);
layerId = m01;
shapes = (
{
closed = 1;
nodes = (
(337,0,l),
(337,800,l),
(247,800,l),
(247,0,l)
);
},
{
closed = 1;
nodes = (
(579,720,l),
(579,800,l),
(20,800,l),
(20,720,l)
);
}
);
width = 599;
},
{
anchors = (
{
name = bottom;
pos = (300,0);
},
{
name = center;
pos = (300,350);
},
{
name = top;
pos = (300,700);
}
);
layerId = "23BFF7D0-A449-46AC-916C-A2933124BFA1";
shapes = (
{
closed = 1;
nodes = (
(425,0,l),
(425,800,l),
(175,800,l),
(175,0,l)
);
},
{
closed = 1;
nodes = (
(595,620,l),
(595,800,l),
(5,800,l),
(5,620,l)
);
}
);
width = 600;
},
{
anchors = (
{
name = bottom;
pos = (300,0);
},
{
name = center;
pos = (300,417);
},
{
name = top;
pos = (300,833);
}
);
layerId = "529A3C21-2EE4-4A9B-A6FF-34138032017A";
shapes = (
{
closed = 1;
nodes = (
(307,0,l),
(307,800,l),
(271,800,l),
(271,0,l)
);
},
{
closed = 1;
nodes = (
(574,768,l),
(574,800,l),
(25,800,l),
(25,768,l)
);
}
);
width = 599;
}
);
unicode = 84;
},
{
glyphname = U;
lastChange = "2024-04-20 13:21:10 +0000";
layers = (
{
anchors = (
{
name = bottom;
pos = (363,0);
},
{
name = ogonek;
pos = (653,10);
},
{
name = top;
pos = (363,800);
},
{
name = topright;
pos = (706,800);
}
);
layerId = m01;
shapes = (
{
closed = 1;
nodes = (
(526,-16,o),
(646,98,o),
(646,258,cs),
(646,802,l),
(556,802,l),
(556,258,ls),
(556,147,o),
(466,69,o),
(357,69,cs),
(246,69,o),
(170,147,o),
(170,258,cs),
(170,801,l),
(80,801,l),
(80,258,ls),
(81,98,o),
(197,-16,o),
(357,-16,cs)
);
}
);
width = 726;
},
{
anchors = (
{
name = bottom;
pos = (415,0);
},
{
name = ogonek;
pos = (747,10);
},
{
name = top;
pos = (415,700);
},
{
name = topright;
pos = (810,700);
}
);
layerId = "23BFF7D0-A449-46AC-916C-A2933124BFA1";
shapes = (
{
closed = 1;
nodes = (
(623,-16,o),
(775,124,o),
(775,323,cs),
(775,802,l),
(525,802,l),
(525,323,ls),
(525,242,o),
(477,184,o),
(409,184,cs),
(348,184,o),
(305,242,o),
(305,323,cs),
(305,801,l),
(55,801,l),
(55,323,ls),
(56,124,o),
(203,-16,o),
(409,-16,cs)
);
}
);
width = 830;
},
{
anchors = (
{
name = bottom;
pos = (346,0);
},
{
name = ogonek;
pos = (622,10);
},
{
name = top;
pos = (346,833);
},
{
name = topright;
pos = (671,833);
}
);
layerId = "529A3C21-2EE4-4A9B-A6FF-34138032017A";
shapes = (
{
closed = 1;
nodes = (
(494,-16,o),
(603,88,o),
(603,236,cs),
(603,802,l),
(567,802,l),
(567,236,ls),
(567,107,o),
(473,16,o),
(340,16,cs),
(213,16,o),
(124,107,o),
(124,236,cs),
(124,801,l),
(88,801,l),
(88,236,ls),
(89,88,o),
(193,-16,o),
(340,-16,cs)
);
}
);
width = 692;
}
);
metricLeft = H;
metricRight = H;
unicode = 85;
},
{
glyphname = V;
lastChange = "2024-04-20 13:21:10 +0000";
layers = (
{
anchors = (
{
name = bottom;
pos = (317,0);
},
{
name = top;
pos = (317,800);
}
);
layerId = m01;
shapes = (
{
closed = 1;
nodes = (
(368,0,l),
(633,800,l),
(544,800,l),
(305,79,l),
(329,79,l),
(90,800,l),
(0,800,l),
(266,0,l)
);
}
);
width = 633;
},
{
anchors = (
{
name = bottom;
pos = (394,0);
},
{
name = top;
pos = (394,700);
}
);
layerId = "23BFF7D0-A449-46AC-916C-A2933124BFA1";
shapes = (
{
closed = 1;
nodes = (
(521,0,l),
(787,800,l),
(555,800,l),
(362,218,l),
(445,218,l),
(253,800,l),
(0,800,l),
(266,0,l)
);
}
);
width = 787;
},
{
anchors = (
{
name = bottom;
pos = (291,0);
},
{
name = top;
pos = (291,833);
}
);
layerId = "529A3C21-2EE4-4A9B-A6FF-34138032017A";
shapes = (
{
closed = 1;
nodes = (
(317,0,l),
(582,800,l),
(544,800,l),
(290,33,l),
(292,33,l),
(38,800,l),
(0,800,l),
(266,0,l)
);
}
);
width = 582;
}
);
unicode = 86;
},
{
glyphname = W;
lastChange = "2024-04-20 13:21:10 +0000";
layers = (
{
anchors = (
{
name = bottom;
pos = (446,0);
},
{
name = top;
pos = (446,800);
}
);
layerId = m01;
shapes = (
{
closed = 1;
nodes = (
(696,0,l),
(500,800,l),
(413,800,l),
(609,0,l)
);
},
{
closed = 1;
nodes = (
(283,0,l),
(87,800,l),
(0,800,l),
(196,0,l)
);
},
{
closed = 1;
nodes = (
(289,0,l),
(485,800,l),
(403,800,l),
(207,0,l)
);
},
{
closed = 1;
nodes = (
(695,0,l),
(891,800,l),
(809,800,l),
(613,0,l)
);
}
);
width = 891;
},
{
anchors = (
{
name = bottom;
pos = (493,0);
},
{
name = top;
pos = (493,700);
}
);
layerId = "23BFF7D0-A449-46AC-916C-A2933124BFA1";
shapes = (
{
closed = 1;
nodes = (
(802,0,l),
(606,800,l),
(393,800,l),
(589,0,l)
);
},
{
closed = 1;
nodes = (
(389,0,l),
(193,800,l),
(-20,800,l),
(176,0,l)
);
},
{
closed = 1;
nodes = (
(399,0,l),
(595,800,l),
(393,800,l),
(197,0,l)
);
},
{
closed = 1;
nodes = (
(810,0,l),
(1006,800,l),
(804,800,l),
(608,0,l)
);
}
);
width = 986;
},
{
anchors = (
{
name = bottom;
pos = (430,0);
},
{
name = top;
pos = (430,833);
}
);
layerId = "529A3C21-2EE4-4A9B-A6FF-34138032017A";
shapes = (
{
closed = 1;
nodes = (
(653,0,l),
(457,800,l),
(420,800,l),
(616,0,l)
);
},
{
closed = 1;
nodes = (
(240,0,l),
(44,800,l),
(7,800,l),
(203,0,l)
);
},
{
closed = 1;
nodes = (
(252,0,l),
(448,800,l),
(411,800,l),
(215,0,l)
);
},
{
closed = 1;
nodes = (
(657,0,l),
(853,800,l),
(816,800,l),
(620,0,l)
);
}
);
width = 859;
}
);
unicode = 87;
},
{
glyphname = X;
lastChange = "2024-04-20 13:21:10 +0000";
layers = (
{
anchors = (
{
name = bottom;
pos = (307,0);
},
{
name = top;
pos = (307,800);
}
);
layerId = m01;
shapes = (
{
closed = 1;
nodes = (
(614,0,l),
(138,800,l),
(33,800,l),
(509,0,l)
);
},
{
closed = 1;
nodes = (
(328,382,l),
(276,450,l),
(0,0,l),
(94,-1,l)
);
},
{
closed = 1;
nodes = (
(611,799,l),
(517,800,l),
(296,450,l),
(347,382,l)
);
}
);
width = 614;
},
{
anchors = (
{
name = bottom;
pos = (379,0);
},
{
name = top;
pos = (379,700);
}
);
layerId = "23BFF7D0-A449-46AC-916C-A2933124BFA1";
shapes = (
{
closed = 1;
nodes = (
(787,0,l),
(284,800,l),
(5,800,l),
(508,0,l)
);
},
{
closed = 1;
nodes = (
(484,382,l),
(262,450,l),
(-30,0,l),
(239,-1,l)
);
},
{
closed = 1;
nodes = (
(784,799,l),
(515,800,l),
(283,450,l),
(505,382,l)
);
}
);
width = 757;
},
{
anchors = (
{
name = bottom;
pos = (283,0);
},
{
name = top;
pos = (283,833);
}
);
layerId = "529A3C21-2EE4-4A9B-A6FF-34138032017A";
shapes = (
{
closed = 1;
nodes = (
(551,0,l),
(84,800,l),
(42,800,l),
(509,0,l)
);
},
{
closed = 1;
nodes = (
(290,396,l),
(281,450,l),
(10,0,l),
(52,0,l)
);
},
{
closed = 1;
nodes = (
(553,799,l),
(512,801,l),
(288,451,l),
(297,398,l)
);
}
);
width = 566;
}
);
unicode = 88;
},
{
glyphname = Y;
lastChange = "2024-04-20 13:21:10 +0000";
layers = (
{
anchors = (
{
name = bottom;
pos = (287,0);
},
{
name = top;
pos = (287,800);
},
{
name = topleft;
pos = (20,800);
}
);
layerId = m01;
shapes = (
{
closed = 1;
nodes = (
(326,362,l),
(573,800,l),
(483,800,l),
(236,362,l)
);
},
{
closed = 1;
nodes = (
(326,0,l),
(326,362,l),
(236,362,l),
(236,0,l)
);
},
{
closed = 1;
nodes = (
(326,362,l),
(97,800,l),
(0,800,l),
(236,362,l)
);
}
);
width = 573;
},
{
anchors = (
{
name = bottom;
pos = (327,0);
},
{
name = top;
pos = (327,700);
},
{
name = topleft;
pos = (20,700);
}
);
layerId = "23BFF7D0-A449-46AC-916C-A2933124BFA1";
shapes = (
{
closed = 1;
nodes = (
(431,335,l),
(683,800,l),
(463,800,l),
(211,335,l)
);
},
{
closed = 1;
nodes = (
(436,0,l),
(436,362,l),
(206,362,l),
(206,0,l)
);
},
{
closed = 1;
nodes = (
(448,362,l),
(212,800,l),
(-30,800,l),
(206,362,l)
);
}
);
width = 653;
},
{
anchors = (
{
name = bottom;
pos = (274,0);
},
{
name = top;
pos = (274,833);
},
{
name = topleft;
pos = (20,833);
}
);
layerId = "529A3C21-2EE4-4A9B-A6FF-34138032017A";
shapes = (
{
closed = 1;
nodes = (
(287,362,l),
(536,800,l),
(490,800,l),
(260,379,l)
);
},
{
closed = 1;
nodes = (
(287,0,l),
(287,383,l),
(251,383,l),
(251,0,l)
);
},
{
closed = 1;
nodes = (
(287,373,l),
(51,800,l),
(10,800,l),
(258,340,l)
);
}
);
width = 546;
}
);
unicode = 89;
},
{
glyphname = Z;
lastChange = "2024-04-20 13:21:10 +0000";
layers = (
{
anchors = (
{
name = bottom;
pos = (324,0);
},
{
name = center;
pos = (324,400);
},
{
name = top;
pos = (324,800);
}
);
layerId = m01;
shapes = (
{
closed = 1;
nodes = (
(124,0,l),
(628,800,l),
(525,800,l),
(20,0,l)
);
},
{
closed = 1;
nodes = (
(580,0,l),
(580,80,l),
(80,80,l),
(80,0,l)
);
},
{
closed = 1;
nodes = (
(560,720,l),
(560,800,l),
(60,800,l),
(60,720,l)
);
}
);
width = 648;
},
{
anchors = (
{
name = bottom;
pos = (372,0);
},
{
name = center;
pos = (372,350);
},
{
name = top;
pos = (372,700);
}
);
layerId = "23BFF7D0-A449-46AC-916C-A2933124BFA1";
shapes = (
{
closed = 1;
nodes = (
(273,0,l),
(724,800,l),
(451,800,l),
(0,0,l)
);
},
{
closed = 1;
nodes = (
(696,0,l),
(696,180,l),
(139,180,l),
(139,0,l)
);
},
{
closed = 1;
nodes = (
(623,620,l),
(623,800,l),
(39,800,l),
(39,620,l)
);
}
);
width = 744;
},
{
anchors = (
{
name = bottom;
pos = (308,0);
},
{
name = center;
pos = (308,417);
},
{
name = top;
pos = (308,833);
}
);
layerId = "529A3C21-2EE4-4A9B-A6FF-34138032017A";
shapes = (
{
closed = 1;
nodes = (
(74,0,l),
(596,800,l),
(550,800,l),
(27,0,l)
);
},
{
closed = 1;
nodes = (
(541,0,l),
(541,36,l),
(60,36,l),
(60,0,l)
);
},
{
closed = 1;
nodes = (
(539,764,l),
(539,800,l),
(67,800,l),
(67,764,l)
);
}
);
width = 616;
}
);
unicode = 90;
},
{
glyphname = a;
lastChange = "2024-04-20 13:24:55 +0000";
layers = (
{
anchors = (
{
name = bottom;
pos = (278,0);
},
{
name = ogonek;
pos = (500,10);
},
{
name = top;
pos = (278,600);
}
);
layerId = m01;
shapes = (
{
closed = 1;
nodes = (
(476,0,l),
(476,446,ls),
(476,546,o),
(391,616,o),
(271,616,cs),
(199,616,o),
(118,596,o),
(75,567,c),
(81,483,l),
(133,514,o),
(212,536,o),
(271,536,cs),
(341,536,o),
(391,499,o),
(391,446,cs),
(391,91,l),
(401,0,l)
);
},
{
closed = 1;
nodes = (
(300,-15,o),
(380,26,o),
(423,84,c),
(423,153,l),
(374,99,o),
(295,60,o),
(231,60,cs),
(171,60,o),
(128,111,o),
(128,184,cs),
(128,246,o),
(187,290,o),
(271,290,cs),
(326,290,o),
(386,288,o),
(416,286,c),
(416,355,l),
(402,358,o),
(342,360,o),
(271,360,cs),
(136,360,o),
(40,287,o),
(40,184,cs),
(40,67,o),
(119,-15,o),
(231,-15,cs)
);
}
);
width = 556;
},
{
anchors = (
{
name = bottom;
pos = (344,0);
},
{
name = ogonek;
pos = (618,10);
},
{
name = top;
pos = (344,500);
}
);
layerId = "23BFF7D0-A449-46AC-916C-A2933124BFA1";
shapes = (
{
closed = 1;
nodes = (
(637,0,l),
(637,446,ls),
(637,546,o),
(516,616,o),
(346,616,cs),
(235,616,o),
(120,592,o),
(70,557,c),
(76,403,l),
(128,434,o),
(211,456,o),
(276,456,cs),
(340,456,o),
(386,437,o),
(386,396,cs),
(386,91,l),
(396,0,l)
);
},
{
closed = 1;
nodes = (
(332,-15,o),
(408,26,o),
(438,84,c),
(438,198,l),
(394,149,o),
(356,115,o),
(334,115,cs),
(304,115,o),
(275,144,o),
(275,184,cs),
(275,217,o),
(304,250,o),
(346,250,cs),
(376,250,o),
(411,246,o),
(431,241,c),
(431,360,l),
(414,372,o),
(363,380,o),
(306,380,cs),
(141,380,o),
(25,299,o),
(25,184,cs),
(25,62,o),
(120,-15,o),
(254,-15,cs)
);
}
);
width = 687;
},
{
anchors = (
{
name = bottom;
pos = (256,0);
},
{
name = ogonek;
pos = (461,10);
},
{
name = top;
pos = (256,633);
}
);
layerId = "529A3C21-2EE4-4A9B-A6FF-34138032017A";
shapes = (
{
closed = 1;
nodes = (
(422,0,l),
(422,456,ls),
(422,550,o),
(354,616,o),
(258,616,cs),
(192,616,o),
(117,597,o),
(77,570,c),
(83,540,l),
(128,567,o),
(200,586,o),
(258,586,cs),
(333,586,o),
(386,532,o),
(386,456,cs),
(386,91,l),
(390,0,l)
);
},
{
closed = 1;
nodes = (
(285,-15,o),
(371,26,o),
(418,84,c),
(418,124,l),
(368,60,o),
(282,15,o),
(210,15,cs),
(134,15,o),
(81,85,o),
(81,184,cs),
(81,265,o),
(152,322,o),
(253,322,cs),
(348,322,o),
(413,322,o),
(411,323,c),
(411,353,l),
(358,353,o),
(306,353,o),
(253,353,cs),
(131,353,o),
(45,283,o),
(45,184,cs),
(45,67,o),
(113,-15,o),
(210,-15,cs)
);
}
);
width = 512;
}
);
metricLeft = o;
metricRight = n;
unicode = 97;
},
{
glyphname = ae;
lastChange = "2024-04-20 13:25:59 +0000";
layers = (
{
anchors = (
{
name = bottom;
pos = (278,0);
},
{
name = top;
pos = (278,600);
}
);
layerId = m01;
shapes = (
{
closed = 1;
nodes = (
(730,-16,o),
(810,6,o),
(848,38,c),
(848,131,l),
(808,95,o),
(728,69,o),
(655,69,cs),
(548,69,o),
(470,158,o),
(466,285,c),
(864,285,l),
(865,325,ls),
(865,495,o),
(770,616,o),
(635,616,cs),
(480,616,o),
(390,488,o),
(390,307,cs),
(390,118,o),
(488,-16,o),
(655,-16,cs)
);
},
{
closed = 1;
nodes = (
(300,-15,o),
(380,26,o),
(423,84,c),
(423,153,l),
(374,99,o),
(295,60,o),
(231,60,cs),
(171,60,o),
(128,111,o),
(128,184,cs),
(128,246,o),
(187,290,o),
(271,290,cs),
(326,290,o),
(386,288,o),
(416,286,c),
(416,355,l),
(402,358,o),
(342,360,o),
(271,360,cs),
(136,360,o),
(40,287,o),
(40,184,cs),
(40,67,o),
(119,-15,o),
(231,-15,cs)
);
},
{
closed = 1;
nodes = (
(456,0,l),
(456,446,ls),
(456,546,o),
(391,616,o),
(271,616,cs),
(199,616,o),
(118,596,o),
(75,567,c),
(81,483,l),
(133,514,o),
(212,536,o),
(271,536,cs),
(341,536,o),
(391,499,o),
(391,446,cs),
(391,91,l),
(401,0,l)
);
},
{
closed = 1;
nodes = (
(468,366,l),
(476,463,o),
(545,531,o),
(635,531,cs),
(713,531,o),
(774,462,o),
(781,365,c)
);
}
);
width = 905;
},
{
anchors = (
{
name = bottom;
pos = (506,0);
},
{
name = top;
pos = (506,500);
}
);
layerId = "23BFF7D0-A449-46AC-916C-A2933124BFA1";
shapes = (
{
closed = 1;
nodes = (
(834,-16,o),
(930,6,o),
(968,38,c),
(968,152,l),
(952,141,o),
(872,134,o),
(775,134,cs),
(666,134,o),
(617,171,o),
(616,210,c),
(986,210,l),
(987,325,ls),
(987,487,o),
(862,616,o),
(705,616,cs),
(509,616,o),
(399,488,o),
(399,307,cs),
(399,109,o),
(516,-16,o),
(735,-16,cs)
);
},
{
closed = 1;
nodes = (
(332,-15,o),
(408,26,o),
(438,84,c),
(438,198,l),
(394,149,o),
(356,115,o),
(334,115,cs),
(304,115,o),
(275,144,o),
(275,184,cs),
(275,217,o),
(304,250,o),
(346,250,cs),
(376,250,o),
(411,246,o),
(431,241,c),
(431,360,l),
(414,372,o),
(363,380,o),
(306,380,cs),
(141,380,o),
(25,299,o),
(25,184,cs),
(25,62,o),
(120,-15,o),
(254,-15,cs)
);
},
{
closed = 1;
nodes = (
(617,0,l),
(617,446,ls),
(617,546,o),
(506,616,o),
(346,616,cs),
(235,616,o),
(120,592,o),
(70,557,c),
(76,403,l),
(128,434,o),
(211,456,o),
(276,456,cs),
(340,456,o),
(386,437,o),
(386,396,cs),
(386,91,l),
(396,0,l)
);
},
{
closed = 1;
nodes = (
(618,361,l),
(624,434,o),
(650,466,o),
(705,466,cs),
(752,466,o),
(775,434,o),
(781,360,c)
);
}
);
width = 1012;
},
{
anchors = (
{
name = bottom;
pos = (202,0);
},
{
name = top;
pos = (202,633);
}
);
background = {
shapes = (
{
closed = 1;
nodes = (
(422,0,l),
(422,456,ls),
(422,550,o),
(354,616,o),
(258,616,cs),
(192,616,o),
(117,597,o),
(77,570,c),
(83,540,l),
(128,567,o),
(200,586,o),
(258,586,cs),
(333,586,o),
(386,532,o),
(386,456,cs),
(386,91,l),
(390,0,l)
);
},
{
closed = 1;
nodes = (
(285,-15,o),
(371,26,o),
(418,84,c),
(418,124,l),
(368,60,o),
(282,15,o),
(210,15,cs),
(134,15,o),
(81,85,o),
(81,184,cs),
(81,265,o),
(152,312,o),
(253,312,cs),
(348,312,o),
(413,312,o),
(411,313,c),
(411,343,l),
(253,343,ls),
(131,343,o),
(45,283,o),
(45,184,cs),
(45,67,o),
(113,-15,o),
(210,-15,cs)
);
},
{
closed = 1;
nodes = (
(712,-16,o),
(789,6,o),
(827,38,c),
(827,76,l),
(790,41,o),
(713,16,o),
(641,16,cs),
(513,16,o),
(422,140,o),
(422,312,c),
(839,312,l),
(839,325,ls),
(839,495,o),
(753,616,o),
(631,616,cs),
(488,616,o),
(386,488,o),
(386,307,cs),
(386,118,o),
(492,-16,o),
(641,-16,cs)
);
},
{
closed = 1;
nodes = (
(424,339,l),
(436,484,o),
(522,584,o),
(631,584,cs),
(732,584,o),
(803,483,o),
(803,338,c)
);
}
);
};
layerId = "529A3C21-2EE4-4A9B-A6FF-34138032017A";
shapes = (
{
closed = 1;
nodes = (
(713,-16,o),
(784,6,o),
(822,38,c),
(822,76,l),
(784,41,o),
(713,17,o),
(650,17,cs),
(520,17,o),
(424,139,o),
(418,312,c),
(834,308,l),
(834,321,ls),
(834,491,o),
(749,616,o),
(630,616,cs),
(484,616,o),
(385,488,o),
(385,307,cs),
(385,118,o),
(492,-16,o),
(650,-16,cs)
);
},
{
closed = 1;
nodes = (
(296,-17,o),
(369,25,o),
(413,84,c),
(413,124,l),
(355,60,o),
(283,15,o),
(231,15,cs),
(143,15,o),
(81,85,o),
(81,184,cs),
(81,259,o),
(160,312,o),
(271,312,cs),
(359,312,o),
(403,312,o),
(402,313,c),
(402,343,l),
(358,343,o),
(315,343,o),
(271,343,cs),
(139,343,o),
(45,277,o),
(45,184,cs),
(45,66,o),
(122,-17,o),
(231,-17,cs)
);
},
{
closed = 1;
nodes = (
(418,0,l),
(418,446,ls),
(418,546,o),
(359,616,o),
(271,616,cs),
(199,616,o),
(120,599,o),
(77,570,c),
(83,540,l),
(128,566,o),
(205,585,o),
(271,585,cs),
(338,585,o),
(385,527,o),
(385,446,cs),
(385,91,l),
(390,0,l)
);
},
{
closed = 1;
nodes = (
(418,342,l),
(430,484,o),
(517,581,o),
(630,581,cs),
(727,581,o),
(796,482,o),
(796,339,c)
);
}
);
width = 879;
}
);
metricLeft = a;
metricRight = e;
unicode = 230;
},
{
glyphname = b;
lastChange = "2024-04-20 13:21:10 +0000";
layers = (
{
anchors = (
{
name = bottom;
pos = (309,0);
},
{
name = center;
pos = (154,640);
},
{
name = top;
pos = (309,600);
}
);
layerId = m01;
shapes = (
{
closed = 1;
nodes = (
(459,-16,o),
(577,127,o),
(577,329,cs),
(577,497,o),
(468,616,o),
(313,616,cs),
(237,616,o),
(147,566,o),
(96,496,c),
(134,437,l),
(175,492,o),
(249,531,o),
(313,531,cs),
(412,531,o),
(482,447,o),
(482,329,cs),
(482,177,o),
(404,69,o),
(293,69,cs),
(232,69,o),
(165,91,o),
(130,123,c),
(80,51,l),
(127,12,o),
(216,-16,o),
(293,-16,cs)
);
},
{
closed = 1;
nodes = (
(170,51,l),
(170,800,l),
(80,800,l),
(80,51,l)
);
}
);
width = 617;
},
{
anchors = (
{
name = bottom;
pos = (366,0);
},
{
name = center;
pos = (183,640);
},
{
name = top;
pos = (366,500);
}
);
layerId = "23BFF7D0-A449-46AC-916C-A2933124BFA1";
shapes = (
{
closed = 1;
nodes = (
(564,-16,o),
(707,127,o),
(707,329,cs),
(707,497,o),
(564,616,o),
(361,616,cs),
(250,616,o),
(128,562,o),
(66,486,c),
(104,347,l),
(158,411,o),
(265,456,o),
(361,456,cs),
(417,456,o),
(457,403,o),
(457,329,cs),
(457,221,o),
(417,144,o),
(361,144,cs),
(257,144,o),
(149,168,o),
(100,203,c),
(50,51,l),
(108,12,o),
(237,-16,o),
(361,-16,cs)
);
},
{
closed = 1;
nodes = (
(300,51,l),
(300,800,l),
(50,800,l),
(50,51,l)
);
}
);
width = 732;
},
{
anchors = (
{
name = bottom;
pos = (288,0);
},
{
name = center;
pos = (143,640);
},
{
name = top;
pos = (288,633);
}
);
layerId = "529A3C21-2EE4-4A9B-A6FF-34138032017A";
shapes = (
{
closed = 1;
nodes = (
(425,-16,o),
(534,127,o),
(534,329,cs),
(534,497,o),
(436,616,o),
(297,616,cs),
(232,616,o),
(153,568,o),
(106,499,c),
(114,474,l),
(160,538,o),
(236,584,o),
(297,584,cs),
(415,584,o),
(498,478,o),
(498,329,cs),
(498,146,o),
(404,16,o),
(270,16,cs),
(208,16,o),
(142,39,o),
(110,72,c),
(90,51,l),
(133,12,o),
(208,-16,o),
(270,-16,cs)
);
},
{
closed = 1;
nodes = (
(126,51,l),
(126,800,l),
(90,800,l),
(90,51,l)
);
}
);
width = 579;
}
);
metricLeft = n;
metricRight = o;
unicode = 98;
},
{
glyphname = c;
lastChange = "2024-04-20 13:21:10 +0000";
layers = (
{
anchors = (
{
name = bottom;
pos = (269,0);
},
{
name = top;
pos = (269,600);
}
);
layerId = m01;
shapes = (
{
closed = 1;
nodes = (
(388,-16,o),
(455,2,o),
(498,28,c),
(498,131,l),
(458,95,o),
(390,69,o),
(335,69,cs),
(222,69,o),
(139,165,o),
(135,301,c),
(139,436,o),
(222,532,o),
(335,532,cs),
(390,532,o),
(458,506,o),
(498,470,c),
(498,573,l),
(455,599,o),
(388,617,o),
(335,617,cs),
(162,617,o),
(40,486,o),
(40,301,cs),
(40,115,o),
(162,-16,o),
(335,-16,cs)
);
}
);
width = 538;
},
{
anchors = (
{
name = bottom;
pos = (258,0);
},
{
name = top;
pos = (258,500);
}
);
layerId = "23BFF7D0-A449-46AC-916C-A2933124BFA1";
shapes = (
{
closed = 1;
nodes = (
(428,-16,o),
(461,-11,o),
(491,-2,c),
(491,203,l),
(461,191,o),
(429,184,o),
(400,184,cs),
(327,184,o),
(277,235,o),
(275,301,cs),
(277,366,o),
(327,417,o),
(400,417,cs),
(429,417,o),
(461,410,o),
(491,398,c),
(491,603,l),
(461,612,o),
(428,617,o),
(400,617,cs),
(180,617,o),
(25,486,o),
(25,301,cs),
(25,115,o),
(180,-16,o),
(400,-16,cs)
);
}
);
width = 516;
},
{
anchors = (
{
name = bottom;
pos = (313,0);
},
{
name = top;
pos = (313,633);
}
);
layerId = "529A3C21-2EE4-4A9B-A6FF-34138032017A";
shapes = (
{
closed = 1;
nodes = (
(375,-16,o),
(453,6,o),
(500,38,c),
(500,79,l),
(457,45,o),
(377,18,o),
(313,18,cs),
(187,18,o),
(86,142,o),
(81,301,c),
(86,459,o),
(187,583,o),
(313,583,cs),
(374,583,o),
(441,559,o),
(500,517,c),
(500,559,l),
(446,596,o),
(379,617,o),
(313,617,cs),
(156,617,o),
(45,486,o),
(45,301,cs),
(45,115,o),
(156,-16,o),
(313,-16,cs)
);
}
);
width = 545;
}
);
metricLeft = o;
metricRight = o;
unicode = 99;
},
{
glyphname = d;
lastChange = "2024-04-20 13:35:07 +0000";
layers = (
{
anchors = (
{
name = bottom;
pos = (320,0);
},
{
name = center;
pos = (479,640);
},
{
name = top;
pos = (320,600);
},
{
name = topright;
pos = (619,800);
}
);
layerId = m01;
shapes = (
{
closed = 1;
nodes = (
(398,-16,o),
(500,53,o),
(553,150,c),
(513,180,l),
(470,115,o),
(384,69,o),
(307,69,cs),
(206,69,o),
(135,170,o),
(135,313,cs),
(135,430,o),
(206,521,o),
(307,531,cs),
(377,538,o),
(460,508,o),
(508,458,c),
(506,539,l),
(467,584,o),
(384,616,o),
(307,616,cs),
(151,616,o),
(40,490,o),
(40,313,cs),
(40,120,o),
(151,-16,o),
(307,-16,cs)
);
},
{
closed = 1;
nodes = (
(559,0,l),
(559,800,l),
(469,800,l),
(469,0,l)
);
}
);
width = 639;
},
{
anchors = (
{
name = bottom;
pos = (380,0);
},
{
name = center;
pos = (569,640);
},
{
name = top;
pos = (380,500);
},
{
name = topright;
pos = (739,800);
}
);
layerId = "23BFF7D0-A449-46AC-916C-A2933124BFA1";
shapes = (
{
closed = 1;
nodes = (
(467,-16,o),
(565,53,o),
(623,150,c),
(583,255,l),
(533,190,o),
(452,144,o),
(387,144,cs),
(321,144,o),
(275,214,o),
(275,313,cs),
(275,390,o),
(321,449,o),
(387,456,cs),
(450,463,o),
(529,433,o),
(578,383,c),
(576,539,l),
(537,584,o),
(459,616,o),
(387,616,cs),
(175,616,o),
(25,490,o),
(25,313,cs),
(25,120,o),
(175,-16,o),
(387,-16,cs)
);
},
{
closed = 1;
nodes = (
(709,0,l),
(709,800,l),
(459,800,l),
(459,0,l)
);
}
);
width = 759;
},
{
anchors = (
{
name = bottom;
pos = (300,0);
},
{
name = center;
pos = (449,640);
},
{
name = top;
pos = (300,633);
},
{
name = topright;
pos = (579,800);
}
);
layerId = "529A3C21-2EE4-4A9B-A6FF-34138032017A";
shapes = (
{
closed = 1;
nodes = (
(353,-16,o),
(435,33,o),
(494,110,c),
(490,155,l),
(436,71,o),
(355,18,o),
(280,18,cs),
(158,18,o),
(81,132,o),
(81,313,cs),
(81,466,o),
(158,570,o),
(280,582,cs),
(351,588,o),
(430,556,o),
(485,498,c),
(483,539,l),
(442,586,o),
(364,616,o),
(280,616,cs),
(136,616,o),
(45,499,o),
(45,313,cs),
(45,111,o),
(136,-16,o),
(280,-16,cs)
);
},
{
closed = 1;
nodes = (
(509,0,l),
(509,800,l),
(473,800,l),
(473,0,l)
);
}
);
width = 599;
}
);
metricLeft = o;
metricRight = n;
unicode = 100;
},
{
glyphname = eth;
lastChange = "2024-04-20 13:21:10 +0000";
layers = (
{
layerId = m01;
shapes = (
{
closed = 1;
nodes = (
(477,-16,o),
(592,118,o),
(592,308,cs),
(592,488,o),
(477,616,o),
(314,616,cs),
(154,616,o),
(40,488,o),
(40,308,cs),
(40,118,o),
(154,-16,o),
(314,-16,cs)
);
},
{
closed = 1;
nodes = (
(199,69,o),
(135,154,o),
(135,308,cs),
(135,451,o),
(199,531,o),
(314,531,cs),
(432,531,o),
(497,451,o),
(497,308,cs),
(497,154,o),
(432,69,o),
(314,69,cs)
);
},
{
closed = 1;
nodes = (
(592,308,l),
(592,519,o),
(468,755,o),
(399,845,c),
(323,815,l),
(390,718,o),
(497,406,o),
(497,308,c)
);
},
{
closed = 1;
nodes = (
(568,783,l),
(547,824,l),
(266,676,l),
(287,635,l)
);
}
);
width = 632;
},
{
layerId = "23BFF7D0-A449-46AC-916C-A2933124BFA1";
shapes = (
{
closed = 1;
nodes = (
(581,-16,o),
(727,118,o),
(727,308,cs),
(727,488,o),
(581,616,o),
(374,616,cs),
(170,616,o),
(25,488,o),
(25,308,cs),
(25,118,o),
(170,-16,o),
(374,-16,cs)
);
},
{
closed = 1;
nodes = (
(310,184,o),
(275,228,o),
(275,308,cs),
(275,377,o),
(310,416,o),
(374,416,cs),
(440,416,o),
(477,377,o),
(477,308,cs),
(477,228,o),
(440,184,o),
(374,184,cs)
);
},
{
closed = 1;
nodes = (
(727,308,l),
(727,547,o),
(540,821,o),
(480,898,c),
(334,793,l),
(430,655,o),
(477,479,o),
(477,308,c)
);
},
{
closed = 1;
nodes = (
(690,825,l),
(652,901,l),
(259,701,l),
(297,625,l)
);
}
);
width = 752;
},
{
layerId = "529A3C21-2EE4-4A9B-A6FF-34138032017A";
shapes = (
{
closed = 1;
nodes = (
(442,-16,o),
(547,118,o),
(547,308,cs),
(547,488,o),
(442,616,o),
(294,616,cs),
(149,616,o),
(45,488,o),
(45,308,cs),
(45,118,o),
(149,-16,o),
(294,-16,cs)
);
},
{
closed = 1;
nodes = (
(162,18,o),
(81,129,o),
(81,308,cs),
(81,476,o),
(162,582,o),
(294,582,cs),
(429,582,o),
(511,476,o),
(511,308,cs),
(511,129,o),
(429,18,o),
(294,18,cs)
);
},
{
closed = 1;
nodes = (
(547,308,l),
(547,488,o),
(423,733,o),
(359,827,c),
(321,822,l),
(430,646,o),
(511,476,o),
(511,308,c)
);
},
{
closed = 1;
nodes = (
(510,760,l),
(495,789,l),
(301,684,l),
(317,654,l)
);
}
);
width = 592;
}
);
metricRight = o;
unicode = 240;
},
{
glyphname = e;
lastChange = "2024-04-20 13:26:50 +0000";
layers = (
{
anchors = (
{
name = bottom;
pos = (288,0);
},
{
name = ogonek;
pos = (518,10);
},
{
name = top;
pos = (288,600);
}
);
background = {
shapes = (
{
closed = 1;
nodes = (
(152,615,o),
(68,546,o),
(68,437,cs),
(68,247,o),
(412,285,o),
(412,175,cs),
(412,113,o),
(363,74,o),
(285,74,cs),
(201,74,o),
(149,113,o),
(149,175,c),
(59,175,l),
(59,58,o),
(146,-16,o),
(285,-16,cs),
(418,-16,o),
(502,58,o),
(502,175,cs),
(502,365,o),
(158,327,o),
(158,437,cs),
(158,491,o),
(207,525,o),
(285,525,cs),
(356,525,o),
(401,491,o),
(401,437,c),
(491,437,l),
(491,546,o),
(412,615,o),
(285,615,cs)
);
}
);
};
layerId = m01;
shapes = (
{
closed = 1;
nodes = (
(400,-16,o),
(480,6,o),
(518,38,c),
(518,131,l),
(478,95,o),
(398,69,o),
(325,69,cs),
(218,69,o),
(140,158,o),
(136,285,c),
(534,285,l),
(535,325,ls),
(535,495,o),
(440,616,o),
(305,616,cs),
(150,616,o),
(40,488,o),
(40,307,cs),
(40,118,o),
(158,-16,o),
(325,-16,cs)
);
},
{
closed = 1;
nodes = (
(138,366,l),
(146,463,o),
(215,531,o),
(305,531,cs),
(383,531,o),
(444,462,o),
(451,365,c)
);
}
);
width = 575;
},
{
anchors = (
{
name = bottom;
pos = (329,0);
},
{
name = ogonek;
pos = (592,10);
},
{
name = top;
pos = (329,500);
}
);
layerId = "23BFF7D0-A449-46AC-916C-A2933124BFA1";
shapes = (
{
closed = 1;
nodes = (
(480,-16,o),
(576,6,o),
(614,38,c),
(614,152,l),
(598,141,o),
(518,134,o),
(421,134,cs),
(312,134,o),
(263,171,o),
(262,210,c),
(632,210,l),
(633,325,ls),
(633,487,o),
(508,616,o),
(351,616,cs),
(155,616,o),
(25,488,o),
(25,307,cs),
(25,109,o),
(162,-16,o),
(381,-16,cs)
);
},
{
closed = 1;
nodes = (
(264,361,l),
(270,434,o),
(296,466,o),
(351,466,cs),
(398,466,o),
(421,434,o),
(427,360,c)
);
}
);
width = 658;
},
{
anchors = (
{
name = bottom;
pos = (274,0);
},
{
name = ogonek;
pos = (492,10);
},
{
name = top;
pos = (274,633);
}
);
layerId = "529A3C21-2EE4-4A9B-A6FF-34138032017A";
shapes = (
{
closed = 1;
nodes = (
(371,-16,o),
(448,6,o),
(486,38,c),
(486,76,l),
(449,41,o),
(372,16,o),
(300,16,cs),
(172,16,o),
(81,138,o),
(81,310,c),
(498,310,l),
(498,325,ls),
(498,495,o),
(412,616,o),
(290,616,cs),
(147,616,o),
(45,488,o),
(45,307,cs),
(45,118,o),
(151,-16,o),
(300,-16,cs)
);
},
{
closed = 1;
nodes = (
(83,337,l),
(95,482,o),
(181,584,o),
(290,584,cs),
(391,584,o),
(462,481,o),
(462,336,c)
);
}
);
width = 543;
}
);
metricLeft = o;
metricRight = o;
unicode = 101;
},
{
glyphname = f;
lastChange = "2024-04-20 13:21:10 +0000";
layers = (
{
anchors = (
{
name = bottom;
pos = (182,0);
},
{
name = top;
pos = (182,800);
}
);
layerId = m01;
shapes = (
{
closed = 1;
nodes = (
(200,0,l),
(206,616,ls),
(206,694,o),
(229,736,o),
(261,736,cs),
(364,736,l),
(364,808,l),
(339,813,o),
(308,816,o),
(261,816,cs),
(171,816,o),
(114,747,o),
(114,616,cs),
(114,0,l)
);
},
{
closed = 1;
nodes = (
(364,525,l),
(364,600,l),
(15,600,l),
(15,525,l)
);
}
);
width = 364;
},
{
anchors = (
{
name = bottom;
pos = (210,0);
},
{
name = top;
pos = (210,800);
}
);
layerId = "23BFF7D0-A449-46AC-916C-A2933124BFA1";
shapes = (
{
closed = 1;
nodes = (
(306,0,l),
(312,616,ls),
(312,636,o),
(336,651,o),
(366,651,cs),
(419,651,l),
(419,808,l),
(410,813,o),
(403,816,o),
(366,816,cs),
(188,816,o),
(59,733,o),
(59,616,cs),
(59,0,l)
);
},
{
closed = 1;
nodes = (
(419,440,l),
(419,600,l),
(0,600,l),
(0,440,l)
);
}
);
width = 419;
},
{
anchors = (
{
name = bottom;
pos = (173,0);
},
{
name = top;
pos = (173,800);
}
);
layerId = "529A3C21-2EE4-4A9B-A6FF-34138032017A";
shapes = (
{
closed = 1;
nodes = (
(168,0,l),
(168,616,ls),
(168,716,o),
(213,786,o),
(276,786,cs),
(346,786,l),
(346,816,l),
(323,816,o),
(299,816,o),
(276,816,cs),
(192,816,o),
(132,733,o),
(132,616,cs),
(132,0,l)
);
},
{
closed = 1;
nodes = (
(346,574,l),
(346,600,l),
(20,600,l),
(20,574,l)
);
}
);
width = 346;
}
);
unicode = 102;
},
{
glyphname = g;
lastChange = "2024-04-20 13:34:22 +0000";
layers = (
{
anchors = (
{
name = bottom;
pos = (320,-200);
},
{
name = top;
pos = (320,600);
}
);
layerId = m01;
shapes = (
{
closed = 1;
nodes = (
(451,-216,o),
(560,-104,o),
(560,55,cs),
(560,600,l),
(475,600,l),
(475,55,ls),
(475,-54,o),
(401,-131,o),
(297,-131,cs),
(226,-131,o),
(141,-99,o),
(91,-58,c),
(91,-149,l),
(131,-187,o),
(217,-216,o),
(297,-216,cs)
);
},
{
closed = 1;
nodes = (
(383,24,o),
(473,72,o),
(518,140,c),
(518,228,l),
(483,158,o),
(393,109,o),
(300,109,cs),
(203,109,o),
(135,198,o),
(135,323,cs),
(135,445,o),
(208,531,o),
(310,531,cs),
(383,531,o),
(469,494,o),
(518,442,c),
(518,523,l),
(470,577,o),
(383,616,o),
(310,616,cs),
(152,616,o),
(40,495,o),
(40,323,cs),
(40,148,o),
(148,24,o),
(300,24,cs)
);
}
);
width = 640;
},
{
anchors = (
{
name = bottom;
pos = (378,-200);
},
{
name = top;
pos = (378,500);
}
);
layerId = "23BFF7D0-A449-46AC-916C-A2933124BFA1";
shapes = (
{
closed = 1;
nodes = (
(567,-236,o),
(705,-115,o),
(705,55,cs),
(705,600,l),
(455,600,l),
(455,55,ls),
(455,-22,o),
(400,-76,o),
(312,-76,cs),
(260,-76,o),
(162,-44,o),
(86,2,c),
(86,-169,l),
(145,-208,o),
(264,-236,o),
(362,-236,cs)
);
},
{
closed = 1;
nodes = (
(412,29,o),
(502,73,o),
(543,135,c),
(543,258,l),
(505,218,o),
(435,189,o),
(375,189,cs),
(316,189,o),
(275,240,o),
(275,313,cs),
(275,397,o),
(316,456,o),
(375,456,cs),
(434,456,o),
(503,436,o),
(543,407,c),
(543,523,l),
(495,577,o),
(404,616,o),
(325,616,cs),
(149,616,o),
(25,490,o),
(25,313,cs),
(25,147,o),
(149,29,o),
(325,29,cs)
);
}
);
width = 755;
},
{
anchors = (
{
name = bottom;
pos = (301,-200);
},
{
name = top;
pos = (301,633);
}
);
layerId = "529A3C21-2EE4-4A9B-A6FF-34138032017A";
shapes = (
{
closed = 1;
nodes = (
(418,-209,o),
(512,-120,o),
(512,35,cs),
(512,600,l),
(476,600,l),
(476,35,ls),
(476,-100,o),
(396,-175,o),
(284,-175,cs),
(215,-175,o),
(136,-146,o),
(93,-104,c),
(93,-142,l),
(127,-181,o),
(206,-209,o),
(284,-209,cs)
);
},
{
closed = 1;
nodes = (
(372,2,o),
(463,52,o),
(510,122,c),
(510,184,l),
(473,96,o),
(382,34,o),
(290,34,cs),
(168,34,o),
(81,147,o),
(81,316,cs),
(81,467,o),
(168,584,o),
(290,584,cs),
(367,584,o),
(458,543,o),
(510,484,c),
(510,523,l),
(461,577,o),
(369,616,o),
(290,616,cs),
(147,616,o),
(45,486,o),
(45,316,cs),
(45,128,o),
(147,2,o),
(290,2,cs)
);
}
);
width = 602;
}
);
metricLeft = o;
metricRight = n;
unicode = 103;
},
{
glyphname = h;
lastChange = "2024-04-20 13:21:10 +0000";
layers = (
{
anchors = (
{
name = bottom;
pos = (324,0);
},
{
name = center;
pos = (162,640);
},
{
name = top;
pos = (324,800);
}
);
layerId = m01;
shapes = (
{
closed = 1;
nodes = (
(568,0,l),
(568,431,ls),
(568,539,o),
(477,616,o),
(348,616,cs),
(260,616,o),
(164,548,o),
(115,453,c),
(153,405,l),
(187,482,o),
(268,536,o),
(348,536,cs),
(424,536,o),
(478,478,o),
(478,397,cs),
(478,0,l)
);
},
{
closed = 1;
nodes = (
(170,0,l),
(170,800,l),
(80,800,l),
(80,0,l)
);
}
);
width = 648;
},
{
anchors = (
{
name = bottom;
pos = (374,0);
},
{
name = center;
pos = (187,640);
},
{
name = top;
pos = (374,800);
}
);
layerId = "23BFF7D0-A449-46AC-916C-A2933124BFA1";
shapes = (
{
closed = 1;
nodes = (
(698,0,l),
(698,431,ls),
(698,539,o),
(594,616,o),
(448,616,cs),
(341,616,o),
(223,548,o),
(165,453,c),
(203,333,l),
(244,404,o),
(312,454,o),
(368,454,cs),
(415,454,o),
(448,401,o),
(448,325,cs),
(448,0,l)
);
},
{
closed = 1;
nodes = (
(300,0,l),
(300,800,l),
(50,800,l),
(50,0,l)
);
}
);
width = 748;
},
{
anchors = (
{
name = bottom;
pos = (307,0);
},
{
name = center;
pos = (154,640);
},
{
name = top;
pos = (307,800);
}
);
layerId = "529A3C21-2EE4-4A9B-A6FF-34138032017A";
shapes = (
{
closed = 1;
nodes = (
(525,0,l),
(525,426,ls),
(525,534,o),
(451,616,o),
(328,616,cs),
(246,616,o),
(144,548,o),
(98,453,c),
(116,421,l),
(148,500,o),
(240,582,o),
(328,582,cs),
(414,582,o),
(489,509,o),
(489,426,cs),
(489,0,l)
);
},
{
closed = 1;
nodes = (
(126,0,l),
(126,800,l),
(90,800,l),
(90,0,l)
);
}
);
width = 615;
}
);
metricLeft = n;
metricRight = n;
unicode = 104;
},
{
glyphname = i;
lastChange = "2024-04-20 13:21:10 +0000";
layers = (
{
anchors = (
{
name = bottom;
pos = (125,0);
}
);
layerId = m01;
shapes = (
{
closed = 1;
nodes = (
(170,0,l),
(170,600,l),
(80,600,l),
(80,0,l)
);
},
{
closed = 1;
nodes = (
(170,710,l),
(170,800,l),
(80,800,l),
(80,710,l)
);
}
);
width = 250;
},
{
anchors = (
{
name = bottom;
pos = (180,0);
}
);
layerId = "23BFF7D0-A449-46AC-916C-A2933124BFA1";
shapes = (
{
closed = 1;
nodes = (
(310,0,l),
(310,600,l),
(50,600,l),
(50,0,l)
);
},
{
closed = 1;
nodes = (
(310,670,l),
(310,840,l),
(50,840,l),
(50,670,l)
);
}
);
width = 360;
},
{
anchors = (
{
name = bottom;
pos = (134,0);
}
);
layerId = "529A3C21-2EE4-4A9B-A6FF-34138032017A";
shapes = (
{
closed = 1;
nodes = (
(140,0,l),
(140,600,l),
(104,600,l),
(104,0,l)
);
},
{
closed = 1;
nodes = (
(150,715,l),
(150,777,l),
(90,777,l),
(90,715,l)
);
}
);
width = 240;
}
);
metricLeft = n;
metricRight = n;
unicode = 105;
},
{
glyphname = idotless;
lastChange = "2024-04-20 13:21:10 +0000";
layers = (
{
anchors = (
{
name = bottom;
pos = (125,0);
},
{
name = ogonek;
pos = (170,0);
},
{
name = top;
pos = (125,600);
}
);
layerId = m01;
shapes = (
{
closed = 1;
nodes = (
(170,0,l),
(170,600,l),
(80,600,l),
(80,0,l)
);
}
);
width = 250;
},
{
anchors = (
{
name = bottom;
pos = (180,0);
},
{
name = ogonek;
pos = (310,0);
},
{
name = top;
pos = (180,500);
}
);
layerId = "23BFF7D0-A449-46AC-916C-A2933124BFA1";
shapes = (
{
closed = 1;
nodes = (
(310,0,l),
(310,600,l),
(50,600,l),
(50,0,l)
);
}
);
width = 360;
},
{
anchors = (
{
name = bottom;
pos = (108,0);
},
{
name = ogonek;
pos = (126,0);
},
{
name = top;
pos = (108,633);
}
);
layerId = "529A3C21-2EE4-4A9B-A6FF-34138032017A";
shapes = (
{
closed = 1;
nodes = (
(126,0,l),
(126,600,l),
(90,600,l),
(90,0,l)
);
}
);
width = 216;
}
);
unicode = 305;
},
{
glyphname = j;
lastChange = "2024-04-20 13:21:10 +0000";
layers = (
{
layerId = m01;
shapes = (
{
closed = 1;
nodes = (
(111,-216,o),
(182,-127,o),
(182,0,cs),
(182,600,l),
(92,600,l),
(92,0,ls),
(92,-80,o),
(58,-136,o),
(10,-136,c),
(10,-216,l)
);
},
{
closed = 1;
nodes = (
(182,710,l),
(182,800,l),
(92,800,l),
(92,710,l)
);
}
);
width = 262;
},
{
layerId = "23BFF7D0-A449-46AC-916C-A2933124BFA1";
shapes = (
{
closed = 1;
nodes = (
(164,-216,o),
(302,-127,o),
(302,0,cs),
(302,600,l),
(52,600,l),
(52,30,ls),
(52,-15,o),
(18,-47,o),
(-30,-47,c),
(-30,-216,l)
);
},
{
closed = 1;
nodes = (
(302,680,l),
(302,830,l),
(52,830,l),
(52,680,l)
);
}
);
width = 352;
},
{
layerId = "529A3C21-2EE4-4A9B-A6FF-34138032017A";
shapes = (
{
closed = 1;
nodes = (
(93,-216,o),
(142,-127,o),
(142,0,cs),
(142,600,l),
(106,600,l),
(106,-10,ls),
(106,-111,o),
(72,-182,o),
(23,-182,c),
(23,-216,l)
);
},
{
closed = 1;
nodes = (
(150,715,l),
(150,777,l),
(90,777,l),
(90,715,l)
);
}
);
width = 240;
}
);
metricRight = n;
unicode = 106;
},
{
glyphname = jdotless;
lastChange = "2024-04-20 13:21:10 +0000";
layers = (
{
anchors = (
{
name = bottom;
pos = (131,-200);
},
{
name = top;
pos = (131,600);
}
);
layerId = m01;
shapes = (
{
closed = 1;
nodes = (
(111,-216,o),
(182,-127,o),
(182,0,cs),
(182,600,l),
(92,600,l),
(92,0,ls),
(92,-80,o),
(58,-136,o),
(10,-136,c),
(10,-216,l)
);
}
);
width = 262;
},
{
anchors = (
{
name = bottom;
pos = (176,-200);
},
{
name = top;
pos = (176,500);
}
);
layerId = "23BFF7D0-A449-46AC-916C-A2933124BFA1";
shapes = (
{
closed = 1;
nodes = (
(164,-216,o),
(302,-127,o),
(302,0,cs),
(302,600,l),
(52,600,l),
(52,30,ls),
(52,-15,o),
(18,-47,o),
(-30,-47,c),
(-30,-216,l)
);
}
);
width = 352;
},
{
anchors = (
{
name = bottom;
pos = (116,-200);
},
{
name = top;
pos = (116,633);
}
);
layerId = "529A3C21-2EE4-4A9B-A6FF-34138032017A";
shapes = (
{
closed = 1;
nodes = (
(93,-216,o),
(142,-127,o),
(142,0,cs),
(142,600,l),
(106,600,l),
(106,-10,ls),
(106,-111,o),
(72,-182,o),
(23,-182,c),
(23,-216,l)
);
}
);
width = 232;
}
);
metricRight = n;
unicode = 567;
},
{
glyphname = k;
lastChange = "2024-04-20 13:21:10 +0000";
layers = (
{
anchors = (
{
name = bottom;
pos = (302,0);
},
{
name = top;
pos = (302,800);
}
);
layerId = m01;
shapes = (
{
closed = 1;
nodes = (
(584,0,l),
(270,340,l),
(150,340,l),
(464,0,l)
);
},
{
closed = 1;
nodes = (
(170,0,l),
(170,800,l),
(80,800,l),
(80,0,l)
);
},
{
closed = 1;
nodes = (
(270,340,l),
(559,600,l),
(434,600,l),
(150,340,l)
);
}
);
width = 584;
},
{
anchors = (
{
name = bottom;
pos = (380,0);
},
{
name = top;
pos = (380,800);
}
);
layerId = "23BFF7D0-A449-46AC-916C-A2933124BFA1";
shapes = (
{
closed = 1;
nodes = (
(799,0,l),
(485,340,l),
(190,340,l),
(504,0,l)
);
},
{
closed = 1;
nodes = (
(300,0,l),
(300,800,l),
(50,800,l),
(50,0,l)
);
},
{
closed = 1;
nodes = (
(485,340,l),
(774,600,l),
(474,600,l),
(190,340,l)
);
}
);
width = 759;
},
{
anchors = (
{
name = bottom;
pos = (276,0);
},
{
name = top;
pos = (276,800);
}
);
layerId = "529A3C21-2EE4-4A9B-A6FF-34138032017A";
shapes = (
{
closed = 1;
nodes = (
(499,0,l),
(185,340,l),
(137,340,l),
(451,0,l)
);
},
{
closed = 1;
nodes = (
(126,0,l),
(126,800,l),
(90,800,l),
(90,0,l)
);
},
{
closed = 1;
nodes = (
(187,340,l),
(476,600,l),
(421,600,l),
(137,340,l)
);
}
);
width = 526;
}
);
metricLeft = n;
unicode = 107;
},
{
glyphname = l;
lastChange = "2024-04-20 13:21:10 +0000";
layers = (
{
anchors = (
{
name = bottom;
pos = (125,0);
},
{
name = center;
pos = (125,300);
},
{
name = top;
pos = (125,800);
},
{
name = topright;
pos = (230,800);
}
);
layerId = m01;
shapes = (
{
closed = 1;
nodes = (
(170,0,l),
(170,800,l),
(80,800,l),
(80,0,l)
);
}
);
width = 250;
},
{
anchors = (
{
name = bottom;
pos = (175,0);
},
{
name = center;
pos = (175,250);
},
{
name = top;
pos = (175,800);
},
{
name = topright;
pos = (330,800);
}
);
layerId = "23BFF7D0-A449-46AC-916C-A2933124BFA1";
shapes = (
{
closed = 1;
nodes = (
(300,0,l),
(300,800,l),
(50,800,l),
(50,0,l)
);
}
);
width = 350;
},
{
anchors = (
{
name = bottom;
pos = (108,0);
},
{
name = center;
pos = (109,317);
},
{
name = top;
pos = (108,800);
},
{
name = topright;
pos = (197,800);
}
);
layerId = "529A3C21-2EE4-4A9B-A6FF-34138032017A";
shapes = (
{
closed = 1;
nodes = (
(127,0,l),
(127,800,l),
(90,800,l),
(90,0,l)
);
}
);
width = 217;
}
);
metricLeft = n;
metricRight = n;
unicode = 108;
},
{
glyphname = m;
lastChange = "2024-04-20 13:21:10 +0000";
layers = (
{
anchors = (
{
name = bottom;
pos = (475,0);
},
{
name = top;
pos = (475,600);
}
);
layerId = m01;
shapes = (
{
closed = 1;
nodes = (
(870,0,l),
(870,431,ls),
(870,539,o),
(787,616,o),
(670,616,cs),
(591,616,o),
(499,548,o),
(447,453,c),
(485,405,l),
(521,482,o),
(598,536,o),
(670,536,cs),
(734,536,o),
(780,478,o),
(780,397,cs),
(780,0,l)
);
},
{
closed = 1;
nodes = (
(170,0,l),
(170,600,l),
(80,600,l),
(80,0,l)
);
},
{
closed = 1;
nodes = (
(520,0,l),
(520,431,ls),
(520,539,o),
(436,616,o),
(318,616,cs),
(251,616,o),
(167,548,o),
(115,453,c),
(153,405,l),
(189,482,o),
(258,536,o),
(318,536,cs),
(384,536,o),
(430,478,o),
(430,397,cs),
(430,0,l)
);
}
);
width = 950;
},
{
anchors = (
{
name = bottom;
pos = (573,0);
},
{
name = top;
pos = (573,500);
}
);
background = {
shapes = (
{
closed = 1;
nodes = (
(50,600,l),
(310,600,l),
(310,0,l),
(50,0,l)
);
},
{
closed = 1;
nodes = (
(256,515,o),
(386,616,o),
(478,616,cs),
(613,616,o),
(708,539,o),
(708,431,cs),
(708,0,l),
(448,0,l),
(448,278,ls),
(448,330,o),
(419,366,o),
(378,366,cs),
(318,366,o),
(246,316,o),
(203,245,c),
(165,373,l)
);
},
{
closed = 1;
nodes = (
(654,515,o),
(784,616,o),
(876,616,cs),
(1011,616,o),
(1106,539,o),
(1106,431,cs),
(1106,0,l),
(846,0,l),
(846,278,ls),
(846,330,o),
(817,366,o),
(776,366,cs),
(716,366,o),
(644,316,o),
(601,245,c),
(563,373,l)
);
}
);
};
layerId = "23BFF7D0-A449-46AC-916C-A2933124BFA1";
shapes = (
{
closed = 1;
nodes = (
(1096,0,l),
(1096,431,ls),
(1096,539,o),
(992,616,o),
(846,616,cs),
(739,616,o),
(621,518,o),
(563,423,c),
(601,303,l),
(642,374,o),
(710,454,o),
(766,454,cs),
(813,454,o),
(846,401,o),
(846,325,cs),
(846,0,l)
);
},
{
closed = 1;
nodes = (
(310,0,l),
(310,600,l),
(50,600,l),
(50,0,l)
);
},
{
closed = 1;
nodes = (
(703,0,l),
(703,431,ls),
(703,539,o),
(599,616,o),
(453,616,cs),
(346,616,o),
(228,518,o),
(170,423,c),
(208,303,l),
(249,374,o),
(317,454,o),
(373,454,cs),
(420,454,o),
(453,401,o),
(453,325,cs),
(453,0,l)
);
}
);
width = 1146;
},
{
anchors = (
{
name = bottom;
pos = (442,0);
},
{
name = top;
pos = (442,633);
}
);
layerId = "529A3C21-2EE4-4A9B-A6FF-34138032017A";
shapes = (
{
closed = 1;
nodes = (
(794,0,l),
(794,426,ls),
(794,537,o),
(724,616,o),
(625,616,cs),
(548,616,o),
(463,556,o),
(418,470,c),
(436,439,l),
(474,525,o),
(552,586,o),
(625,586,cs),
(703,586,o),
(758,520,o),
(758,426,cs),
(758,0,l)
);
},
{
closed = 1;
nodes = (
(126,0,l),
(126,600,l),
(90,600,l),
(90,0,l)
);
},
{
closed = 1;
nodes = (
(458,0,l),
(458,426,ls),
(458,537,o),
(387,616,o),
(287,616,cs),
(219,616,o),
(141,557,o),
(97,473,c),
(115,439,l),
(152,525,o),
(223,586,o),
(287,586,cs),
(366,586,o),
(422,520,o),
(422,426,cs),
(422,0,l)
);
}
);
width = 884;
}
);
metricLeft = n;
metricRight = n;
unicode = 109;
},
{
glyphname = n;
lastChange = "2024-04-20 13:21:10 +0000";
layers = (
{
anchors = (
{
name = bottom;
pos = (324,0);
},
{
name = top;
pos = (324,600);
}
);
layerId = m01;
shapes = (
{
closed = 1;
nodes = (
(568,0,l),
(568,431,ls),
(568,539,o),
(477,616,o),
(348,616,cs),
(263,616,o),
(166,548,o),
(115,453,c),
(153,405,l),
(190,482,o),
(271,536,o),
(348,536,cs),
(424,536,o),
(478,478,o),
(478,397,cs),
(478,0,l)
);
},
{
closed = 1;
nodes = (
(170,0,l),
(170,600,l),
(80,600,l),
(80,0,l)
);
}
);
width = 648;
},
{
anchors = (
{
name = bottom;
pos = (379,0);
},
{
name = top;
pos = (379,500);
}
);
layerId = "23BFF7D0-A449-46AC-916C-A2933124BFA1";
shapes = (
{
closed = 1;
nodes = (
(708,0,l),
(708,431,ls),
(708,539,o),
(604,616,o),
(458,616,cs),
(351,616,o),
(233,518,o),
(175,423,c),
(213,303,l),
(254,374,o),
(322,454,o),
(378,454,cs),
(425,454,o),
(458,401,o),
(458,325,cs),
(458,0,l)
);
},
{
closed = 1;
nodes = (
(310,0,l),
(310,600,l),
(50,600,l),
(50,0,l)
);
}
);
width = 758;
},
{
anchors = (
{
name = bottom;
pos = (306,0);
},
{
name = top;
pos = (306,633);
}
);
layerId = "529A3C21-2EE4-4A9B-A6FF-34138032017A";
shapes = (
{
closed = 1;
nodes = (
(521,0,l),
(521,426,ls),
(521,537,o),
(440,616,o),
(325,616,cs),
(237,616,o),
(141,553,o),
(95,463,c),
(113,437,l),
(152,523,o),
(240,584,o),
(325,584,cs),
(419,584,o),
(485,519,o),
(485,426,cs),
(485,0,l)
);
},
{
closed = 1;
nodes = (
(126,0,l),
(126,600,l),
(90,600,l),
(90,0,l)
);
}
);
width = 611;
}
);
unicode = 110;
},
{
glyphname = o;
lastChange = "2024-04-20 13:21:10 +0000";
layers = (
{
anchors = (
{
name = bottom;
pos = (316,0);
},
{
name = center;
pos = (316,300);
},
{
name = ogonek;
pos = (569,10);
},
{
name = top;
pos = (316,600);
},
{
name = topright;
pos = (612,600);
}
);
layerId = m01;
shapes = (
{
closed = 1;
nodes = (
(477,-16,o),
(592,118,o),
(592,308,cs),
(592,488,o),
(477,616,o),
(314,616,cs),
(154,616,o),
(40,488,o),
(40,308,cs),
(40,118,o),
(154,-16,o),
(314,-16,cs)
);
},
{
closed = 1;
nodes = (
(199,69,o),
(135,154,o),
(135,308,cs),
(135,451,o),
(199,531,o),
(314,531,cs),
(432,531,o),
(497,451,o),
(497,308,cs),
(497,154,o),
(432,69,o),
(314,69,cs)
);
}
);
width = 632;
},
{
anchors = (
{
name = bottom;
pos = (376,0);
},
{
name = center;
pos = (376,250);
},
{
name = ogonek;
pos = (677,10);
},
{
name = top;
pos = (376,500);
},
{
name = topright;
pos = (732,500);
}
);
layerId = "23BFF7D0-A449-46AC-916C-A2933124BFA1";
shapes = (
{
closed = 1;
nodes = (
(581,-16,o),
(727,118,o),
(727,308,cs),
(727,488,o),
(581,616,o),
(374,616,cs),
(170,616,o),
(25,488,o),
(25,308,cs),
(25,118,o),
(170,-16,o),
(374,-16,cs)
);
},
{
closed = 1;
nodes = (
(310,184,o),
(275,228,o),
(275,308,cs),
(275,377,o),
(310,416,o),
(374,416,cs),
(440,416,o),
(477,377,o),
(477,308,cs),
(477,228,o),
(440,184,o),
(374,184,cs)
);
}
);
width = 752;
},
{
anchors = (
{
name = bottom;
pos = (296,0);
},
{
name = center;
pos = (296,317);
},
{
name = ogonek;
pos = (533,10);
},
{
name = top;
pos = (296,633);
},
{
name = topright;
pos = (572,633);
}
);
layerId = "529A3C21-2EE4-4A9B-A6FF-34138032017A";
shapes = (
{
closed = 1;
nodes = (
(442,-16,o),
(547,118,o),
(547,308,cs),
(547,488,o),
(442,616,o),
(294,616,cs),
(148,616,o),
(45,488,o),
(45,308,cs),
(45,118,o),
(148,-16,o),
(294,-16,cs)
);
},
{
closed = 1;
nodes = (
(163,16,o),
(81,129,o),
(81,308,cs),
(81,478,o),
(163,584,o),
(294,584,cs),
(427,584,o),
(511,478,o),
(511,308,cs),
(511,129,o),
(427,16,o),
(294,16,cs)
);
}
);
width = 592;
}
);
unicode = 111;
},
{
glyphname = oslash;
lastChange = "2024-04-20 13:21:10 +0000";
layers = (
{
anchors = (
{
name = top;
pos = (316,600);
}
);
layerId = m01;
shapes = (
{
closed = 1;
nodes = (
(477,-16,o),
(592,118,o),
(592,308,cs),
(592,488,o),
(477,616,o),
(314,616,cs),
(154,616,o),
(40,488,o),
(40,308,cs),
(40,118,o),
(154,-16,o),
(314,-16,cs)
);
},
{
closed = 1;
nodes = (
(199,69,o),
(135,154,o),
(135,308,cs),
(135,451,o),
(199,531,o),
(314,531,cs),
(432,531,o),
(497,451,o),
(497,308,cs),
(497,154,o),
(432,69,o),
(314,69,cs)
);
},
{
closed = 1;
nodes = (
(536,626,l),
(485,655,l),
(93,-23,l),
(144,-52,l)
);
}
);
width = 632;
},
{
anchors = (
{
name = top;
pos = (376,500);
}
);
layerId = "23BFF7D0-A449-46AC-916C-A2933124BFA1";
shapes = (
{
closed = 1;
nodes = (
(581,-16,o),
(727,118,o),
(727,308,cs),
(727,488,o),
(581,616,o),
(374,616,cs),
(170,616,o),
(25,488,o),
(25,308,cs),
(25,118,o),
(170,-16,o),
(374,-16,cs)
);
},
{
closed = 1;
nodes = (
(310,184,o),
(275,228,o),
(275,308,cs),
(275,377,o),
(310,416,o),
(374,416,cs),
(440,416,o),
(477,377,o),
(477,308,cs),
(477,228,o),
(440,184,o),
(374,184,cs)
);
},
{
closed = 1;
nodes = (
(599,630,l),
(550,665,l),
(158,-13,l),
(207,-48,l)
);
}
);
width = 752;
},
{
anchors = (
{
name = top;
pos = (296,633);
}
);
layerId = "529A3C21-2EE4-4A9B-A6FF-34138032017A";
shapes = (
{
closed = 1;
nodes = (
(442,-16,o),
(547,118,o),
(547,308,cs),
(547,488,o),
(442,616,o),
(294,616,cs),
(148,616,o),
(45,488,o),
(45,308,cs),
(45,118,o),
(148,-16,o),
(294,-16,cs)
);
},
{
closed = 1;
nodes = (
(169,16,o),
(81,137,o),
(81,308,cs),
(81,470,o),
(169,584,o),
(294,584,cs),
(421,584,o),
(511,470,o),
(511,308,cs),
(511,137,o),
(421,16,o),
(294,16,cs)
);
},
{
closed = 1;
nodes = (
(497,625,l),
(470,643,l),
(78,-35,l),
(105,-53,l)
);
}
);
width = 592;
}
);
unicode = 248;
},
{
glyphname = oe;
lastChange = "2024-04-20 13:27:31 +0000";
layers = (
{
anchors = (
{
name = bottom;
pos = (506,0);
},
{
name = top;
pos = (506,600);
}
);
layerId = m01;
shapes = (
{
closed = 1;
nodes = (
(477,-16,o),
(572,118,o),
(572,308,cs),
(572,488,o),
(477,616,o),
(314,616,cs),
(154,616,o),
(40,488,o),
(40,308,cs),
(40,118,o),
(154,-16,o),
(314,-16,cs)
);
},
{
closed = 1;
nodes = (
(199,69,o),
(135,154,o),
(135,308,cs),
(135,451,o),
(199,531,o),
(314,531,cs),
(432,531,o),
(497,451,o),
(497,308,cs),
(497,154,o),
(432,69,o),
(314,69,cs)
);
},
{
closed = 1;
nodes = (
(837,-16,o),
(917,6,o),
(955,38,c),
(955,131,l),
(915,95,o),
(835,69,o),
(762,69,cs),
(655,69,o),
(577,158,o),
(573,285,c),
(971,285,l),
(972,325,ls),
(972,495,o),
(877,616,o),
(742,616,cs),
(607,616,o),
(497,488,o),
(497,307,cs),
(497,118,o),
(615,-16,o),
(762,-16,cs)
);
},
{
closed = 1;
nodes = (
(575,366,l),
(583,463,o),
(652,531,o),
(742,531,cs),
(820,531,o),
(881,462,o),
(888,365,c)
);
}
);
width = 1012;
},
{
anchors = (
{
name = bottom;
pos = (537,0);
},
{
name = top;
pos = (537,500);
}
);
layerId = "23BFF7D0-A449-46AC-916C-A2933124BFA1";
shapes = (
{
closed = 1;
nodes = (
(561,-16,o),
(667,118,o),
(667,308,cs),
(667,488,o),
(561,616,o),
(374,616,cs),
(170,616,o),
(25,488,o),
(25,308,cs),
(25,118,o),
(170,-16,o),
(374,-16,cs)
);
},
{
closed = 1;
nodes = (
(310,184,o),
(275,228,o),
(275,308,cs),
(275,377,o),
(310,416,o),
(374,416,cs),
(440,416,o),
(477,377,o),
(477,308,cs),
(477,228,o),
(440,184,o),
(374,184,cs)
);
},
{
closed = 1;
nodes = (
(896,-16,o),
(992,6,o),
(1030,38,c),
(1030,152,l),
(1014,141,o),
(934,134,o),
(837,134,cs),
(728,134,o),
(679,171,o),
(678,210,c),
(1048,210,l),
(1049,325,ls),
(1049,487,o),
(924,616,o),
(767,616,cs),
(591,616,o),
(481,488,o),
(481,307,cs),
(481,109,o),
(598,-16,o),
(797,-16,cs)
);
},
{
closed = 1;
nodes = (
(680,351,l),
(680,431,o),
(706,466,o),
(767,466,cs),
(820,466,o),
(843,431,o),
(843,350,c)
);
}
);
width = 1074;
},
{
anchors = (
{
name = bottom;
pos = (496,0);
},
{
name = top;
pos = (496,633);
}
);
layerId = "529A3C21-2EE4-4A9B-A6FF-34138032017A";
shapes = (
{
closed = 1;
nodes = (
(433,-16,o),
(531,118,o),
(531,308,cs),
(531,488,o),
(433,616,o),
(294,616,cs),
(148,616,o),
(45,488,o),
(45,308,cs),
(45,118,o),
(148,-16,o),
(294,-16,cs)
);
},
{
closed = 1;
nodes = (
(169,18,o),
(81,138,o),
(81,308,cs),
(81,468,o),
(169,582,o),
(294,582,cs),
(417,582,o),
(504,468,o),
(504,308,cs),
(504,138,o),
(417,18,o),
(294,18,cs)
);
},
{
closed = 1;
nodes = (
(810,-16,o),
(887,6,o),
(930,38,c),
(930,75,l),
(888,40,o),
(811,16,o),
(744,16,cs),
(626,16,o),
(532,139,o),
(532,314,c),
(946,314,l),
(946,325,ls),
(946,495,o),
(858,616,o),
(734,616,cs),
(598,616,o),
(502,488,o),
(502,307,cs),
(502,118,o),
(602,-16,o),
(744,-16,cs)
);
},
{
closed = 1;
nodes = (
(534,351,l),
(545,486,o),
(628,582,o),
(734,582,cs),
(827,582,o),
(899,486,o),
(909,350,c)
);
}
);
width = 991;
}
);
metricRight = e;
unicode = 339;
},
{
glyphname = p;
lastChange = "2024-04-20 13:21:10 +0000";
layers = (
{
anchors = (
{
name = bottom;
pos = (320,0);
},
{
name = top;
pos = (320,600);
}
);
layerId = m01;
shapes = (
{
closed = 1;
nodes = (
(493,-16,o),
(599,118,o),
(599,307,cs),
(599,488,o),
(484,616,o),
(322,616,cs),
(242,616,o),
(144,547,o),
(86,450,c),
(126,420,l),
(176,485,o),
(257,531,o),
(322,531,cs),
(429,531,o),
(504,438,o),
(504,307,cs),
(504,177,o),
(437,79,o),
(342,69,cs),
(267,61,o),
(180,91,o),
(131,142,c),
(133,61,l),
(172,16,o),
(259,-16,o),
(342,-16,cs)
);
},
{
closed = 1;
nodes = (
(170,-200,l),
(170,600,l),
(80,600,l),
(80,-200,l)
);
}
);
width = 639;
},
{
anchors = (
{
name = bottom;
pos = (380,0);
},
{
name = top;
pos = (380,500);
}
);
layerId = "23BFF7D0-A449-46AC-916C-A2933124BFA1";
shapes = (
{
closed = 1;
nodes = (
(584,-16,o),
(734,110,o),
(734,287,cs),
(734,480,o),
(584,616,o),
(372,616,cs),
(292,616,o),
(194,547,o),
(136,450,c),
(176,345,l),
(226,410,o),
(307,456,o),
(372,456,cs),
(438,456,o),
(484,386,o),
(484,287,cs),
(484,210,o),
(438,151,o),
(372,144,cs),
(309,137,o),
(230,167,o),
(181,217,c),
(183,61,l),
(222,16,o),
(300,-16,o),
(372,-16,cs)
);
},
{
closed = 1;
nodes = (
(300,-200,l),
(300,600,l),
(50,600,l),
(50,-200,l)
);
}
);
width = 759;
},
{
anchors = (
{
name = bottom;
pos = (300,0);
},
{
name = top;
pos = (300,633);
}
);
layerId = "529A3C21-2EE4-4A9B-A6FF-34138032017A";
shapes = (
{
closed = 1;
nodes = (
(462,-16,o),
(554,121,o),
(554,314,cs),
(554,491,o),
(451,616,o),
(305,616,cs),
(235,616,o),
(150,556,o),
(99,470,c),
(109,428,l),
(134,478,o),
(215,582,o),
(305,582,cs),
(431,582,o),
(520,471,o),
(520,314,cs),
(520,152,o),
(442,30,o),
(332,18,cs),
(266,11,o),
(176,38,o),
(114,103,c),
(116,61,l),
(155,16,o),
(245,-16,o),
(332,-16,cs)
);
},
{
closed = 1;
nodes = (
(126,-200,l),
(126,600,l),
(90,600,l),
(90,-200,l)
);
}
);
width = 599;
}
);
metricLeft = n;
metricRight = o;
unicode = 112;
},
{
glyphname = thorn;
lastChange = "2024-04-20 13:21:10 +0000";
layers = (
{
layerId = m01;
shapes = (
{
closed = 1;
nodes = (
(493,-16,o),
(599,118,o),
(599,307,cs),
(599,488,o),
(484,616,o),
(322,616,cs),
(242,616,o),
(144,547,o),
(86,450,c),
(126,420,l),
(176,485,o),
(257,531,o),
(322,531,cs),
(429,531,o),
(504,438,o),
(504,307,cs),
(504,177,o),
(437,79,o),
(342,69,cs),
(267,61,o),
(180,91,o),
(131,142,c),
(133,61,l),
(172,16,o),
(259,-16,o),
(342,-16,cs)
);
},
{
closed = 1;
nodes = (
(170,-200,l),
(170,800,l),
(80,800,l),
(80,-200,l)
);
}
);
width = 639;
},
{
layerId = "23BFF7D0-A449-46AC-916C-A2933124BFA1";
shapes = (
{
closed = 1;
nodes = (
(584,-16,o),
(734,110,o),
(734,287,cs),
(734,480,o),
(584,616,o),
(372,616,cs),
(292,616,o),
(194,547,o),
(136,450,c),
(176,345,l),
(226,410,o),
(307,456,o),
(372,456,cs),
(438,456,o),
(484,386,o),
(484,287,cs),
(484,210,o),
(438,151,o),
(372,144,cs),
(309,137,o),
(230,167,o),
(181,217,c),
(183,61,l),
(222,16,o),
(300,-16,o),
(372,-16,cs)
);
},
{
closed = 1;
nodes = (
(300,-200,l),
(300,800,l),
(50,800,l),
(50,-200,l)
);
}
);
width = 759;
},
{
layerId = "529A3C21-2EE4-4A9B-A6FF-34138032017A";
shapes = (
{
closed = 1;
nodes = (
(462,-16,o),
(554,121,o),
(554,314,cs),
(554,491,o),
(451,616,o),
(305,616,cs),
(230,616,o),
(140,556,o),
(89,470,c),
(119,465,l),
(161,534,o),
(238,582,o),
(305,582,cs),
(430,582,o),
(518,471,o),
(518,314,cs),
(518,141,o),
(441,18,o),
(332,18,cs),
(249,18,o),
(159,51,o),
(114,98,c),
(116,61,l),
(155,16,o),
(245,-16,o),
(332,-16,cs)
);
},
{
closed = 1;
nodes = (
(126,-200,l),
(126,800,l),
(90,800,l),
(90,-200,l)
);
}
);
width = 599;
}
);
metricRight = o;
unicode = 254;
},
{
glyphname = q;
lastChange = "2024-04-20 13:21:10 +0000";
layers = (
{
anchors = (
{
name = bottom;
pos = (309,0);
},
{
name = top;
pos = (309,600);
}
);
layerId = m01;
shapes = (
{
closed = 1;
nodes = (
(357,-16,o),
(459,38,o),
(521,114,c),
(483,173,l),
(431,112,o),
(344,69,o),
(274,69,cs),
(193,69,o),
(135,161,o),
(135,291,cs),
(135,432,o),
(201,531,o),
(294,531,cs),
(361,531,o),
(441,509,o),
(487,477,c),
(537,549,l),
(479,588,o),
(378,616,o),
(294,616,cs),
(145,616,o),
(40,481,o),
(40,291,cs),
(40,111,o),
(137,-16,o),
(274,-16,cs)
);
},
{
closed = 1;
nodes = (
(537,-200,l),
(537,549,l),
(447,549,l),
(447,-200,l)
);
}
);
width = 617;
},
{
anchors = (
{
name = bottom;
pos = (366,0);
},
{
name = top;
pos = (366,500);
}
);
layerId = "23BFF7D0-A449-46AC-916C-A2933124BFA1";
shapes = (
{
closed = 1;
nodes = (
(482,-16,o),
(604,38,o),
(666,114,c),
(628,253,l),
(574,189,o),
(467,144,o),
(371,144,cs),
(315,144,o),
(275,197,o),
(275,271,cs),
(275,379,o),
(315,456,o),
(371,456,cs),
(475,456,o),
(583,432,o),
(632,397,c),
(682,549,l),
(624,588,o),
(495,616,o),
(371,616,cs),
(168,616,o),
(25,473,o),
(25,271,cs),
(25,103,o),
(168,-16,o),
(371,-16,cs)
);
},
{
closed = 1;
nodes = (
(682,-200,l),
(682,549,l),
(432,549,l),
(432,-200,l)
);
}
);
width = 732;
},
{
anchors = (
{
name = bottom;
pos = (290,0);
},
{
name = top;
pos = (290,633);
}
);
layerId = "529A3C21-2EE4-4A9B-A6FF-34138032017A";
shapes = (
{
closed = 1;
nodes = (
(327,-16,o),
(415,21,o),
(473,74,c),
(462,100,l),
(398,51,o),
(315,16,o),
(262,16,cs),
(155,16,o),
(79,133,o),
(79,298,cs),
(79,466,o),
(157,584,o),
(268,584,cs),
(334,584,o),
(414,561,o),
(462,528,c),
(489,549,l),
(431,588,o),
(339,616,o),
(268,616,cs),
(137,616,o),
(45,484,o),
(45,298,cs),
(45,114,o),
(135,-16,o),
(262,-16,cs)
);
},
{
closed = 1;
nodes = (
(489,-200,l),
(489,549,l),
(453,549,l),
(453,-200,l)
);
}
);
width = 579;
}
);
metricLeft = o;
metricRight = n;
unicode = 113;
},
{
glyphname = r;
lastChange = "2024-04-20 13:21:10 +0000";
layers = (
{
anchors = (
{
name = bottom;
pos = (201,0);
},
{
name = top;
pos = (201,600);
}
);
layerId = m01;
shapes = (
{
closed = 1;
nodes = (
(215,482,o),
(271,535,o),
(338,535,cs),
(342,535,o),
(368,531,o),
(381,526,c),
(381,619,l),
(372,623,o),
(346,626,o),
(338,626,cs),
(255,626,o),
(181,551,o),
(130,413,c),
(168,385,l)
);
},
{
closed = 1;
nodes = (
(170,0,l),
(170,600,l),
(80,600,l),
(80,0,l)
);
}
);
width = 401;
},
{
anchors = (
{
name = bottom;
pos = (236,0);
},
{
name = top;
pos = (236,500);
}
);
layerId = "23BFF7D0-A449-46AC-916C-A2933124BFA1";
shapes = (
{
closed = 1;
nodes = (
(338,357,o),
(400,375,o),
(448,375,cs),
(454,375,o),
(463,374,o),
(471,373,c),
(471,623,l),
(463,625,o),
(454,626,o),
(448,626,cs),
(382,626,o),
(248,457,o),
(204,338,c),
(298,275,l)
);
},
{
closed = 1;
nodes = (
(300,0,l),
(300,600,l),
(50,600,l),
(50,0,l)
);
}
);
width = 471;
},
{
anchors = (
{
name = bottom;
pos = (189,0);
},
{
name = top;
pos = (189,633);
}
);
layerId = "529A3C21-2EE4-4A9B-A6FF-34138032017A";
shapes = (
{
closed = 1;
nodes = (
(173,521,o),
(245,591,o),
(301,591,cs),
(321,591,o),
(342,589,o),
(351,585,c),
(351,618,l),
(344,621,o),
(324,623,o),
(301,623,cs),
(227,623,o),
(152,555,o),
(107,432,c),
(125,422,l)
);
},
{
closed = 1;
nodes = (
(126,0,l),
(126,600,l),
(90,600,l),
(90,0,l)
);
}
);
width = 378;
}
);
metricLeft = n;
unicode = 114;
},
{
glyphname = s;
lastChange = "2024-04-20 13:21:10 +0000";
layers = (
{
associatedMasterId = m01;
layerId = "31D2428C-BB68-4EF1-94AF-8FEE4778B624";
name = "13. Dez. 23, 20:50";
shapes = (
{
closed = 1;
nodes = (
(143,615,o),
(59,546,o),
(59,437,cs),
(59,247,o),
(408,285,o),
(408,175,cs),
(408,113,o),
(354,69,o),
(276,69,cs),
(192,69,o),
(134,113,o),
(134,175,c),
(50,175,l),
(50,58,o),
(137,-16,o),
(276,-16,cs),
(409,-16,o),
(493,58,o),
(493,175,cs),
(493,365,o),
(144,327,o),
(144,437,cs),
(144,491,o),
(198,530,o),
(276,530,cs),
(347,530,o),
(397,491,o),
(397,437,c),
(482,437,l),
(482,546,o),
(403,615,o),
(276,615,cs)
);
}
);
width = 543;
},
{
anchors = (
{
name = bottom;
pos = (242,0);
},
{
name = top;
pos = (242,600);
}
);
layerId = m01;
name = Regular;
shapes = (
{
closed = 1;
nodes = (
(358,-16,o),
(444,62,o),
(444,172,cs),
(444,365,o),
(135,324,o),
(135,434,cs),
(135,490,o),
(181,530,o),
(247,530,c),
(247,615,l),
(126,615,o),
(40,540,o),
(40,434,cs),
(40,242,o),
(349,282,o),
(349,172,cs),
(349,112,o),
(303,69,o),
(237,69,c),
(237,-16,l)
);
},
{
closed = 1;
nodes = (
(237,69,l),
(170,69,o),
(94,95,o),
(54,131,c),
(54,28,l),
(97,2,o),
(173,-16,o),
(237,-16,c)
);
},
{
closed = 1;
nodes = (
(410,571,l),
(367,597,o),
(300,615,o),
(247,615,c),
(247,530,l),
(302,530,o),
(370,504,o),
(410,468,c)
);
}
);
width = 484;
},
{
anchors = (
{
name = bottom;
pos = (265,0);
},
{
name = top;
pos = (265,500);
}
);
layerId = "23BFF7D0-A449-46AC-916C-A2933124BFA1";
shapes = (
{
closed = 1;
nodes = (
(403,-16,o),
(505,62,o),
(505,172,cs),
(505,440,o),
(225,342,o),
(225,432,cs),
(225,445,o),
(244,455,o),
(271,455,c),
(271,615,l),
(127,615,o),
(25,540,o),
(25,434,cs),
(25,162,o),
(305,240,o),
(305,171,cs),
(305,155,o),
(286,144,o),
(259,144,c),
(259,-16,l)
);
},
{
closed = 1;
nodes = (
(259,144,l),
(206,144,o),
(116,163,o),
(42,191,c),
(42,28,l),
(93,2,o),
(182,-16,o),
(259,-16,c)
);
},
{
closed = 1;
nodes = (
(465,571,l),
(414,597,o),
(334,615,o),
(271,615,c),
(271,455,l),
(309,455,o),
(390,436,o),
(465,408,c)
);
}
);
width = 530;
},
{
anchors = (
{
name = bottom;
pos = (234,0);
},
{
name = top;
pos = (234,633);
}
);
layerId = "529A3C21-2EE4-4A9B-A6FF-34138032017A";
shapes = (
{
closed = 1;
nodes = (
(344,-16,o),
(424,56,o),
(424,138,cs),
(424,299,o),
(81,338,o),
(81,469,cs),
(81,527,o),
(146,583,o),
(239,583,c),
(239,615,l),
(125,615,o),
(45,546,o),
(45,469,cs),
(45,311,o),
(388,276,o),
(388,138,cs),
(388,75,o),
(323,16,o),
(230,16,c),
(230,-16,l)
);
},
{
closed = 1;
nodes = (
(230,16,l),
(168,16,o),
(96,45,o),
(58,83,c),
(58,41,l),
(98,5,o),
(169,-16,o),
(230,-16,c)
);
},
{
closed = 1;
nodes = (
(392,560,l),
(351,596,o),
(288,615,o),
(239,615,c),
(239,583,l),
(290,583,o),
(354,554,o),
(392,516,c)
);
}
);
width = 469;
}
);
metricLeft = o;
metricRight = o;
unicode = 115;
},
{
glyphname = germandbls;
lastChange = "2024-04-20 13:21:10 +0000";
layers = (
{
anchors = (
{
name = bottom;
pos = (305,0);
},
{
name = top;
pos = (305,800);
}
);
layerId = m01;
shapes = (
{
closed = 1;
nodes = (
(482,-16,o),
(570,54,o),
(570,152,cs),
(570,342,o),
(381,284,o),
(381,394,cs),
(381,456,o),
(517,498,o),
(517,615,cs),
(517,733,o),
(421,817,o),
(300,817,cs),
(189,817,o),
(80,734,o),
(80,616,cs),
(80,0,l),
(165,0,l),
(169,175,o),
(171,430,o),
(171,616,cs),
(171,684,o),
(244,732,o),
(300,732,cs),
(374,732,o),
(428,684,o),
(428,615,cs),
(428,547,o),
(291,492,o),
(291,394,cs),
(291,204,o),
(480,262,o),
(480,152,cs),
(480,103,o),
(436,69,o),
(387,69,cs),
(341,69,o),
(289,95,o),
(261,131,c),
(261,28,l),
(291,2,o),
(343,-16,o),
(387,-16,cs)
);
}
);
width = 610;
},
{
anchors = (
{
name = bottom;
pos = (376,0);
},
{
name = top;
pos = (376,800);
}
);
layerId = "23BFF7D0-A449-46AC-916C-A2933124BFA1";
shapes = (
{
closed = 1;
nodes = (
(635,-16,o),
(727,54,o),
(727,152,cs),
(727,342,o),
(568,284,o),
(568,394,cs),
(568,456,o),
(674,498,o),
(674,615,cs),
(674,733,o),
(555,817,o),
(367,817,cs),
(182,817,o),
(50,734,o),
(50,616,cs),
(50,0,l),
(286,0,l),
(290,154,o),
(292,374,o),
(292,581,cs),
(292,626,o),
(331,657,o),
(367,657,cs),
(415,657,o),
(434,625,o),
(434,580,cs),
(434,512,o),
(328,492,o),
(328,394,cs),
(328,244,o),
(487,289,o),
(487,189,cs),
(487,164,o),
(461,146,o),
(424,146,cs),
(402,146,o),
(366,172,o),
(338,208,c),
(338,28,l),
(368,2,o),
(437,-16,o),
(504,-16,cs)
);
}
);
width = 752;
},
{
anchors = (
{
name = bottom;
pos = (282,0);
},
{
name = top;
pos = (282,800);
}
);
layerId = "529A3C21-2EE4-4A9B-A6FF-34138032017A";
shapes = (
{
closed = 1;
nodes = (
(453,-16,o),
(518,51,o),
(518,146,cs),
(518,276,o),
(319,284,o),
(319,394,cs),
(319,456,o),
(455,524,o),
(455,621,cs),
(455,736,o),
(388,817,o),
(278,817,cs),
(168,817,o),
(90,736,o),
(90,622,cs),
(90,0,l),
(120,0,l),
(124,160,o),
(126,418,o),
(126,622,cs),
(126,716,o),
(189,783,o),
(278,783,cs),
(366,783,o),
(419,716,o),
(419,621,cs),
(419,553,o),
(283,462,o),
(283,394,cs),
(283,251,o),
(482,259,o),
(482,146,cs),
(482,71,o),
(432,18,o),
(362,18,cs),
(333,18,o),
(280,36,o),
(235,62,c),
(235,28,l),
(265,2,o),
(317,-16,o),
(362,-16,cs)
);
}
);
width = 563;
}
);
metricLeft = n;
metricRight = o;
unicode = 223;
},
{
glyphname = t;
lastChange = "2024-04-20 13:21:10 +0000";
layers = (
{
anchors = (
{
name = bottom;
pos = (191,0);
},
{
name = center;
pos = (191,300);
},
{
name = top;
pos = (191,750);
},
{
name = topright;
pos = (361,800);
}
);
layerId = m01;
shapes = (
{
closed = 1;
nodes = (
(258,-12,o),
(292,-6,o),
(321,2,c),
(321,73,l),
(248,73,ls),
(212,73,o),
(202,112,o),
(202,168,cs),
(202,750,l),
(112,750,l),
(112,168,ls),
(112,63,o),
(151,-12,o),
(238,-12,cs)
);
},
{
closed = 1;
nodes = (
(341,525,l),
(341,600,l),
(12,600,l),
(12,525,l)
);
}
);
width = 381;
},
{
anchors = (
{
name = bottom;
pos = (217,0);
},
{
name = center;
pos = (217,250);
},
{
name = top;
pos = (217,715);
},
{
name = topright;
pos = (414,800);
}
);
layerId = "23BFF7D0-A449-46AC-916C-A2933124BFA1";
shapes = (
{
closed = 1;
nodes = (
(315,-14,o),
(366,-8,o),
(409,0,c),
(409,151,l),
(356,151,ls),
(328,151,o),
(309,178,o),
(309,216,cs),
(309,715,l),
(59,715,l),
(59,136,ls),
(59,48,o),
(153,-14,o),
(286,-14,cs)
);
},
{
closed = 1;
nodes = (
(409,440,l),
(409,600,l),
(0,600,l),
(0,440,l)
);
}
);
width = 434;
},
{
anchors = (
{
name = bottom;
pos = (182,0);
},
{
name = center;
pos = (182,317);
},
{
name = top;
pos = (182,762);
},
{
name = topright;
pos = (343,800);
}
);
layerId = "529A3C21-2EE4-4A9B-A6FF-34138032017A";
shapes = (
{
closed = 1;
nodes = (
(262,0,o),
(277,0,o),
(292,0,c),
(292,32,l),
(247,32,ls),
(200,32,o),
(166,67,o),
(166,116,cs),
(166,762,l),
(130,762,l),
(130,116,ls),
(130,48,o),
(178,0,o),
(247,0,cs)
);
},
{
closed = 1;
nodes = (
(318,572,l),
(318,600,l),
(16,600,l),
(16,572,l)
);
}
);
width = 363;
}
);
metricRight = o;
unicode = 116;
},
{
glyphname = u;
lastChange = "2024-04-20 13:21:10 +0000";
layers = (
{
anchors = (
{
name = bottom;
pos = (324,0);
},
{
name = ogonek;
pos = (583,10);
},
{
name = top;
pos = (324,600);
},
{
name = topright;
pos = (628,600);
}
);
layerId = m01;
shapes = (
{
closed = 1;
nodes = (
(402,-16,o),
(503,52,o),
(553,147,c),
(505,185,l),
(474,117,o),
(393,69,o),
(310,69,cs),
(228,69,o),
(170,122,o),
(170,198,cs),
(170,600,l),
(80,600,l),
(80,169,ls),
(80,61,o),
(175,-16,o),
(310,-16,cs)
);
},
{
closed = 1;
nodes = (
(568,0,l),
(568,600,l),
(478,600,l),
(478,0,l)
);
}
);
width = 648;
},
{
anchors = (
{
name = bottom;
pos = (374,0);
},
{
name = ogonek;
pos = (673,10);
},
{
name = top;
pos = (374,500);
},
{
name = topright;
pos = (728,500);
}
);
layerId = "23BFF7D0-A449-46AC-916C-A2933124BFA1";
shapes = (
{
closed = 1;
nodes = (
(407,-16,o),
(525,82,o),
(583,177,c),
(545,297,l),
(504,226,o),
(436,146,o),
(380,146,cs),
(333,146,o),
(300,199,o),
(300,275,cs),
(300,600,l),
(50,600,l),
(50,169,ls),
(50,61,o),
(154,-16,o),
(300,-16,cs)
);
},
{
closed = 1;
nodes = (
(698,0,l),
(698,600,l),
(448,600,l),
(448,0,l)
);
}
);
width = 748;
},
{
anchors = (
{
name = bottom;
pos = (307,0);
},
{
name = ogonek;
pos = (554,10);
},
{
name = top;
pos = (307,633);
},
{
name = topright;
pos = (595,633);
}
);
layerId = "529A3C21-2EE4-4A9B-A6FF-34138032017A";
shapes = (
{
closed = 1;
nodes = (
(397,-16,o),
(489,47,o),
(523,137,c),
(492,148,l),
(460,71,o),
(380,16,o),
(300,16,cs),
(198,16,o),
(126,80,o),
(126,171,cs),
(126,600,l),
(90,600,l),
(90,171,ls),
(90,61,o),
(177,-16,o),
(300,-16,cs)
);
},
{
closed = 1;
nodes = (
(525,0,l),
(525,600,l),
(488,600,l),
(488,0,l)
);
}
);
width = 615;
}
);
metricLeft = n;
metricRight = n;
unicode = 117;
},
{
glyphname = v;
lastChange = "2024-04-20 13:21:10 +0000";
layers = (
{
anchors = (
{
name = bottom;
pos = (291,0);
},
{
name = top;
pos = (291,600);
}
);
layerId = m01;
shapes = (
{
closed = 1;
nodes = (
(335,0,l),
(111,600,l),
(20,600,l),
(244,0,l)
);
},
{
closed = 1;
nodes = (
(346,0,l),
(562,600,l),
(470,600,l),
(259,0,l)
);
}
);
width = 582;
},
{
anchors = (
{
name = bottom;
pos = (324,0);
},
{
name = top;
pos = (324,500);
}
);
layerId = "23BFF7D0-A449-46AC-916C-A2933124BFA1";
shapes = (
{
closed = 1;
nodes = (
(451,0,l),
(227,600,l),
(-20,600,l),
(204,0,l)
);
},
{
closed = 1;
nodes = (
(451,0,l),
(667,600,l),
(429,600,l),
(218,0,l)
);
}
);
width = 647;
},
{
anchors = (
{
name = bottom;
pos = (280,0);
},
{
name = top;
pos = (280,633);
}
);
layerId = "529A3C21-2EE4-4A9B-A6FF-34138032017A";
shapes = (
{
closed = 1;
nodes = (
(295,0,l),
(71,600,l),
(33,600,l),
(257,0,l)
);
},
{
closed = 1;
nodes = (
(307,0,l),
(523,600,l),
(484,600,l),
(273,0,l)
);
}
);
width = 560;
}
);
unicode = 118;
},
{
glyphname = w;
lastChange = "2024-04-20 13:21:10 +0000";
layers = (
{
anchors = (
{
name = bottom;
pos = (446,0);
},
{
name = top;
pos = (446,600);
}
);
layerId = m01;
shapes = (
{
closed = 1;
nodes = (
(314,0,l),
(110,600,l),
(20,600,l),
(224,0,l)
);
},
{
closed = 1;
nodes = (
(312,0,l),
(488,600,l),
(408,600,l),
(237,0,l)
);
},
{
closed = 1;
nodes = (
(675,0,l),
(491,600,l),
(413,600,l),
(597,0,l)
);
},
{
closed = 1;
nodes = (
(685,0,l),
(871,600,l),
(785,600,l),
(604,0,l)
);
}
);
width = 891;
},
{
anchors = (
{
name = bottom;
pos = (468,0);
},
{
name = top;
pos = (468,500);
}
);
layerId = "23BFF7D0-A449-46AC-916C-A2933124BFA1";
shapes = (
{
closed = 1;
nodes = (
(398,0,l),
(194,600,l),
(-20,600,l),
(184,0,l)
);
},
{
closed = 1;
nodes = (
(397,0,l),
(573,600,l),
(374,600,l),
(203,0,l)
);
},
{
closed = 1;
nodes = (
(760,0,l),
(576,600,l),
(379,600,l),
(563,0,l)
);
},
{
closed = 1;
nodes = (
(770,0,l),
(956,600,l),
(746,600,l),
(565,0,l)
);
}
);
width = 936;
},
{
anchors = (
{
name = bottom;
pos = (439,0);
},
{
name = top;
pos = (439,633);
}
);
layerId = "529A3C21-2EE4-4A9B-A6FF-34138032017A";
shapes = (
{
closed = 1;
nodes = (
(275,0,l),
(71,600,l),
(33,600,l),
(237,0,l)
);
},
{
closed = 1;
nodes = (
(283,0,l),
(459,600,l),
(419,600,l),
(248,0,l)
);
},
{
closed = 1;
nodes = (
(646,0,l),
(462,600,l),
(424,600,l),
(608,0,l)
);
},
{
closed = 1;
nodes = (
(653,0,l),
(839,600,l),
(798,600,l),
(617,0,l)
);
}
);
width = 876;
}
);
metricLeft = v;
metricRight = v;
unicode = 119;
},
{
glyphname = x;
lastChange = "2024-04-20 13:21:10 +0000";
layers = (
{
anchors = (
{
name = bottom;
pos = (280,0);
},
{
name = top;
pos = (280,600);
}
);
layerId = m01;
shapes = (
{
closed = 1;
nodes = (
(539,0,l),
(125,600,l),
(28,600,l),
(442,0,l)
);
},
{
closed = 1;
nodes = (
(119,0,l),
(528,600,l),
(424,600,l),
(20,0,l)
);
}
);
width = 559;
},
{
anchors = (
{
name = bottom;
pos = (320,0);
},
{
name = top;
pos = (320,500);
}
);
layerId = "23BFF7D0-A449-46AC-916C-A2933124BFA1";
shapes = (
{
closed = 1;
nodes = (
(660,0,l),
(246,600,l),
(-7,600,l),
(407,0,l)
);
},
{
closed = 1;
nodes = (
(237,0,l),
(646,600,l),
(384,600,l),
(-20,0,l)
);
}
);
width = 640;
},
{
anchors = (
{
name = bottom;
pos = (267,0);
},
{
name = top;
pos = (267,633);
}
);
layerId = "529A3C21-2EE4-4A9B-A6FF-34138032017A";
shapes = (
{
closed = 1;
nodes = (
(498,0,l),
(84,600,l),
(40,600,l),
(454,0,l)
);
},
{
closed = 1;
nodes = (
(75,0,l),
(481,600,l),
(437,600,l),
(33,0,l)
);
}
);
width = 535;
}
);
metricLeft = v;
metricRight = v;
unicode = 120;
},
{
glyphname = y;
lastChange = "2024-04-20 13:21:10 +0000";
layers = (
{
anchors = (
{
name = bottom;
pos = (295,0);
},
{
name = top;
pos = (295,600);
}
);
layerId = m01;
shapes = (
{
closed = 1;
nodes = (
(229,-200,l),
(569,600,l),
(480,600,l),
(140,-200,l)
);
},
{
closed = 1;
nodes = (
(327,143,l),
(119,600,l),
(20,600,l),
(294,0,l)
);
}
);
width = 589;
},
{
anchors = (
{
name = bottom;
pos = (327,0);
},
{
name = top;
pos = (327,500);
}
);
layerId = "23BFF7D0-A449-46AC-916C-A2933124BFA1";
shapes = (
{
closed = 1;
nodes = (
(329,-200,l),
(674,600,l),
(440,600,l),
(100,-200,l)
);
},
{
closed = 1;
nodes = (
(431,163,l),
(223,600,l),
(-20,600,l),
(254,0,l)
);
}
);
width = 654;
},
{
anchors = (
{
name = bottom;
pos = (284,0);
},
{
name = top;
pos = (284,633);
}
);
layerId = "529A3C21-2EE4-4A9B-A6FF-34138032017A";
shapes = (
{
closed = 1;
nodes = (
(196,-200,l),
(534,600,l),
(496,600,l),
(156,-200,l)
);
},
{
closed = 1;
nodes = (
(296,108,l),
(75,600,l),
(33,600,l),
(283,51,l)
);
}
);
width = 571;
}
);
metricLeft = v;
metricRight = v;
unicode = 121;
},
{
glyphname = z;
lastChange = "2024-04-20 13:21:10 +0000";
layers = (
{
anchors = (
{
name = bottom;
pos = (295,0);
},
{
name = center;
pos = (295,300);
},
{
name = top;
pos = (295,600);
}
);
layerId = m01;
shapes = (
{
closed = 1;
nodes = (
(141,0,l),
(550,600,l),
(444,600,l),
(40,0,l)
);
},
{
closed = 1;
nodes = (
(539,-1,l),
(539,79,l),
(105,79,l),
(105,-1,l)
);
},
{
closed = 1;
nodes = (
(479,520,l),
(479,600,l),
(65,600,l),
(65,520,l)
);
}
);
width = 590;
},
{
anchors = (
{
name = bottom;
pos = (291,0);
},
{
name = center;
pos = (291,250);
},
{
name = top;
pos = (291,500);
}
);
layerId = "23BFF7D0-A449-46AC-916C-A2933124BFA1";
shapes = (
{
closed = 1;
nodes = (
(226,0,l),
(581,600,l),
(350,600,l),
(0,0,l)
);
},
{
closed = 1;
nodes = (
(563,-1,l),
(563,159,l),
(126,159,l),
(126,-1,l)
);
},
{
closed = 1;
nodes = (
(450,440,l),
(450,600,l),
(13,600,l),
(13,440,l)
);
}
);
width = 581;
},
{
anchors = (
{
name = bottom;
pos = (296,0);
},
{
name = center;
pos = (297,317);
},
{
name = top;
pos = (296,633);
}
);
layerId = "529A3C21-2EE4-4A9B-A6FF-34138032017A";
shapes = (
{
closed = 1;
nodes = (
(103,0,l),
(530,600,l),
(475,600,l),
(53,0,l)
);
},
{
closed = 1;
nodes = (
(531,-1,l),
(531,35,l),
(98,35,l),
(98,-1,l)
);
},
{
closed = 1;
nodes = (
(489,564,l),
(489,600,l),
(82,600,l),
(82,564,l)
);
}
);
width = 593;
}
);
unicode = 122;
},
{
glyphname = zero;
lastChange = "2024-04-20 13:21:10 +0000";
layers = (
{
layerId = m01;
shapes = (
{
closed = 1;
nodes = (
(469,-16,o),
(563,134,o),
(563,405,cs),
(563,669,o),
(469,815,o),
(300,815,cs),
(131,815,o),
(37,669,o),
(37,405,cs),
(37,134,o),
(131,-16,o),
(300,-16,cs)
);
},
{
closed = 1;
nodes = (
(182,69,o),
(132,170,o),
(132,405,cs),
(132,632,o),
(182,730,o),
(300,730,cs),
(418,730,o),
(468,632,o),
(468,405,cs),
(468,170,o),
(418,69,o),
(300,69,cs)
);
}
);
width = 600;
},
{
layerId = "23BFF7D0-A449-46AC-916C-A2933124BFA1";
shapes = (
{
closed = 1;
nodes = (
(477,-16,o),
(603,158,o),
(603,405,cs),
(603,645,o),
(477,815,o),
(300,815,cs),
(123,815,o),
(-3,645,o),
(-3,405,cs),
(-3,158,o),
(123,-16,o),
(300,-16,cs)
);
},
{
closed = 1;
nodes = (
(253,174,o),
(233,243,o),
(233,405,cs),
(233,559,o),
(253,625,o),
(300,625,cs),
(347,625,o),
(367,559,o),
(367,405,cs),
(367,243,o),
(347,174,o),
(300,174,cs)
);
}
);
width = 600;
},
{
layerId = "529A3C21-2EE4-4A9B-A6FF-34138032017A";
shapes = (
{
closed = 1;
nodes = (
(468,-16,o),
(550,122,o),
(550,405,cs),
(550,680,o),
(468,815,o),
(300,815,cs),
(132,815,o),
(50,680,o),
(50,405,cs),
(50,122,o),
(132,-16,o),
(300,-16,cs)
);
},
{
closed = 1;
nodes = (
(156,18,o),
(86,145,o),
(86,405,cs),
(86,657,o),
(156,781,o),
(300,781,cs),
(444,781,o),
(514,657,o),
(514,405,cs),
(514,145,o),
(444,18,o),
(300,18,cs)
);
}
);
width = 600;
}
);
unicode = 48;
},
{
glyphname = one;
lastChange = "2024-04-20 13:21:10 +0000";
layers = (
{
layerId = m01;
shapes = (
{
closed = 1;
nodes = (
(200,580,l),
(410,800,l),
(293,800,l),
(81,580,l)
);
},
{
closed = 1;
nodes = (
(409,0,l),
(409,800,l),
(319,800,l),
(319,0,l)
);
}
);
width = 600;
},
{
layerId = "23BFF7D0-A449-46AC-916C-A2933124BFA1";
shapes = (
{
closed = 1;
nodes = (
(222,500,l),
(412,800,l),
(202,800,l),
(2,500,l)
);
},
{
closed = 1;
nodes = (
(492,0,l),
(492,800,l),
(242,800,l),
(242,0,l)
);
}
);
width = 600;
},
{
layerId = "529A3C21-2EE4-4A9B-A6FF-34138032017A";
shapes = (
{
closed = 1;
nodes = (
(184,633,l),
(382,800,l),
(328,800,l),
(130,633,l)
);
},
{
closed = 1;
nodes = (
(381,0,l),
(381,800,l),
(345,800,l),
(345,0,l)
);
}
);
width = 600;
}
);
unicode = 49;
},
{
glyphname = two;
lastChange = "2024-04-20 13:21:10 +0000";
layers = (
{
layerId = m01;
shapes = (
{
closed = 1;
nodes = (
(526,3,l),
(526,103,l),
(164,103,l),
(164,132,ls),
(164,278,o),
(530,388,o),
(530,618,cs),
(530,746,o),
(424,816,o),
(274,816,cs),
(197,816,o),
(112,768,o),
(69,701,c),
(70,596,l),
(121,675,o),
(205,731,o),
(274,731,cs),
(374,731,o),
(435,696,o),
(435,618,cs),
(435,428,o),
(69,334,o),
(69,112,cs),
(69,3,l)
);
}
);
width = 600;
},
{
layerId = "23BFF7D0-A449-46AC-916C-A2933124BFA1";
shapes = (
{
closed = 1;
nodes = (
(578,3,l),
(578,203,l),
(243,203,l),
(243,212,ls),
(243,322,o),
(582,285,o),
(582,558,cs),
(582,726,o),
(473,816,o),
(320,816,cs),
(188,816,o),
(73,776,o),
(27,739,c),
(28,526,l),
(80,570,o),
(135,626,o),
(230,626,cs),
(280,626,o),
(306,592,o),
(306,558,cs),
(306,467,o),
(17,446,o),
(17,212,cs),
(17,3,l)
);
}
);
width = 600;
},
{
layerId = "529A3C21-2EE4-4A9B-A6FF-34138032017A";
shapes = (
{
closed = 1;
nodes = (
(509,3,l),
(509,39,l),
(122,39,l),
(122,92,ls),
(122,278,o),
(513,395,o),
(513,598,cs),
(513,726,o),
(422,816,o),
(294,816,cs),
(211,816,o),
(124,763,o),
(83,688,c),
(84,629,l),
(126,719,o),
(213,782,o),
(294,782,cs),
(401,782,o),
(477,706,o),
(477,598,cs),
(477,415,o),
(86,298,o),
(86,92,cs),
(86,3,l)
);
}
);
width = 600;
}
);
unicode = 50;
},
{
glyphname = three;
lastChange = "2024-04-20 13:21:10 +0000";
layers = (
{
background = {
shapes = (
{
closed = 0;
nodes = (
(292,816,ls),
(237,816,o),
(152,792,o),
(87,719,c),
(88,626,l),
(158,704,o),
(243,736,o),
(292,736,cs)
);
},
{
closed = 0;
nodes = (
(292,68,ls),
(243,68,o),
(158,100,o),
(88,178,c),
(87,85,l),
(152,12,o),
(237,-12,o),
(292,-12,cs)
);
}
);
};
layerId = m01;
shapes = (
{
closed = 1;
nodes = (
(433,-12,o),
(533,91,o),
(533,236,cs),
(533,309,o),
(494,387,o),
(438,424,c),
(488,455,o),
(523,529,o),
(523,603,cs),
(523,728,o),
(427,816,o),
(292,816,cs),
(215,816,o),
(130,792,o),
(87,759,c),
(88,662,l),
(130,702,o),
(215,731,o),
(292,731,cs),
(372,731,o),
(428,677,o),
(428,601,cs),
(428,521,o),
(372,464,o),
(292,464,cs),
(217,464,l),
(217,384,l),
(292,384,ls),
(378,384,o),
(438,324,o),
(438,238,cs),
(438,141,o),
(378,73,o),
(292,73,cs),
(204,73,o),
(120,97,o),
(88,132,c),
(87,39,l),
(119,9,o),
(204,-12,o),
(292,-12,cs)
);
}
);
width = 600;
},
{
layerId = "23BFF7D0-A449-46AC-916C-A2933124BFA1";
shapes = (
{
closed = 1;
nodes = (
(460,-12,o),
(574,84,o),
(574,236,cs),
(574,303,o),
(529,376,o),
(458,414,c),
(521,446,o),
(562,515,o),
(562,603,cs),
(562,734,o),
(453,816,o),
(279,816,cs),
(182,816,o),
(86,794,o),
(28,759,c),
(29,562,l),
(84,604,o),
(143,631,o),
(181,631,cs),
(238,631,o),
(274,612,o),
(274,581,cs),
(274,536,o),
(238,514,o),
(181,514,cs),
(114,514,l),
(114,314,l),
(181,314,ls),
(238,314,o),
(274,289,o),
(274,258,cs),
(274,218,o),
(238,193,o),
(181,193,cs),
(128,193,o),
(70,216,o),
(29,252,c),
(28,39,l),
(68,8,o),
(165,-12,o),
(279,-12,cs)
);
}
);
width = 600;
},
{
layerId = "529A3C21-2EE4-4A9B-A6FF-34138032017A";
shapes = (
{
closed = 1;
nodes = (
(417,-12,o),
(519,90,o),
(519,234,cs),
(519,332,o),
(462,412,o),
(381,427,c),
(457,441,o),
(510,515,o),
(510,606,cs),
(510,729,o),
(412,816,o),
(273,816,cs),
(215,816,o),
(147,792,o),
(107,759,c),
(108,713,l),
(145,753,o),
(214,782,o),
(273,782,cs),
(391,782,o),
(474,709,o),
(474,606,cs),
(474,511,o),
(414,444,o),
(329,444,cs),
(251,444,l),
(251,410,l),
(329,410,ls),
(419,410,o),
(483,337,o),
(483,234,cs),
(483,110,o),
(396,22,o),
(273,22,cs),
(205,22,o),
(137,46,o),
(108,81,c),
(107,39,l),
(136,9,o),
(205,-12,o),
(273,-12,cs)
);
}
);
width = 600;
}
);
unicode = 51;
},
{
glyphname = four;
lastChange = "2024-04-20 13:21:10 +0000";
layers = (
{
layerId = m01;
shapes = (
{
closed = 1;
nodes = (
(149,275,l),
(469,800,l),
(370,800,l),
(50,275,l)
);
},
{
closed = 1;
nodes = (
(553,195,l),
(553,275,l),
(50,275,l),
(50,195,l)
);
},
{
closed = 1;
nodes = (
(484,0,l),
(484,800,l),
(394,800,l),
(394,0,l)
);
}
);
width = 600;
},
{
layerId = "23BFF7D0-A449-46AC-916C-A2933124BFA1";
shapes = (
{
closed = 1;
nodes = (
(188,275,l),
(478,800,l),
(298,800,l),
(8,275,l)
);
},
{
closed = 1;
nodes = (
(592,120,l),
(592,275,l),
(8,275,l),
(8,120,l)
);
},
{
closed = 1;
nodes = (
(527,0,l),
(527,800,l),
(311,800,l),
(311,0,l)
);
}
);
width = 600;
},
{
layerId = "529A3C21-2EE4-4A9B-A6FF-34138032017A";
shapes = (
{
closed = 1;
nodes = (
(106,275,l),
(436,800,l),
(394,800,l),
(64,275,l)
);
},
{
closed = 1;
nodes = (
(540,239,l),
(540,275,l),
(64,275,l),
(64,239,l)
);
},
{
closed = 1;
nodes = (
(458,0,l),
(458,800,l),
(422,800,l),
(422,0,l)
);
}
);
width = 600;
}
);
unicode = 52;
},
{
glyphname = five;
lastChange = "2024-04-20 13:21:10 +0000";
layers = (
{
background = {
shapes = (
{
closed = 0;
nodes = (
(287,68,ls),
(238,68,o),
(153,100,o),
(83,178,c),
(82,85,l),
(147,12,o),
(232,-12,o),
(287,-12,cs)
);
}
);
};
layerId = m01;
shapes = (
{
closed = 1;
nodes = (
(431,-12,o),
(543,95,o),
(543,246,cs),
(543,392,o),
(443,496,o),
(302,496,cs),
(249,496,o),
(194,479,o),
(169,455,c),
(185,720,l),
(504,720,l),
(504,800,l),
(107,800,l),
(80,407,l),
(140,350,l),
(189,386,o),
(256,411,o),
(302,411,cs),
(388,411,o),
(448,343,o),
(448,248,cs),
(448,146,o),
(375,73,o),
(272,73,cs),
(214,73,o),
(136,101,o),
(83,140,c),
(82,44,l),
(130,11,o),
(209,-12,o),
(272,-12,cs)
);
}
);
width = 600;
},
{
layerId = "23BFF7D0-A449-46AC-916C-A2933124BFA1";
shapes = (
{
closed = 1;
nodes = (
(462,-12,o),
(593,103,o),
(593,266,cs),
(593,401,o),
(520,496,o),
(417,496,cs),
(344,496,o),
(278,487,o),
(258,475,c),
(258,620,l),
(558,620,l),
(558,800,l),
(58,800,l),
(34,367,l),
(88,250,l),
(117,274,o),
(186,291,o),
(255,291,cs),
(319,291,o),
(364,273,o),
(364,248,cs),
(364,192,o),
(312,153,o),
(238,153,cs),
(168,153,o),
(84,181,o),
(37,220,c),
(36,44,l),
(79,11,o),
(179,-12,o),
(278,-12,cs)
);
}
);
width = 600;
},
{
layerId = "529A3C21-2EE4-4A9B-A6FF-34138032017A";
shapes = (
{
closed = 1;
nodes = (
(423,-12,o),
(526,94,o),
(526,244,cs),
(526,392,o),
(429,496,o),
(291,496,cs),
(226,496,o),
(161,476,o),
(134,448,c),
(156,764,l),
(486,764,l),
(486,800,l),
(123,800,l),
(95,420,l),
(117,401,l),
(167,437,o),
(239,462,o),
(291,462,cs),
(408,462,o),
(490,372,o),
(490,244,cs),
(490,114,o),
(402,22,o),
(277,22,cs),
(227,22,o),
(153,50,o),
(98,89,c),
(97,44,l),
(147,11,o),
(221,-12,o),
(277,-12,cs)
);
}
);
width = 600;
}
);
unicode = 53;
},
{
glyphname = six;
lastChange = "2024-04-20 13:21:10 +0000";
layers = (
{
background = {
shapes = (
{
closed = 0;
nodes = (
(355,817,ls),
(410,817,o),
(495,793,o),
(560,720,c),
(559,627,l),
(489,705,o),
(404,737,o),
(355,737,cs)
);
}
);
};
layerId = m01;
shapes = (
{
closed = 1;
nodes = (
(473,-14,o),
(552,95,o),
(552,250,cs),
(552,388,o),
(453,486,o),
(332,486,cs),
(232,486,o),
(148,421,o),
(108,330,c),
(130,261,l),
(163,346,o),
(238,406,o),
(332,406,cs),
(394,406,o),
(452,341,o),
(452,250,cs),
(452,145,o),
(414,71,o),
(312,71,cs),
(201,71,o),
(157,199,o),
(157,381,cs),
(157,587,o),
(238,732,o),
(372,732,cs),
(410,732,o),
(475,720,o),
(508,702,c),
(508,792,l),
(480,807,o),
(415,817,o),
(372,817,cs),
(179,817,o),
(57,636,o),
(57,381,cs),
(57,150,o),
(143,-14,o),
(312,-14,cs)
);
}
);
width = 600;
},
{
layerId = "23BFF7D0-A449-46AC-916C-A2933124BFA1";
shapes = (
{
closed = 1;
nodes = (
(485,-14,o),
(606,95,o),
(606,250,cs),
(606,412,o),
(509,526,o),
(371,526,cs),
(230,526,o),
(99,445,o),
(54,330,c),
(74,261,l),
(96,322,o),
(194,366,o),
(311,366,cs),
(344,366,o),
(368,318,o),
(368,250,cs),
(368,192,o),
(345,151,o),
(313,151,cs),
(273,151,o),
(245,246,o),
(245,381,cs),
(245,540,o),
(313,652,o),
(408,652,cs),
(468,652,o),
(529,640,o),
(555,622,c),
(555,792,l),
(534,807,o),
(456,817,o),
(368,817,cs),
(157,817,o),
(7,636,o),
(7,381,cs),
(7,150,o),
(134,-14,o),
(313,-14,cs)
);
}
);
width = 600;
},
{
layerId = "529A3C21-2EE4-4A9B-A6FF-34138032017A";
shapes = (
{
closed = 1;
nodes = (
(450,-14,o),
(534,88,o),
(534,250,cs),
(534,387,o),
(450,473,o),
(316,473,cs),
(221,473,o),
(134,413,o),
(90,318,c),
(99,274,l),
(139,375,o),
(222,439,o),
(316,439,cs),
(428,439,o),
(498,366,o),
(498,250,cs),
(498,109,o),
(428,20,o),
(316,20,cs),
(189,20,o),
(110,159,o),
(110,381,cs),
(110,628,o),
(189,783,o),
(316,783,cs),
(378,783,o),
(434,768,o),
(462,743,c),
(462,782,l),
(438,803,o),
(382,817,o),
(316,817,cs),
(167,817,o),
(74,649,o),
(74,381,cs),
(74,138,o),
(167,-14,o),
(316,-14,cs)
);
}
);
width = 600;
}
);
unicode = 54;
},
{
glyphname = seven;
lastChange = "2024-04-20 13:21:10 +0000";
layers = (
{
layerId = m01;
shapes = (
{
closed = 1;
nodes = (
(216,3,l),
(563,800,l),
(64,800,l),
(64,697,l),
(481,703,l),
(454,761,l),
(123,3,l)
);
}
);
width = 593;
},
{
layerId = "23BFF7D0-A449-46AC-916C-A2933124BFA1";
shapes = (
{
closed = 1;
nodes = (
(291,3,l),
(598,800,l),
(35,800,l),
(35,637,l),
(452,643,l),
(346,761,l),
(54,3,l)
);
}
);
width = 600;
},
{
layerId = "529A3C21-2EE4-4A9B-A6FF-34138032017A";
shapes = (
{
closed = 1;
nodes = (
(191,3,l),
(551,800,l),
(74,800,l),
(74,764,l),
(499,764,l),
(496,766,l),
(150,3,l)
);
}
);
width = 591;
}
);
unicode = 55;
},
{
glyphname = eight;
lastChange = "2024-04-20 13:21:10 +0000";
layers = (
{
layerId = m01;
shapes = (
{
closed = 1;
nodes = (
(450,-16,o),
(556,87,o),
(556,233,cs),
(556,360,o),
(452,446,o),
(304,446,cs),
(214,446,o),
(160,510,o),
(160,594,cs),
(160,670,o),
(215,724,o),
(308,724,cs),
(391,724,o),
(440,670,o),
(440,594,cs),
(440,509,o),
(390,445,o),
(304,445,c),
(304,391,l),
(438,391,o),
(533,473,o),
(533,594,cs),
(533,720,o),
(440,809,o),
(308,809,cs),
(166,809,o),
(65,720,o),
(65,594,cs),
(65,467,o),
(164,381,o),
(304,381,cs),
(402,381,o),
(461,317,o),
(461,233,cs),
(461,137,o),
(401,69,o),
(301,69,cs),
(201,69,o),
(140,137,o),
(140,233,cs),
(140,317,o),
(202,381,o),
(304,381,c),
(304,436,l),
(152,436,o),
(45,354,o),
(45,233,cs),
(45,87,o),
(150,-16,o),
(299,-16,cs)
);
}
);
width = 600;
},
{
layerId = "23BFF7D0-A449-46AC-916C-A2933124BFA1";
shapes = (
{
closed = 1;
nodes = (
(466,4,o),
(585,107,o),
(585,253,cs),
(585,380,o),
(466,480,o),
(299,480,cs),
(271,480,o),
(259,508,o),
(259,574,cs),
(259,633,o),
(271,649,o),
(299,649,cs),
(327,649,o),
(339,633,o),
(339,574,cs),
(339,508,o),
(327,479,o),
(299,479,c),
(299,327,l),
(455,327,o),
(565,433,o),
(565,584,cs),
(565,722,o),
(455,809,o),
(299,809,cs),
(142,809,o),
(32,722,o),
(32,584,cs),
(32,433,o),
(142,327,o),
(299,327,cs),
(340,327,o),
(358,306,o),
(358,256,cs),
(358,199,o),
(340,164,o),
(299,164,cs),
(259,164,o),
(242,199,o),
(242,256,cs),
(242,306,o),
(259,327,o),
(299,327,c),
(299,470,l),
(132,470,o),
(14,374,o),
(14,253,cs),
(14,107,o),
(132,4,o),
(299,4,cs)
);
}
);
width = 600;
},
{
layerId = "529A3C21-2EE4-4A9B-A6FF-34138032017A";
shapes = (
{
closed = 1;
nodes = (
(444,-23,o),
(546,80,o),
(546,226,cs),
(546,343,o),
(447,425,o),
(306,425,cs),
(191,425,o),
(110,497,o),
(110,599,cs),
(110,702,o),
(193,775,o),
(311,775,cs),
(415,775,o),
(488,702,o),
(488,599,cs),
(488,497,o),
(413,424,o),
(306,424,c),
(306,402,l),
(433,402,o),
(522,484,o),
(522,599,cs),
(522,722,o),
(435,809,o),
(311,809,cs),
(173,809,o),
(76,722,o),
(76,599,cs),
(76,482,o),
(171,399,o),
(306,399,cs),
(427,399,o),
(512,327,o),
(512,226,cs),
(512,100,o),
(425,11,o),
(302,11,cs),
(177,11,o),
(89,100,o),
(89,226,cs),
(89,327,o),
(179,399,o),
(306,399,c),
(306,423,l),
(159,423,o),
(55,341,o),
(55,226,cs),
(55,80,o),
(156,-23,o),
(299,-23,cs)
);
}
);
width = 600;
}
);
unicode = 56;
},
{
glyphname = nine;
lastChange = "2024-04-20 13:21:10 +0000";
layers = (
{
layerId = m01;
shapes = (
{
closed = 1;
nodes = (
(416,-14,o),
(538,167,o),
(538,422,cs),
(538,653,o),
(452,817,o),
(283,817,cs),
(122,817,o),
(43,708,o),
(43,553,cs),
(43,415,o),
(142,317,o),
(263,317,cs),
(363,317,o),
(447,382,o),
(487,473,c),
(465,542,l),
(432,457,o),
(357,397,o),
(263,397,cs),
(201,397,o),
(143,462,o),
(143,553,cs),
(143,658,o),
(181,732,o),
(283,732,cs),
(394,732,o),
(438,604,o),
(438,422,cs),
(438,216,o),
(357,71,o),
(223,71,cs),
(185,71,o),
(120,83,o),
(87,101,c),
(87,11,l),
(115,-4,o),
(180,-14,o),
(223,-14,cs)
);
}
);
width = 600;
},
{
layerId = "23BFF7D0-A449-46AC-916C-A2933124BFA1";
shapes = (
{
closed = 1;
nodes = (
(438,-14,o),
(588,167,o),
(588,422,cs),
(588,653,o),
(461,817,o),
(282,817,cs),
(110,817,o),
(-11,708,o),
(-11,553,cs),
(-11,391,o),
(86,277,o),
(224,277,cs),
(365,277,o),
(496,358,o),
(541,473,c),
(521,542,l),
(499,481,o),
(401,437,o),
(284,437,cs),
(251,437,o),
(227,485,o),
(227,553,cs),
(227,611,o),
(250,652,o),
(282,652,cs),
(322,652,o),
(350,557,o),
(350,422,cs),
(350,263,o),
(282,151,o),
(187,151,cs),
(127,151,o),
(66,163,o),
(40,181,c),
(40,11,l),
(61,-4,o),
(139,-14,o),
(227,-14,cs)
);
}
);
width = 600;
},
{
associatedMasterId = m01;
layerId = "43B0B8C1-D76E-4716-8D6D-CCD8DE0A42CA";
name = "16. Apr. 24, 10:04";
shapes = (
{
closed = 1;
nodes = (
(107,29,l),
(140,3,o),
(197,-16,o),
(253,-16,cs),
(416,-16,o),
(548,115,o),
(548,420,cs),
(548,696,o),
(471,815,o),
(293,815,cs),
(152,815,o),
(53,706,o),
(53,551,cs),
(53,399,o),
(139,315,o),
(293,315,cs),
(378,315,o),
(469,376,o),
(497,441,c),
(475,510,l),
(449,443,o),
(368,395,o),
(293,395,cs),
(193,395,o),
(138,454,o),
(138,551,cs),
(138,656,o),
(202,735,o),
(293,735,cs),
(412,735,o),
(463,637,o),
(463,420,cs),
(463,174,o),
(357,69,o),
(253,69,cs),
(201,69,o),
(145,90,o),
(107,119,c)
);
}
);
width = 600;
},
{
layerId = "529A3C21-2EE4-4A9B-A6FF-34138032017A";
shapes = (
{
closed = 1;
nodes = (
(421,-14,o),
(534,154,o),
(534,422,cs),
(534,665,o),
(471,817,o),
(292,817,cs),
(158,817,o),
(74,715,o),
(74,553,cs),
(74,416,o),
(158,330,o),
(292,330,cs),
(387,330,o),
(474,390,o),
(518,485,c),
(509,529,l),
(469,428,o),
(386,364,o),
(292,364,cs),
(180,364,o),
(110,437,o),
(110,553,cs),
(110,694,o),
(180,783,o),
(292,783,cs),
(449,783,o),
(498,644,o),
(498,422,cs),
(498,175,o),
(399,20,o),
(292,20,cs),
(221,20,o),
(152,37,o),
(126,60,c),
(126,21,l),
(149,1,o),
(218,-14,o),
(292,-14,cs)
);
}
);
width = 600;
}
);
unicode = 57;
},
{
glyphname = period;
lastChange = "2024-04-20 13:33:54 +0000";
layers = (
{
layerId = m01;
shapes = (
{
closed = 1;
nodes = (
(235,0,l),
(235,115,l),
(120,115,l),
(120,0,l)
);
}
);
width = 355;
},
{
layerId = "23BFF7D0-A449-46AC-916C-A2933124BFA1";
shapes = (
{
closed = 1;
nodes = (
(315,0,l),
(315,200,l),
(105,200,l),
(105,0,l)
);
}
);
width = 420;
},
{
layerId = "529A3C21-2EE4-4A9B-A6FF-34138032017A";
shapes = (
{
closed = 1;
nodes = (
(208,0,l),
(208,87,l),
(125,87,l),
(125,0,l)
);
}
);
width = 333;
}
);
unicode = 46;
},
{
glyphname = comma;
lastChange = "2024-04-20 13:21:10 +0000";
layers = (
{
layerId = m01;
shapes = (
{
closed = 1;
nodes = (
(175,-146,o),
(232,-68,o),
(232,0,cs),
(232,115,l),
(117,115,l),
(117,0,l),
(174,0,l),
(174,-52,o),
(152,-99,o),
(121,-99,cs),
(118,-99,l),
(118,-146,l)
);
}
);
width = 355;
},
{
layerId = "23BFF7D0-A449-46AC-916C-A2933124BFA1";
shapes = (
{
closed = 1;
nodes = (
(228,-226,o),
(315,-132,o),
(315,0,cs),
(315,200,l),
(105,200,l),
(105,0,l),
(177,0,l),
(177,-58,o),
(155,-99,o),
(124,-99,cs),
(105,-99,l),
(105,-226,l)
);
}
);
width = 420;
},
{
layerId = "529A3C21-2EE4-4A9B-A6FF-34138032017A";
shapes = (
{
closed = 1;
nodes = (
(157,-119,o),
(204,-47,o),
(204,0,cs),
(204,87,l),
(121,87,l),
(121,0,l),
(173,0,l),
(173,-50,o),
(151,-99,o),
(120,-99,cs),
(122,-99,l),
(122,-119,l)
);
}
);
width = 333;
}
);
unicode = 44;
},
{
glyphname = colon;
lastChange = "2024-04-20 13:34:19 +0000";
layers = (
{
layerId = m01;
shapes = (
{
closed = 1;
nodes = (
(235,440,l),
(235,555,l),
(120,555,l),
(120,440,l)
);
},
{
closed = 1;
nodes = (
(235,0,l),
(235,115,l),
(120,115,l),
(120,0,l)
);
}
);
width = 355;
},
{
layerId = "23BFF7D0-A449-46AC-916C-A2933124BFA1";
shapes = (
{
closed = 1;
nodes = (
(315,360,l),
(315,560,l),
(105,560,l),
(105,360,l)
);
},
{
closed = 1;
nodes = (
(315,0,l),
(315,200,l),
(105,200,l),
(105,0,l)
);
}
);
width = 420;
},
{
layerId = "529A3C21-2EE4-4A9B-A6FF-34138032017A";
shapes = (
{
closed = 1;
nodes = (
(208,0,l),
(208,87,l),
(125,87,l),
(125,0,l)
);
},
{
closed = 1;
nodes = (
(208,467,l),
(208,553,l),
(125,553,l),
(125,467,l)
);
}
);
width = 333;
}
);
note = colon;
unicode = 58;
},
{
glyphname = semicolon;
lastChange = "2024-04-20 13:21:10 +0000";
layers = (
{
layerId = m01;
shapes = (
{
closed = 1;
nodes = (
(175,-146,o),
(232,-68,o),
(232,0,cs),
(232,115,l),
(117,115,l),
(117,0,l),
(174,0,l),
(174,-52,o),
(152,-99,o),
(121,-99,cs),
(118,-99,l),
(118,-146,l)
);
},
{
closed = 1;
nodes = (
(235,440,l),
(235,555,l),
(120,555,l),
(120,440,l)
);
}
);
width = 355;
},
{
layerId = "23BFF7D0-A449-46AC-916C-A2933124BFA1";
shapes = (
{
closed = 1;
nodes = (
(228,-226,o),
(315,-132,o),
(315,0,cs),
(315,200,l),
(105,200,l),
(105,0,l),
(177,0,l),
(177,-58,o),
(155,-99,o),
(124,-99,cs),
(105,-99,l),
(105,-226,l)
);
},
{
closed = 1;
nodes = (
(315,360,l),
(315,560,l),
(105,560,l),
(105,360,l)
);
}
);
width = 420;
},
{
layerId = "529A3C21-2EE4-4A9B-A6FF-34138032017A";
shapes = (
{
closed = 1;
nodes = (
(157,-119,o),
(204,-47,o),
(204,0,cs),
(204,87,l),
(121,87,l),
(121,0,l),
(173,0,l),
(173,-50,o),
(151,-99,o),
(120,-99,cs),
(122,-99,l),
(122,-119,l)
);
},
{
closed = 1;
nodes = (
(208,467,l),
(208,553,l),
(125,553,l),
(125,467,l)
);
}
);
width = 333;
}
);
note = semicolon;
unicode = 59;
},
{
glyphname = ellipsis;
lastChange = "2024-04-20 13:21:10 +0000";
layers = (
{
layerId = m01;
shapes = (
{
closed = 1;
nodes = (
(664,0,l),
(664,115,l),
(549,115,l),
(549,0,l)
);
},
{
closed = 1;
nodes = (
(179,0,l),
(179,115,l),
(64,115,l),
(64,0,l)
);
},
{
closed = 1;
nodes = (
(421,0,l),
(421,115,l),
(306,115,l),
(306,0,l)
);
}
);
width = 728;
},
{
layerId = "23BFF7D0-A449-46AC-916C-A2933124BFA1";
shapes = (
{
closed = 1;
nodes = (
(727,4,l),
(727,191,l),
(540,191,l),
(540,4,l)
);
},
{
closed = 1;
nodes = (
(242,4,l),
(242,191,l),
(55,191,l),
(55,4,l)
);
},
{
closed = 1;
nodes = (
(484,4,l),
(484,191,l),
(297,191,l),
(297,4,l)
);
}
);
width = 782;
},
{
layerId = "529A3C21-2EE4-4A9B-A6FF-34138032017A";
shapes = (
{
closed = 1;
nodes = (
(651,-1,l),
(651,90,l),
(560,90,l),
(560,-1,l)
);
},
{
closed = 1;
nodes = (
(166,-1,l),
(166,90,l),
(75,90,l),
(75,-1,l)
);
},
{
closed = 1;
nodes = (
(408,-1,l),
(408,90,l),
(317,90,l),
(317,-1,l)
);
}
);
width = 726;
}
);
note = ellipsis;
unicode = 8230;
},
{
glyphname = exclam;
lastChange = "2024-04-20 13:21:10 +0000";
layers = (
{
layerId = m01;
shapes = (
{
closed = 1;
nodes = (
(223,200,l),
(243,700,l),
(153,700,l),
(173,200,l)
);
},
{
closed = 1;
nodes = (
(240,0,l),
(240,83,l),
(157,83,l),
(157,0,l)
);
}
);
width = 400;
},
{
layerId = "23BFF7D0-A449-46AC-916C-A2933124BFA1";
shapes = (
{
closed = 1;
nodes = (
(273,290,l),
(293,690,l),
(103,700,l),
(123,290,l)
);
},
{
closed = 1;
nodes = (
(273,0,l),
(273,144,l),
(121,144,l),
(121,0,l)
);
}
);
width = 400;
},
{
layerId = "529A3C21-2EE4-4A9B-A6FF-34138032017A";
shapes = (
{
closed = 1;
nodes = (
(211,170,l),
(226,700,l),
(170,690,l),
(184,170,l)
);
},
{
closed = 1;
nodes = (
(229,0,l),
(229,63,l),
(169,63,l),
(169,0,l)
);
}
);
width = 400;
}
);
note = exclam;
unicode = 33;
},
{
glyphname = question;
lastChange = "2024-04-20 13:21:10 +0000";
layers = (
{
layerId = m01;
shapes = (
{
closed = 1;
nodes = (
(217,205,l),
(217,384,o),
(375,341,o),
(375,533,cs),
(375,645,o),
(290,715,o),
(170,715,cs),
(127,715,o),
(67,691,o),
(25,658,c),
(47,615,l),
(81,635,o),
(128,650,o),
(160,650,cs),
(245,650,o),
(305,597,o),
(305,523,cs),
(305,386,o),
(147,423,o),
(147,205,c)
);
},
{
closed = 1;
nodes = (
(225,0,l),
(225,83,l),
(142,83,l),
(142,0,l)
);
}
);
width = 400;
},
{
layerId = "23BFF7D0-A449-46AC-916C-A2933124BFA1";
shapes = (
{
closed = 1;
nodes = (
(307,255,l),
(307,459,o),
(445,428,o),
(445,563,cs),
(445,652,o),
(368,715,o),
(260,715,cs),
(161,715,o),
(63,687,o),
(25,648,c),
(47,555,l),
(78,581,o),
(145,600,o),
(210,600,cs),
(248,600,o),
(275,568,o),
(275,523,cs),
(275,413,o),
(137,446,o),
(137,255,c)
);
},
{
closed = 1;
nodes = (
(303,0,l),
(303,144,l),
(151,144,l),
(151,0,l)
);
}
);
width = 470;
},
{
layerId = "529A3C21-2EE4-4A9B-A6FF-34138032017A";
shapes = (
{
closed = 1;
nodes = (
(173,188,l),
(173,408,o),
(352,343,o),
(352,543,cs),
(352,644,o),
(278,715,o),
(174,715,cs),
(117,715,o),
(55,691,o),
(25,658,c),
(47,632,l),
(80,661,o),
(132,681,o),
(174,681,cs),
(257,681,o),
(316,624,o),
(316,543,cs),
(316,363,o),
(137,428,o),
(137,188,c)
);
},
{
closed = 1;
nodes = (
(186,0,l),
(186,63,l),
(126,63,l),
(126,0,l)
);
}
);
width = 377;
}
);
note = question;
unicode = 63;
},
{
glyphname = periodcentered;
lastChange = "2024-04-20 13:21:10 +0000";
layers = (
{
layerId = m01;
shapes = (
{
closed = 1;
nodes = (
(280,209,l),
(280,368,l),
(121,368,l),
(121,209,l)
);
}
);
width = 400;
},
{
layerId = "23BFF7D0-A449-46AC-916C-A2933124BFA1";
shapes = (
{
closed = 1;
nodes = (
(280,209,l),
(280,368,l),
(121,368,l),
(121,209,l)
);
}
);
width = 400;
},
{
layerId = "529A3C21-2EE4-4A9B-A6FF-34138032017A";
shapes = (
{
closed = 1;
nodes = (
(280,209,l),
(280,368,l),
(121,368,l),
(121,209,l)
);
}
);
width = 400;
}
);
note = periodcentered;
unicode = 183;
},
{
glyphname = bullet;
lastChange = "2024-04-20 13:21:10 +0000";
layers = (
{
layerId = m01;
shapes = (
{
closed = 1;
nodes = (
(381,161,o),
(437,225,o),
(437,294,cs),
(437,360,o),
(381,425,o),
(306,425,cs),
(237,425,o),
(173,369,o),
(173,294,cs),
(173,221,o),
(233,161,o),
(306,161,cs)
);
}
);
width = 600;
},
{
layerId = "23BFF7D0-A449-46AC-916C-A2933124BFA1";
shapes = (
{
closed = 1;
nodes = (
(381,161,o),
(437,225,o),
(437,294,cs),
(437,360,o),
(381,425,o),
(306,425,cs),
(237,425,o),
(173,369,o),
(173,294,cs),
(173,221,o),
(233,161,o),
(306,161,cs)
);
}
);
width = 600;
},
{
layerId = "529A3C21-2EE4-4A9B-A6FF-34138032017A";
shapes = (
{
closed = 1;
nodes = (
(381,161,o),
(437,225,o),
(437,294,cs),
(437,360,o),
(381,425,o),
(306,425,cs),
(237,425,o),
(173,369,o),
(173,294,cs),
(173,221,o),
(233,161,o),
(306,161,cs)
);
}
);
width = 600;
}
);
note = bullet;
unicode = 8226;
},
{
glyphname = asterisk;
lastChange = "2024-04-20 13:21:10 +0000";
layers = (
{
layerId = m01;
shapes = (
{
closed = 1;
nodes = (
(234,351,l),
(218,494,l),
(334,409,l),
(368,468,l),
(232,525,l),
(368,583,l),
(334,642,l),
(218,557,l),
(234,700,l),
(166,700,l),
(182,557,l),
(66,642,l),
(32,583,l),
(168,526,l),
(32,468,l),
(66,409,l),
(182,494,l),
(166,351,l)
);
}
);
width = 400;
},
{
layerId = "23BFF7D0-A449-46AC-916C-A2933124BFA1";
shapes = (
{
closed = 1;
nodes = (
(251,336,l),
(236,462,l),
(339,387,l),
(389,475,l),
(270,525,l),
(389,576,l),
(339,664,l),
(236,589,l),
(251,715,l),
(149,715,l),
(164,589,l),
(61,664,l),
(11,576,l),
(130,526,l),
(11,475,l),
(61,387,l),
(164,462,l),
(149,336,l)
);
}
);
width = 400;
},
{
layerId = "529A3C21-2EE4-4A9B-A6FF-34138032017A";
shapes = (
{
closed = 1;
nodes = (
(228,356,l),
(212,504,l),
(332,416,l),
(361,466,l),
(220,525,l),
(361,585,l),
(332,635,l),
(212,547,l),
(228,695,l),
(172,695,l),
(188,547,l),
(68,635,l),
(39,585,l),
(180,526,l),
(39,466,l),
(68,416,l),
(188,504,l),
(172,356,l)
);
}
);
width = 400;
}
);
note = asterisk;
unicode = 42;
},
{
glyphname = numbersign;
lastChange = "2024-04-20 13:21:10 +0000";
layers = (
{
layerId = m01;
shapes = (
{
closed = 1;
nodes = (
(418,0,l),
(492,700,l),
(401,700,l),
(327,0,l)
);
},
{
closed = 1;
nodes = (
(525,188,l),
(531,268,l),
(45,268,l),
(39,188,l)
);
},
{
closed = 1;
nodes = (
(193,0,l),
(267,700,l),
(177,700,l),
(103,0,l)
);
},
{
closed = 1;
nodes = (
(555,413,l),
(561,493,l),
(75,493,l),
(69,413,l)
);
}
);
width = 600;
},
{
layerId = "23BFF7D0-A449-46AC-916C-A2933124BFA1";
shapes = (
{
closed = 1;
nodes = (
(418,0,l),
(492,700,l),
(366,700,l),
(292,0,l)
);
},
{
closed = 1;
nodes = (
(525,178,l),
(531,303,l),
(45,303,l),
(39,178,l)
);
},
{
closed = 1;
nodes = (
(229,0,l),
(303,700,l),
(177,700,l),
(103,0,l)
);
},
{
closed = 1;
nodes = (
(555,378,l),
(561,503,l),
(75,503,l),
(69,378,l)
);
}
);
width = 600;
},
{
layerId = "529A3C21-2EE4-4A9B-A6FF-34138032017A";
shapes = (
{
closed = 1;
nodes = (
(368,0,l),
(442,700,l),
(406,700,l),
(332,0,l)
);
},
{
closed = 1;
nodes = (
(525,198,l),
(531,234,l),
(45,234,l),
(39,198,l)
);
},
{
closed = 1;
nodes = (
(169,0,l),
(243,700,l),
(207,700,l),
(133,0,l)
);
},
{
closed = 1;
nodes = (
(555,447,l),
(561,483,l),
(75,483,l),
(69,447,l)
);
}
);
width = 600;
}
);
note = numbersign;
unicode = 35;
},
{
glyphname = slash;
lastChange = "2024-04-20 13:34:17 +0000";
layers = (
{
layerId = m01;
shapes = (
{
closed = 1;
nodes = (
(97,-166,l),
(371,700,l),
(308,700,l),
(34,-166,l)
);
}
);
width = 395;
},
{
layerId = "23BFF7D0-A449-46AC-916C-A2933124BFA1";
shapes = (
{
closed = 1;
nodes = (
(178,-166,l),
(452,700,l),
(289,700,l),
(15,-166,l)
);
}
);
width = 467;
},
{
layerId = "529A3C21-2EE4-4A9B-A6FF-34138032017A";
shapes = (
{
closed = 1;
nodes = (
(42,-166,l),
(316,700,l),
(287,700,l),
(13,-166,l)
);
}
);
width = 329;
}
);
note = slash;
unicode = 47;
},
{
glyphname = backslash;
lastChange = "2024-04-20 13:21:10 +0000";
layers = (
{
layerId = m01;
shapes = (
{
closed = 1;
nodes = (
(381,-166,l),
(107,700,l),
(44,700,l),
(318,-166,l)
);
}
);
width = 425;
},
{
layerId = "23BFF7D0-A449-46AC-916C-A2933124BFA1";
shapes = (
{
closed = 1;
nodes = (
(402,-166,l),
(128,700,l),
(45,700,l),
(319,-166,l)
);
}
);
width = 447;
},
{
layerId = "529A3C21-2EE4-4A9B-A6FF-34138032017A";
shapes = (
{
closed = 1;
nodes = (
(360,-166,l),
(86,700,l),
(44,700,l),
(318,-166,l)
);
}
);
width = 403;
}
);
note = backslash;
unicode = 92;
},
{
glyphname = hyphen;
lastChange = "2024-04-20 13:21:10 +0000";
layers = (
{
layerId = m01;
shapes = (
{
closed = 1;
nodes = (
(415,301,l),
(414,381,l),
(61,381,l),
(62,301,l)
);
}
);
width = 480;
},
{
layerId = "23BFF7D0-A449-46AC-916C-A2933124BFA1";
shapes = (
{
closed = 1;
nodes = (
(415,262,l),
(415,482,l),
(62,482,l),
(62,262,l)
);
}
);
width = 480;
},
{
layerId = "529A3C21-2EE4-4A9B-A6FF-34138032017A";
shapes = (
{
closed = 1;
nodes = (
(415,314,l),
(414,347,l),
(61,347,l),
(62,314,l)
);
}
);
width = 480;
}
);
unicode = 45;
},
{
glyphname = endash;
lastChange = "2024-04-20 13:21:10 +0000";
layers = (
{
layerId = m01;
shapes = (
{
closed = 1;
nodes = (
(537,301,l),
(536,381,l),
(63,381,l),
(64,301,l)
);
}
);
width = 600;
},
{
layerId = "23BFF7D0-A449-46AC-916C-A2933124BFA1";
shapes = (
{
closed = 1;
nodes = (
(543,262,l),
(543,482,l),
(60,482,l),
(60,262,l)
);
}
);
width = 600;
},
{
layerId = "529A3C21-2EE4-4A9B-A6FF-34138032017A";
shapes = (
{
closed = 1;
nodes = (
(535,314,l),
(534,347,l),
(64,347,l),
(65,314,l)
);
}
);
width = 600;
}
);
unicode = 8211;
},
{
glyphname = emdash;
lastChange = "2024-04-20 13:21:10 +0000";
layers = (
{
layerId = m01;
shapes = (
{
closed = 1;
nodes = (
(600,301,l),
(599,381,l),
(0,381,l),
(1,301,l)
);
}
);
width = 600;
},
{
layerId = "23BFF7D0-A449-46AC-916C-A2933124BFA1";
shapes = (
{
closed = 1;
nodes = (
(600,262,l),
(600,482,l),
(0,482,l),
(0,262,l)
);
}
);
width = 600;
},
{
layerId = "529A3C21-2EE4-4A9B-A6FF-34138032017A";
shapes = (
{
closed = 1;
nodes = (
(600,314,l),
(599,347,l),
(0,347,l),
(1,314,l)
);
}
);
width = 600;
}
);
unicode = 8212;
},
{
glyphname = underscore;
lastChange = "2024-04-20 13:21:10 +0000";
layers = (
{
layerId = m01;
shapes = (
{
closed = 1;
nodes = (
(600,-199,l),
(599,-119,l),
(0,-119,l),
(1,-199,l)
);
}
);
width = 600;
},
{
layerId = "23BFF7D0-A449-46AC-916C-A2933124BFA1";
shapes = (
{
closed = 1;
nodes = (
(600,-318,l),
(600,-98,l),
(0,-98,l),
(0,-318,l)
);
}
);
width = 600;
},
{
layerId = "529A3C21-2EE4-4A9B-A6FF-34138032017A";
shapes = (
{
closed = 1;
nodes = (
(600,-159,l),
(599,-126,l),
(0,-126,l),
(1,-159,l)
);
}
);
width = 600;
}
);
unicode = 95;
},
{
glyphname = parenleft;
lastChange = "2024-04-20 13:21:10 +0000";
layers = (
{
layerId = m01;
shapes = (
{
closed = 1;
nodes = (
(319,-150,l),
(251,-15,o),
(216,151,o),
(216,320,cs),
(216,483,o),
(249,649,o),
(319,790,c),
(249,790,l),
(92,478,o),
(92,162,o),
(249,-150,c)
);
}
);
width = 400;
},
{
layerId = "23BFF7D0-A449-46AC-916C-A2933124BFA1";
shapes = (
{
closed = 1;
nodes = (
(349,-150,l),
(282,-10,o),
(249,155,o),
(249,320,cs),
(249,485,o),
(282,651,o),
(349,790,c),
(249,790,l),
(54,484,o),
(40,171,o),
(259,-150,c)
);
}
);
width = 400;
},
{
layerId = "529A3C21-2EE4-4A9B-A6FF-34138032017A";
shapes = (
{
closed = 1;
nodes = (
(309,-150,l),
(240,-15,o),
(205,152,o),
(205,321,cs),
(205,485,o),
(239,652,o),
(309,790,c),
(249,790,l),
(107,476,o),
(107,166,o),
(246,-150,c)
);
}
);
width = 400;
}
);
note = parenleft;
unicode = 40;
},
{
glyphname = braceleft;
lastChange = "2024-04-20 13:21:10 +0000";
layers = (
{
layerId = m01;
shapes = (
{
closed = 1;
nodes = (
(160,299,o),
(228,341,o),
(228,416,cs),
(228,673,ls),
(228,710,o),
(260,731,o),
(315,731,c),
(315,781,l),
(222,781,o),
(158,742,o),
(158,673,cs),
(158,416,ls),
(158,360,o),
(122,329,o),
(55,329,c),
(55,299,l)
);
},
{
closed = 1;
nodes = (
(315,-103,l),
(260,-103,o),
(228,-82,o),
(228,-45,cs),
(228,212,ls),
(228,287,o),
(160,329,o),
(55,329,c),
(55,299,l),
(122,299,o),
(158,268,o),
(158,212,cs),
(158,-45,ls),
(158,-114,o),
(222,-153,o),
(315,-153,c)
);
}
);
width = 370;
},
{
layerId = "23BFF7D0-A449-46AC-916C-A2933124BFA1";
shapes = (
{
closed = 1;
nodes = (
(171,299,o),
(299,341,o),
(299,416,cs),
(299,633,ls),
(299,670,o),
(331,691,o),
(386,691,c),
(386,781,l),
(293,781,o),
(169,742,o),
(169,673,cs),
(169,456,ls),
(169,400,o),
(133,369,o),
(66,369,c),
(66,299,l)
);
},
{
closed = 1;
nodes = (
(386,-63,l),
(331,-63,o),
(299,-42,o),
(299,-5,cs),
(299,212,ls),
(299,287,o),
(171,329,o),
(66,329,c),
(66,259,l),
(133,259,o),
(169,228,o),
(169,172,cs),
(169,-45,ls),
(169,-114,o),
(293,-153,o),
(386,-153,c)
);
}
);
width = 452;
},
{
layerId = "529A3C21-2EE4-4A9B-A6FF-34138032017A";
shapes = (
{
closed = 1;
nodes = (
(149,306,o),
(197,341,o),
(197,416,cs),
(197,686,ls),
(197,723,o),
(229,744,o),
(284,744,c),
(284,781,l),
(192,781,o),
(147,744,o),
(147,673,cs),
(147,403,ls),
(147,348,o),
(112,323,o),
(44,323,c),
(44,306,l)
);
},
{
closed = 1;
nodes = (
(284,-116,l),
(229,-116,o),
(197,-95,o),
(197,-58,cs),
(197,212,ls),
(197,287,o),
(148,323,o),
(44,323,c),
(44,306,l),
(113,306,o),
(147,279,o),
(147,225,cs),
(147,-45,ls),
(147,-116,o),
(192,-153,o),
(284,-153,c)
);
}
);
width = 328;
}
);
note = braceleft;
unicode = 123;
},
{
glyphname = bracketleft;
lastChange = "2024-04-20 13:21:10 +0000";
layers = (
{
layerId = m01;
shapes = (
{
closed = 1;
nodes = (
(265,-152,l),
(265,-92,l),
(125,-92,l),
(125,710,l),
(265,710,l),
(265,770,l),
(55,770,l),
(55,-152,l)
);
}
);
width = 320;
},
{
layerId = "23BFF7D0-A449-46AC-916C-A2933124BFA1";
shapes = (
{
closed = 1;
nodes = (
(356,-152,l),
(356,-52,l),
(216,-52,l),
(216,670,l),
(356,670,l),
(356,770,l),
(66,770,l),
(66,-152,l)
);
}
);
width = 422;
},
{
layerId = "529A3C21-2EE4-4A9B-A6FF-34138032017A";
shapes = (
{
closed = 1;
nodes = (
(227,-152,l),
(227,-105,l),
(87,-105,l),
(87,723,l),
(227,723,l),
(227,770,l),
(44,770,l),
(44,-152,l)
);
}
);
width = 271;
}
);
note = bracketleft;
unicode = 91;
},
{
glyphname = quotesinglbase;
lastChange = "2024-04-20 13:21:10 +0000";
layers = (
{
layerId = m01;
shapes = (
{
closed = 1;
nodes = (
(277,85,l),
(188,110,l),
(130,-153,l),
(180,-169,l)
);
}
);
width = 400;
},
{
layerId = "23BFF7D0-A449-46AC-916C-A2933124BFA1";
shapes = (
{
closed = 1;
nodes = (
(297,85,l),
(168,110,l),
(110,-153,l),
(200,-169,l)
);
}
);
width = 400;
},
{
layerId = "529A3C21-2EE4-4A9B-A6FF-34138032017A";
shapes = (
{
closed = 1;
nodes = (
(270,85,l),
(195,110,l),
(137,-153,l),
(173,-169,l)
);
}
);
width = 400;
}
);
note = quotesinglbase;
unicode = 8218;
},
{
glyphname = quotedblbase;
lastChange = "2024-04-20 13:21:10 +0000";
layers = (
{
layerId = m01;
shapes = (
{
closed = 1;
nodes = (
(343,85,l),
(254,110,l),
(196,-153,l),
(246,-169,l)
);
},
{
closed = 1;
nodes = (
(196,85,l),
(107,110,l),
(49,-153,l),
(99,-169,l)
);
}
);
width = 400;
},
{
layerId = "23BFF7D0-A449-46AC-916C-A2933124BFA1";
shapes = (
{
closed = 1;
nodes = (
(373,85,l),
(264,110,l),
(206,-153,l),
(276,-169,l)
);
},
{
closed = 1;
nodes = (
(196,85,l),
(87,110,l),
(29,-153,l),
(99,-169,l)
);
}
);
width = 400;
},
{
layerId = "529A3C21-2EE4-4A9B-A6FF-34138032017A";
shapes = (
{
closed = 1;
nodes = (
(333,85,l),
(251,110,l),
(193,-153,l),
(236,-169,l)
);
},
{
closed = 1;
nodes = (
(199,85,l),
(117,110,l),
(59,-153,l),
(102,-169,l)
);
}
);
width = 400;
}
);
note = quotedblbase;
unicode = 8222;
},
{
glyphname = quotedblleft;
lastChange = "2024-04-20 13:21:10 +0000";
layers = (
{
layerId = m01;
shapes = (
{
closed = 1;
nodes = (
(348,705,l),
(298,721,l),
(201,467,l),
(290,442,l)
);
},
{
closed = 1;
nodes = (
(202,705,l),
(152,721,l),
(55,467,l),
(144,442,l)
);
}
);
width = 400;
},
{
layerId = "23BFF7D0-A449-46AC-916C-A2933124BFA1";
shapes = (
{
closed = 1;
nodes = (
(368,705,l),
(298,721,l),
(201,467,l),
(310,442,l)
);
},
{
closed = 1;
nodes = (
(192,705,l),
(122,721,l),
(25,467,l),
(134,442,l)
);
}
);
width = 400;
},
{
layerId = "529A3C21-2EE4-4A9B-A6FF-34138032017A";
shapes = (
{
closed = 1;
nodes = (
(338,705,l),
(295,721,l),
(188,467,l),
(270,442,l)
);
},
{
closed = 1;
nodes = (
(195,705,l),
(152,721,l),
(55,467,l),
(137,442,l)
);
}
);
width = 400;
}
);
note = quotedblleft;
unicode = 8220;
},
{
glyphname = quotedblright;
lastChange = "2024-04-20 13:21:10 +0000";
layers = (
{
layerId = m01;
shapes = (
{
closed = 1;
nodes = (
(357,703,l),
(268,728,l),
(210,465,l),
(260,449,l)
);
},
{
closed = 1;
nodes = (
(200,703,l),
(111,728,l),
(53,465,l),
(103,449,l)
);
}
);
width = 400;
},
{
layerId = "23BFF7D0-A449-46AC-916C-A2933124BFA1";
shapes = (
{
closed = 1;
nodes = (
(377,703,l),
(268,728,l),
(210,465,l),
(280,449,l)
);
},
{
closed = 1;
nodes = (
(200,703,l),
(91,728,l),
(33,465,l),
(103,449,l)
);
}
);
width = 400;
},
{
layerId = "529A3C21-2EE4-4A9B-A6FF-34138032017A";
shapes = (
{
closed = 1;
nodes = (
(337,703,l),
(255,728,l),
(197,465,l),
(240,449,l)
);
},
{
closed = 1;
nodes = (
(203,703,l),
(121,728,l),
(63,465,l),
(106,449,l)
);
}
);
width = 400;
}
);
note = quotedblright;
unicode = 8221;
},
{
glyphname = quoteleft;
lastChange = "2024-04-20 13:21:10 +0000";
layers = (
{
layerId = m01;
shapes = (
{
closed = 1;
nodes = (
(227,705,l),
(177,721,l),
(80,467,l),
(169,442,l)
);
}
);
width = 300;
},
{
layerId = "23BFF7D0-A449-46AC-916C-A2933124BFA1";
shapes = (
{
closed = 1;
nodes = (
(247,705,l),
(157,721,l),
(60,467,l),
(189,442,l)
);
}
);
width = 300;
},
{
layerId = "529A3C21-2EE4-4A9B-A6FF-34138032017A";
shapes = (
{
closed = 1;
nodes = (
(220,705,l),
(184,721,l),
(87,467,l),
(162,442,l)
);
}
);
width = 300;
}
);
note = quoteleft;
unicode = 8216;
},
{
glyphname = quoteright;
lastChange = "2024-04-20 13:21:10 +0000";
layers = (
{
layerId = m01;
shapes = (
{
closed = 1;
nodes = (
(240,703,l),
(151,728,l),
(93,465,l),
(143,449,l)
);
}
);
width = 300;
},
{
layerId = "23BFF7D0-A449-46AC-916C-A2933124BFA1";
shapes = (
{
closed = 1;
nodes = (
(250,703,l),
(131,728,l),
(73,465,l),
(153,449,l)
);
}
);
width = 300;
},
{
layerId = "529A3C21-2EE4-4A9B-A6FF-34138032017A";
shapes = (
{
closed = 1;
nodes = (
(237,703,l),
(158,728,l),
(100,465,l),
(140,449,l)
);
}
);
width = 300;
}
);
note = quoteright;
unicode = 8217;
},
{
glyphname = guilsinglleft;
lastChange = "2024-04-20 13:21:10 +0000";
layers = (
{
layerId = m01;
shapes = (
{
closed = 1;
nodes = (
(321,89,l),
(287,152,o),
(242,217,o),
(186,283,c),
(242,349,o),
(287,414,o),
(321,477,c),
(290,503,l),
(214,434,o),
(143,361,o),
(78,283,c),
(143,205,o),
(214,132,o),
(290,63,c)
);
}
);
width = 400;
},
{
layerId = "23BFF7D0-A449-46AC-916C-A2933124BFA1";
shapes = (
{
closed = 1;
nodes = (
(371,89,l),
(337,152,o),
(292,217,o),
(236,283,c),
(292,349,o),
(337,414,o),
(371,477,c),
(290,503,l),
(214,434,o),
(143,361,o),
(78,283,c),
(143,205,o),
(214,132,o),
(290,63,c)
);
}
);
width = 400;
},
{
layerId = "529A3C21-2EE4-4A9B-A6FF-34138032017A";
shapes = (
{
closed = 1;
nodes = (
(304,89,l),
(270,152,o),
(225,217,o),
(169,283,c),
(225,349,o),
(270,414,o),
(304,477,c),
(290,503,l),
(214,434,o),
(143,361,o),
(78,283,c),
(143,205,o),
(214,132,o),
(290,63,c)
);
}
);
width = 400;
}
);
note = guilsinglleft;
unicode = 8249;
},
{
glyphname = quotesingle;
lastChange = "2024-04-20 13:21:10 +0000";
layers = (
{
layerId = m01;
shapes = (
{
closed = 1;
nodes = (
(225,560,l),
(245,800,l),
(155,800,l),
(175,560,l)
);
}
);
width = 400;
},
{
layerId = "23BFF7D0-A449-46AC-916C-A2933124BFA1";
shapes = (
{
closed = 1;
nodes = (
(265,558,l),
(285,798,l),
(125,798,l),
(145,558,l)
);
}
);
width = 410;
},
{
layerId = "529A3C21-2EE4-4A9B-A6FF-34138032017A";
shapes = (
{
closed = 1;
nodes = (
(202,561,l),
(222,801,l),
(155,801,l),
(175,561,l)
);
}
);
width = 377;
}
);
note = quotesingle;
unicode = 39;
},
{
glyphname = sextile;
lastChange = "2024-04-20 13:21:10 +0000";
layers = (
{
layerId = m01;
shapes = (
{
closed = 1;
nodes = (
(149,147,l),
(280,353,l),
(393,570,l),
(451,536,l),
(320,330,l),
(207,113,l)
);
},
{
closed = 1;
nodes = (
(451,147,l),
(320,353,l),
(207,570,l),
(149,536,l),
(280,330,l),
(393,113,l)
);
},
{
closed = 1;
nodes = (
(300,318,l),
(544,308,l),
(544,375,l),
(300,365,l),
(56,375,l),
(56,308,l)
);
}
);
width = 600;
},
{
layerId = "23BFF7D0-A449-46AC-916C-A2933124BFA1";
shapes = (
{
closed = 1;
nodes = (
(114,187,l),
(245,393,l),
(358,610,l),
(486,536,l),
(355,330,l),
(242,113,l)
);
},
{
closed = 1;
nodes = (
(486,187,l),
(355,393,l),
(242,610,l),
(114,536,l),
(245,330,l),
(358,113,l)
);
},
{
closed = 1;
nodes = (
(300,298,l),
(544,288,l),
(544,435,l),
(300,425,l),
(56,435,l),
(56,288,l)
);
}
);
width = 600;
},
{
layerId = "529A3C21-2EE4-4A9B-A6FF-34138032017A";
shapes = (
{
closed = 1;
nodes = (
(175,132,l),
(288,348,l),
(419,555,l),
(425,551,l),
(312,335,l),
(181,128,l)
);
},
{
closed = 1;
nodes = (
(425,132,l),
(312,349,l),
(181,555,l),
(175,551,l),
(288,334,l),
(419,128,l)
);
},
{
closed = 1;
nodes = (
(544,338,l),
(544,345,l),
(300,355,l),
(56,345,l),
(56,338,l),
(300,328,l)
);
}
);
width = 600;
}
);
unicode = 9913;
},
{
glyphname = at;
lastChange = "2024-04-20 13:21:10 +0000";
layers = (
{
layerId = m01;
shapes = (
{
closed = 1;
nodes = (
(500,-87,o),
(588,-51,o),
(638,0,c),
(596,51,l),
(558,10,o),
(488,-18,o),
(430,-18,cs),
(238,-18,o),
(113,112,o),
(113,296,cs),
(113,482,o),
(244,614,o),
(429,614,cs),
(586,614,o),
(697,504,o),
(697,349,cs),
(697,236,o),
(655,157,o),
(596,157,cs),
(567,157,o),
(542,185,o),
(547,222,cs),
(585,502,l),
(506,502,l),
(466,216,l),
(457,181,o),
(429,160,o),
(397,160,cs),
(336,160,o),
(293,214,o),
(293,291,cs),
(293,377,o),
(346,437,o),
(421,437,cs),
(448,437,o),
(482,421,o),
(503,398,c),
(514,474,l),
(497,496,o),
(459,511,o),
(421,511,cs),
(300,511,o),
(214,420,o),
(214,291,cs),
(214,171,o),
(290,86,o),
(397,86,cs),
(424,86,o),
(479,108,o),
(500,154,c),
(510,122,o),
(539,93,o),
(596,93,cs),
(695,93,o),
(766,199,o),
(766,349,cs),
(766,544,o),
(626,683,o),
(429,683,cs),
(204,683,o),
(44,522,o),
(44,296,cs),
(44,72,o),
(203,-87,o),
(428,-87,cs)
);
}
);
width = 810;
},
{
layerId = "23BFF7D0-A449-46AC-916C-A2933124BFA1";
shapes = (
{
closed = 1;
nodes = (
(519,-85,o),
(602,-56,o),
(648,-16,c),
(597,67,l),
(568,39,o),
(508,20,o),
(450,20,cs),
(275,20,o),
(151,134,o),
(151,296,cs),
(151,483,o),
(266,616,o),
(429,616,cs),
(587,616,o),
(699,505,o),
(699,349,cs),
(699,259,o),
(673,195,o),
(636,195,cs),
(604,195,o),
(584,217,o),
(588,249,cs),
(623,520,l),
(508,520,l),
(475,271,ls),
(470,228,o),
(438,198,o),
(397,198,cs),
(358,198,o),
(331,237,o),
(331,291,cs),
(331,378,o),
(372,439,o),
(431,439,cs),
(456,439,o),
(487,426,o),
(504,407,c),
(516,497,l),
(492,527,o),
(456,549,o),
(431,549,cs),
(305,549,o),
(216,442,o),
(216,291,cs),
(216,172,o),
(291,88,o),
(397,88,cs),
(462,88,o),
(521,116,o),
(541,156,c),
(552,120,o),
(591,95,o),
(636,95,cs),
(734,95,o),
(804,200,o),
(804,349,cs),
(804,567,o),
(649,721,o),
(429,721,cs),
(205,721,o),
(46,545,o),
(46,296,cs),
(46,73,o),
(213,-85,o),
(448,-85,cs)
);
}
);
width = 850;
},
{
layerId = "529A3C21-2EE4-4A9B-A6FF-34138032017A";
shapes = (
{
closed = 1;
nodes = (
(488,-75,o),
(569,-41,o),
(619,5,c),
(596,29,l),
(551,-16,o),
(480,-44,o),
(423,-44,cs),
(221,-44,o),
(90,97,o),
(90,296,cs),
(90,490,o),
(232,626,o),
(429,626,cs),
(591,626,o),
(706,512,o),
(706,349,cs),
(706,222,o),
(656,131,o),
(583,131,cs),
(542,131,o),
(517,166,o),
(523,215,cs),
(560,483,l),
(513,483,l),
(473,195,l),
(462,159,o),
(431,134,o),
(397,134,cs),
(323,134,o),
(270,199,o),
(270,291,cs),
(270,384,o),
(331,449,o),
(418,449,cs),
(451,449,o),
(493,433,o),
(520,411,c),
(526,456,l),
(509,473,o),
(464,485,o),
(418,485,cs),
(304,485,o),
(223,405,o),
(223,291,cs),
(223,178,o),
(295,98,o),
(397,98,cs),
(444,98,o),
(483,130,o),
(490,175,c),
(497,134,o),
(536,105,o),
(583,105,cs),
(676,105,o),
(743,205,o),
(743,349,cs),
(743,528,o),
(613,657,o),
(429,657,cs),
(209,657,o),
(53,506,o),
(53,296,cs),
(53,80,o),
(205,-75,o),
(421,-75,cs)
);
}
);
width = 797;
}
);
unicode = 64;
},
{
glyphname = ampersand;
lastChange = "2024-04-20 13:21:10 +0000";
layers = (
{
layerId = m01;
shapes = (
{
closed = 1;
nodes = (
(565,-16,o),
(737,177,o),
(737,450,c),
(657,450,l),
(657,224,o),
(519,64,o),
(323,64,cs),
(233,64,o),
(170,120,o),
(170,200,cs),
(170,355,o),
(493,440,o),
(493,623,cs),
(493,734,o),
(419,813,o),
(315,813,cs),
(198,813,o),
(115,746,o),
(115,623,cs),
(115,435,o),
(235,309,o),
(737,-16,c),
(737,89,l),
(327,339,o),
(210,490,o),
(210,623,cs),
(210,699,o),
(253,733,o),
(313,733,cs),
(366,733,o),
(403,687,o),
(403,623,cs),
(403,508,o),
(80,410,o),
(80,200,cs),
(80,73,o),
(181,-16,o),
(323,-16,cs)
);
}
);
width = 817;
},
{
layerId = "23BFF7D0-A449-46AC-916C-A2933124BFA1";
shapes = (
{
closed = 1;
nodes = (
(680,-16,o),
(885,242,o),
(885,607,c),
(669,607,l),
(669,325,o),
(553,165,o),
(389,165,cs),
(320,165,o),
(271,199,o),
(271,246,cs),
(271,389,o),
(625,444,o),
(625,616,cs),
(625,735,o),
(516,819,o),
(361,819,cs),
(202,819,o),
(90,735,o),
(90,616,cs),
(90,462,o),
(424,235,o),
(853,-16,c),
(853,226,l),
(533,407,o),
(306,569,o),
(306,626,cs),
(306,653,o),
(329,679,o),
(361,679,cs),
(389,679,o),
(409,653,o),
(409,626,cs),
(409,530,o),
(55,433,o),
(55,246,cs),
(55,93,o),
(193,-16,o),
(389,-16,cs)
);
}
);
width = 940;
},
{
layerId = "529A3C21-2EE4-4A9B-A6FF-34138032017A";
shapes = (
{
closed = 1;
nodes = (
(508,-17,o),
(662,157,o),
(668,385,c),
(632,385,l),
(626,176,o),
(499,17,o),
(291,17,cs),
(189,17,o),
(124,86,o),
(124,185,cs),
(124,355,o),
(429,470,o),
(429,625,cs),
(429,727,o),
(372,798,o),
(290,798,cs),
(191,798,o),
(123,741,o),
(123,625,cs),
(123,493,o),
(170,344,o),
(678,5,c),
(678,47,l),
(264,343,o),
(159,449,o),
(159,622,cs),
(159,723,o),
(214,764,o),
(287,764,cs),
(353,764,o),
(393,705,o),
(393,622,cs),
(393,488,o),
(88,373,o),
(88,185,cs),
(88,74,o),
(172,-17,o),
(291,-17,cs)
);
}
);
width = 767;
}
);
metricLeft = N;
metricRight = N;
unicode = 38;
},
{
glyphname = section;
lastChange = "2024-04-20 13:21:10 +0000";
layers = (
{
layerId = m01;
shapes = (
{
closed = 1;
nodes = (
(384,161,o),
(466,219,o),
(466,300,cs),
(466,464,o),
(182,429,o),
(182,522,cs),
(182,569,o),
(226,603,o),
(288,603,c),
(288,675,l),
(172,675,o),
(90,612,o),
(90,522,cs),
(90,359,o),
(376,393,o),
(376,300,cs),
(376,237,o),
(332,193,o),
(269,193,c),
(269,161,l)
);
},
{
closed = 1;
nodes = (
(374,-93,o),
(456,-27,o),
(456,66,cs),
(456,230,o),
(172,195,o),
(172,288,cs),
(172,347,o),
(216,389,o),
(278,389,c),
(278,421,l),
(162,421,o),
(80,366,o),
(80,288,cs),
(80,125,o),
(366,159,o),
(366,66,cs),
(366,15,o),
(322,-21,o),
(259,-21,c),
(259,-93,l)
);
},
{
closed = 1;
nodes = (
(259,-21,l),
(206,-21,o),
(142,1,o),
(104,32,c),
(104,-56,l),
(143,-78,o),
(208,-93,o),
(259,-93,c)
);
},
{
closed = 1;
nodes = (
(424,638,l),
(384,660,o),
(327,675,o),
(288,675,c),
(288,603,l),
(328,603,o),
(384,581,o),
(424,551,c)
);
}
);
width = 546;
},
{
layerId = "23BFF7D0-A449-46AC-916C-A2933124BFA1";
shapes = (
{
closed = 1;
nodes = (
(486,161,o),
(601,219,o),
(601,300,cs),
(601,504,o),
(267,439,o),
(267,492,cs),
(267,510,o),
(298,523,o),
(343,523,c),
(343,715,l),
(180,715,o),
(65,635,o),
(65,522,cs),
(65,359,o),
(371,393,o),
(371,300,cs),
(371,261,o),
(352,233,o),
(324,233,c),
(324,161,l)
);
},
{
closed = 1;
nodes = (
(476,-133,o),
(591,-51,o),
(591,66,cs),
(591,230,o),
(287,195,o),
(287,288,cs),
(287,324,o),
(306,349,o),
(333,349,c),
(333,421,l),
(170,421,o),
(55,366,o),
(55,288,cs),
(55,85,o),
(391,149,o),
(391,96,cs),
(391,74,o),
(359,59,o),
(314,59,c),
(314,-133,l)
);
},
{
closed = 1;
nodes = (
(314,59,l),
(226,59,o),
(137,81,o),
(99,112,c),
(99,-96,l),
(136,-118,o),
(226,-133,o),
(314,-133,c)
);
},
{
closed = 1;
nodes = (
(539,678,l),
(501,700,o),
(419,715,o),
(343,715,c),
(343,523,l),
(416,523,o),
(497,501,o),
(539,471,c)
);
}
);
width = 656;
},
{
layerId = "529A3C21-2EE4-4A9B-A6FF-34138032017A";
shapes = (
{
closed = 1;
nodes = (
(351,161,o),
(421,219,o),
(421,300,cs),
(421,431,o),
(134,426,o),
(134,532,cs),
(134,589,o),
(190,630,o),
(270,630,c),
(270,662,l),
(169,662,o),
(98,604,o),
(98,522,cs),
(98,379,o),
(385,393,o),
(385,300,cs),
(385,230,o),
(329,180,o),
(251,180,c),
(251,161,l)
);
},
{
closed = 1;
nodes = (
(341,-80,o),
(411,-20,o),
(411,66,cs),
(411,210,o),
(124,195,o),
(124,288,cs),
(124,355,o),
(180,402,o),
(260,402,c),
(260,421,l),
(159,421,o),
(88,366,o),
(88,288,cs),
(88,158,o),
(378,162,o),
(378,56,cs),
(378,-5,o),
(321,-48,o),
(241,-48,c),
(241,-80,l)
);
},
{
closed = 1;
nodes = (
(241,-48,l),
(200,-48,o),
(144,-26,o),
(106,5,c),
(106,-43,l),
(143,-65,o),
(199,-80,o),
(241,-80,c)
);
},
{
closed = 1;
nodes = (
(386,625,l),
(347,647,o),
(299,662,o),
(270,662,c),
(270,630,l),
(296,630,o),
(344,608,o),
(386,578,c)
);
}
);
width = 510;
}
);
metricLeft = H;
metricRight = H;
unicode = 167;
},
{
glyphname = degree;
lastChange = "2024-04-20 13:21:10 +0000";
layers = (
{
layerId = m01;
shapes = (
{
closed = 1;
nodes = (
(320,379,o),
(389,448,o),
(389,534,cs),
(389,619,o),
(320,688,o),
(235,688,cs),
(149,688,o),
(80,619,o),
(80,534,cs),
(80,448,o),
(149,379,o),
(235,379,cs)
);
},
{
closed = 1;
nodes = (
(192,456,o),
(157,491,o),
(157,534,cs),
(157,576,o),
(192,611,o),
(235,611,cs),
(277,611,o),
(312,576,o),
(312,534,cs),
(312,491,o),
(277,456,o),
(235,456,cs)
);
}
);
width = 469;
},
{
layerId = "23BFF7D0-A449-46AC-916C-A2933124BFA1";
shapes = (
{
closed = 1;
nodes = (
(421,299,o),
(514,396,o),
(514,534,cs),
(514,671,o),
(421,768,o),
(290,768,cs),
(152,768,o),
(55,671,o),
(55,534,cs),
(55,396,o),
(152,299,o),
(290,299,cs)
);
},
{
closed = 1;
nodes = (
(268,496,o),
(252,512,o),
(252,534,cs),
(252,556,o),
(268,571,o),
(290,571,cs),
(312,571,o),
(327,556,o),
(327,534,cs),
(327,512,o),
(312,496,o),
(290,496,cs)
);
}
);
width = 569;
},
{
layerId = "529A3C21-2EE4-4A9B-A6FF-34138032017A";
shapes = (
{
closed = 1;
nodes = (
(286,406,o),
(347,465,o),
(347,534,cs),
(347,602,o),
(286,661,o),
(217,661,cs),
(148,661,o),
(88,602,o),
(88,534,cs),
(88,465,o),
(148,406,o),
(217,406,cs)
);
},
{
closed = 1;
nodes = (
(167,443,o),
(125,484,o),
(125,534,cs),
(125,583,o),
(167,624,o),
(217,624,cs),
(265,624,o),
(307,583,o),
(307,534,cs),
(307,484,o),
(265,443,o),
(217,443,cs)
);
}
);
width = 436;
}
);
metricLeft = H;
metricRight = H;
unicode = 176;
},
{
glyphname = bar;
lastChange = "2024-04-20 13:21:10 +0000";
layers = (
{
layerId = m01;
shapes = (
{
closed = 1;
nodes = (
(156,-200,l),
(156,800,l),
(80,800,l),
(80,-200,l)
);
}
);
width = 236;
},
{
layerId = "23BFF7D0-A449-46AC-916C-A2933124BFA1";
shapes = (
{
closed = 1;
nodes = (
(131,-200,l),
(131,800,l),
(55,800,l),
(55,-200,l)
);
}
);
width = 186;
},
{
layerId = "529A3C21-2EE4-4A9B-A6FF-34138032017A";
shapes = (
{
closed = 1;
nodes = (
(164,-200,l),
(164,800,l),
(88,800,l),
(88,-200,l)
);
}
);
width = 253;
}
);
metricLeft = H;
metricRight = H;
unicode = 124;
},
{
glyphname = dagger;
lastChange = "2024-04-20 13:21:10 +0000";
layers = (
{
layerId = m01;
shapes = (
{
closed = 1;
nodes = (
(280,260,l),
(280,732,l),
(208,732,l),
(208,260,l)
);
},
{
closed = 1;
nodes = (
(407,530,l),
(407,598,l),
(80,598,l),
(80,530,l)
);
}
);
width = 487;
},
{
layerId = "23BFF7D0-A449-46AC-916C-A2933124BFA1";
shapes = (
{
closed = 1;
nodes = (
(415,198,l),
(415,800,l),
(183,800,l),
(183,198,l)
);
},
{
closed = 1;
nodes = (
(542,468,l),
(542,666,l),
(55,666,l),
(55,468,l)
);
}
);
width = 597;
},
{
layerId = "529A3C21-2EE4-4A9B-A6FF-34138032017A";
shapes = (
{
closed = 1;
nodes = (
(235,281,l),
(235,709,l),
(216,709,l),
(216,281,l)
);
},
{
closed = 1;
nodes = (
(362,551,l),
(362,575,l),
(88,575,l),
(88,551,l)
);
}
);
width = 451;
}
);
metricLeft = H;
metricRight = H;
unicode = 8224;
},
{
glyphname = dollar;
lastChange = "2024-04-20 13:21:10 +0000";
layers = (
{
anchors = (
{
name = bottom;
pos = (316,0);
},
{
name = top;
pos = (316,800);
}
);
layerId = m01;
shapes = (
{
closed = 1;
nodes = (
(452,-16,o),
(551,81,o),
(551,219,cs),
(551,470,o),
(175,423,o),
(175,585,cs),
(175,671,o),
(235,732,o),
(320,732,cs),
(384,732,o),
(463,698,o),
(510,650,c),
(510,759,l),
(460,793,o),
(381,817,o),
(320,817,cs),
(179,817,o),
(80,721,o),
(80,585,cs),
(80,334,o),
(456,381,o),
(456,219,cs),
(456,131,o),
(396,69,o),
(311,69,cs),
(230,69,o),
(142,107,o),
(98,160,c),
(98,52,l),
(143,12,o),
(231,-16,o),
(311,-16,cs)
);
},
{
closed = 1;
nodes = (
(286,-164,l),
(286,958,l),
(246,958,l),
(246,-164,l)
);
},
{
closed = 1;
nodes = (
(386,-164,l),
(386,958,l),
(346,958,l),
(346,-164,l)
);
}
);
width = 631;
},
{
anchors = (
{
name = bottom;
pos = (353,0);
},
{
name = top;
pos = (353,700);
}
);
layerId = "23BFF7D0-A449-46AC-916C-A2933124BFA1";
shapes = (
{
closed = 1;
nodes = (
(533,-16,o),
(651,90,o),
(651,239,cs),
(651,590,o),
(305,463,o),
(305,565,cs),
(305,595,o),
(337,616,o),
(382,616,cs),
(453,616,o),
(543,593,o),
(600,560,c),
(600,779,l),
(543,801,o),
(431,817,o),
(328,817,cs),
(168,817,o),
(55,713,o),
(55,565,cs),
(55,214,o),
(401,341,o),
(401,239,cs),
(401,208,o),
(364,186,o),
(312,186,cs),
(224,186,o),
(127,213,o),
(77,250,c),
(77,32,l),
(117,4,o),
(237,-16,o),
(366,-16,cs)
);
},
{
closed = 1;
nodes = (
(323,-164,l),
(323,958,l),
(273,958,l),
(273,-164,l)
);
},
{
closed = 1;
nodes = (
(431,-164,l),
(431,958,l),
(381,958,l),
(381,-164,l)
);
}
);
width = 706;
},
{
anchors = (
{
name = bottom;
pos = (303,0);
},
{
name = top;
pos = (303,833);
}
);
layerId = "529A3C21-2EE4-4A9B-A6FF-34138032017A";
shapes = (
{
closed = 1;
nodes = (
(425,-16,o),
(517,78,o),
(517,212,cs),
(517,430,o),
(131,410,o),
(131,592,cs),
(131,696,o),
(201,771,o),
(299,771,cs),
(361,771,o),
(436,733,o),
(480,680,c),
(480,752,l),
(432,790,o),
(364,817,o),
(317,817,cs),
(182,817,o),
(88,724,o),
(88,592,cs),
(88,374,o),
(474,394,o),
(474,212,cs),
(474,105,o),
(406,30,o),
(310,30,cs),
(232,30,o),
(147,72,o),
(105,130,c),
(105,59,l),
(151,15,o),
(229,-16,o),
(292,-16,cs)
);
},
{
closed = 1;
nodes = (
(266,-164,l),
(266,958,l),
(236,958,l),
(236,-164,l)
);
},
{
closed = 1;
nodes = (
(370,-164,l),
(370,958,l),
(340,958,l),
(340,-164,l)
);
}
);
width = 606;
}
);
metricLeft = H;
metricRight = H;
unicode = 36;
},
{
glyphname = euro;
lastChange = "2024-04-20 13:21:10 +0000";
layers = (
{
layerId = m01;
shapes = (
{
closed = 1;
nodes = (
(614,-16,o),
(702,7,o),
(740,39,c),
(740,137,l),
(703,100,o),
(614,74,o),
(526,74,cs),
(380,74,o),
(276,213,o),
(276,410,cs),
(276,594,o),
(380,725,o),
(526,725,cs),
(615,725,o),
(703,701,o),
(740,668,c),
(740,763,l),
(704,793,o),
(616,815,o),
(526,815,cs),
(327,815,o),
(186,647,o),
(186,410,cs),
(186,160,o),
(327,-16,o),
(526,-16,cs)
);
},
{
closed = 1;
nodes = (
(506,283,l),
(546,357,l),
(120,357,l),
(80,283,l)
);
},
{
closed = 1;
nodes = (
(506,431,l),
(546,505,l),
(120,505,l),
(80,431,l)
);
}
);
width = 820;
},
{
layerId = "23BFF7D0-A449-46AC-916C-A2933124BFA1";
shapes = (
{
closed = 1;
nodes = (
(588,-16,o),
(677,7,o),
(715,39,c),
(715,217,l),
(678,180,o),
(589,154,o),
(501,154,cs),
(401,154,o),
(331,260,o),
(331,410,cs),
(331,548,o),
(401,645,o),
(501,645,cs),
(589,645,o),
(678,621,o),
(715,588,c),
(715,763,l),
(678,793,o),
(590,815,o),
(501,815,cs),
(302,815,o),
(161,647,o),
(161,410,cs),
(161,160,o),
(302,-16,o),
(501,-16,cs)
);
},
{
closed = 1;
nodes = (
(541,263,l),
(581,377,l),
(95,377,l),
(55,263,l)
);
},
{
closed = 1;
nodes = (
(541,421,l),
(581,535,l),
(95,535,l),
(55,421,l)
);
}
);
width = 770;
},
{
layerId = "529A3C21-2EE4-4A9B-A6FF-34138032017A";
shapes = (
{
closed = 1;
nodes = (
(625,-18,o),
(668,11,o),
(726,78,c),
(726,117,l),
(656,46,o),
(614,16,o),
(513,16,cs),
(346,16,o),
(228,179,o),
(228,410,cs),
(228,626,o),
(346,779,o),
(513,779,cs),
(614,779,o),
(657,748,o),
(725,675,c),
(726,717,l),
(650,784,o),
(607,813,o),
(513,813,cs),
(325,813,o),
(192,646,o),
(192,410,cs),
(192,159,o),
(325,-18,o),
(513,-18,cs)
);
},
{
closed = 1;
nodes = (
(514,323,l),
(544,377,l),
(118,377,l),
(88,323,l)
);
},
{
closed = 1;
nodes = (
(514,441,l),
(544,495,l),
(118,495,l),
(88,441,l)
);
}
);
width = 815;
}
);
metricLeft = H;
metricRight = H;
unicode = 8364;
},
{
glyphname = percent;
lastChange = "2024-04-20 13:21:10 +0000";
layers = (
{
layerId = m01;
shapes = (
{
closed = 1;
nodes = (
(160,0,l),
(800,800,l),
(720,800,l),
(80,0,l)
);
},
{
closed = 1;
nodes = (
(356,407,o),
(413,483,o),
(413,619,cs),
(413,753,o),
(356,826,o),
(252,826,cs),
(148,826,o),
(91,753,o),
(91,619,cs),
(91,483,o),
(148,407,o),
(252,407,cs)
);
},
{
closed = 1;
nodes = (
(194,450,o),
(169,501,o),
(169,619,cs),
(169,734,o),
(194,784,o),
(252,784,cs),
(310,784,o),
(335,734,o),
(335,619,cs),
(335,501,o),
(310,450,o),
(252,450,cs)
);
},
{
closed = 1;
nodes = (
(733,-6,o),
(790,70,o),
(790,206,cs),
(790,340,o),
(733,413,o),
(629,413,cs),
(525,413,o),
(468,340,o),
(468,206,cs),
(468,70,o),
(525,-6,o),
(629,-6,cs)
);
},
{
closed = 1;
nodes = (
(571,37,o),
(546,88,o),
(546,206,cs),
(546,321,o),
(571,371,o),
(629,371,cs),
(687,371,o),
(712,321,o),
(712,206,cs),
(712,88,o),
(687,37,o),
(629,37,cs)
);
}
);
width = 880;
},
{
layerId = "23BFF7D0-A449-46AC-916C-A2933124BFA1";
shapes = (
{
closed = 1;
nodes = (
(233,0,l),
(873,800,l),
(743,800,l),
(103,0,l)
);
},
{
closed = 1;
nodes = (
(366,357,o),
(436,441,o),
(436,588,cs),
(436,732,o),
(366,812,o),
(241,812,cs),
(121,812,o),
(55,732,o),
(55,588,cs),
(55,441,o),
(121,357,o),
(241,357,cs)
);
},
{
closed = 1;
nodes = (
(215,462,o),
(204,500,o),
(204,588,cs),
(204,672,o),
(215,708,o),
(241,708,cs),
(266,708,o),
(277,672,o),
(277,588,cs),
(277,500,o),
(266,462,o),
(241,462,cs)
);
},
{
closed = 1;
nodes = (
(863,0,o),
(929,83,o),
(929,230,cs),
(929,375,o),
(863,455,o),
(743,455,cs),
(623,455,o),
(558,375,o),
(558,230,cs),
(558,83,o),
(623,0,o),
(743,0,cs)
);
},
{
closed = 1;
nodes = (
(718,104,o),
(707,142,o),
(707,230,cs),
(707,314,o),
(718,350,o),
(743,350,cs),
(769,350,o),
(780,314,o),
(780,230,cs),
(780,142,o),
(769,104,o),
(743,104,c)
);
}
);
width = 984;
},
{
layerId = "529A3C21-2EE4-4A9B-A6FF-34138032017A";
shapes = (
{
closed = 1;
nodes = (
(134,1,l),
(764,800,l),
(718,800,l),
(88,1,l)
);
},
{
closed = 1;
nodes = (
(354,424,o),
(407,497,o),
(407,629,cs),
(407,760,o),
(354,831,o),
(257,831,cs),
(159,831,o),
(105,760,o),
(105,629,cs),
(105,497,o),
(159,424,o),
(257,424,cs)
);
},
{
closed = 1;
nodes = (
(189,446,o),
(141,501,o),
(141,629,cs),
(141,755,o),
(189,809,o),
(257,809,cs),
(326,809,o),
(371,755,o),
(371,629,cs),
(371,501,o),
(326,446,o),
(257,446,cs)
);
},
{
closed = 1;
nodes = (
(691,-8,o),
(745,66,o),
(745,198,cs),
(745,328,o),
(691,399,o),
(593,399,cs),
(494,399,o),
(440,328,o),
(440,198,cs),
(440,66,o),
(494,-8,o),
(593,-8,cs)
);
},
{
closed = 1;
nodes = (
(524,15,o),
(476,70,o),
(476,198,cs),
(476,323,o),
(524,378,o),
(593,378,cs),
(661,378,o),
(709,323,o),
(709,198,cs),
(709,70,o),
(661,15,o),
(593,15,cs)
);
}
);
width = 853;
}
);
metricLeft = N;
metricRight = N;
unicode = 37;
},
{
glyphname = dieresiscomb;
lastChange = "2024-04-20 13:21:10 +0000";
layers = (
{
anchors = (
{
name = _top;
pos = (238,600);
},
{
name = top;
pos = (238,795);
}
);
layerId = m01;
shapes = (
{
closed = 1;
nodes = (
(395,700,l),
(395,815,l),
(280,815,l),
(280,700,l)
);
},
{
closed = 1;
nodes = (
(195,700,l),
(195,815,l),
(80,815,l),
(80,700,l)
);
}
);
width = 475;
},
{
anchors = (
{
name = _top;
pos = (270,500);
},
{
name = top;
pos = (270,800);
}
);
layerId = "23BFF7D0-A449-46AC-916C-A2933124BFA1";
shapes = (
{
closed = 1;
nodes = (
(500,640,l),
(500,840,l),
(290,840,l),
(290,640,l)
);
},
{
closed = 1;
nodes = (
(250,640,l),
(250,840,l),
(40,840,l),
(40,640,l)
);
}
);
width = 540;
},
{
anchors = (
{
name = _top;
pos = (300,633);
},
{
name = top;
pos = (300,806);
}
);
layerId = "529A3C21-2EE4-4A9B-A6FF-34138032017A";
shapes = (
{
closed = 1;
nodes = (
(421,715,l),
(421,777,l),
(362,777,l),
(362,715,l)
);
},
{
closed = 1;
nodes = (
(238,715,l),
(238,777,l),
(178,777,l),
(178,715,l)
);
}
);
width = 600;
}
);
unicode = 776;
},
{
glyphname = dotaccentcomb;
lastChange = "2024-04-20 13:21:10 +0000";
layers = (
{
anchors = (
{
name = _top;
pos = (300,600);
},
{
name = top;
pos = (300,754);
}
);
layerId = m01;
shapes = (
{
closed = 1;
nodes = (
(336,633,o),
(365,663,o),
(365,699,cs),
(365,735,o),
(336,764,o),
(300,764,cs),
(264,764,o),
(234,735,o),
(234,699,cs),
(234,663,o),
(264,633,o),
(300,633,cs)
);
}
);
width = 475;
},
{
anchors = (
{
name = _top;
pos = (300,500);
},
{
name = top;
pos = (300,754);
}
);
layerId = "23BFF7D0-A449-46AC-916C-A2933124BFA1";
shapes = (
{
closed = 1;
nodes = (
(360,592,o),
(406,640,o),
(406,699,cs),
(406,759,o),
(360,805,o),
(300,805,cs),
(241,805,o),
(193,759,o),
(193,699,cs),
(193,640,o),
(241,592,o),
(300,592,cs)
);
}
);
width = 475;
},
{
anchors = (
{
name = _top;
pos = (300,633);
},
{
name = top;
pos = (300,784);
}
);
layerId = "529A3C21-2EE4-4A9B-A6FF-34138032017A";
shapes = (
{
closed = 1;
nodes = (
(316,725,o),
(329,739,o),
(329,755,cs),
(329,771,o),
(316,784,o),
(300,784,cs),
(284,784,o),
(270,771,o),
(270,755,cs),
(270,739,o),
(284,725,o),
(300,725,cs)
);
}
);
width = 600;
}
);
note = uni0307;
unicode = 775;
},
{
glyphname = gravecomb;
lastChange = "2024-04-20 13:21:10 +0000";
layers = (
{
anchors = (
{
name = _top;
pos = (283,600);
},
{
name = top;
pos = (283,777);
}
);
layerId = m01;
shapes = (
{
closed = 1;
nodes = (
(403,664,l),
(231,863,l),
(152,776,l),
(374,632,l)
);
}
);
width = 475;
},
{
anchors = (
{
name = _top;
pos = (283,405);
},
{
name = top;
pos = (283,777);
}
);
layerId = "23BFF7D0-A449-46AC-916C-A2933124BFA1";
shapes = (
{
closed = 1;
nodes = (
(498,590,l),
(239,873,l),
(111,731,l),
(427,511,l)
);
}
);
width = 475;
},
{
anchors = (
{
name = _top;
pos = (283,633);
},
{
name = top;
pos = (269,828);
}
);
layerId = "529A3C21-2EE4-4A9B-A6FF-34138032017A";
shapes = (
{
closed = 1;
nodes = (
(371,677,l),
(226,789,l),
(196,759,l),
(356,660,l)
);
}
);
width = 600;
}
);
note = gravecomb;
unicode = 768;
},
{
glyphname = acutecomb;
lastChange = "2024-04-20 13:21:10 +0000";
layers = (
{
anchors = (
{
name = _top;
pos = (316,560);
},
{
name = top;
pos = (316,777);
}
);
layerId = m01;
shapes = (
{
closed = 1;
nodes = (
(457,774,l),
(374,872,l),
(195,651,l),
(224,619,l)
);
}
);
width = 475;
},
{
anchors = (
{
name = _top;
pos = (316,430);
},
{
name = top;
pos = (316,767);
}
);
layerId = "23BFF7D0-A449-46AC-916C-A2933124BFA1";
shapes = (
{
closed = 1;
nodes = (
(511,794,l),
(394,921,l),
(129,655,l),
(191,577,l)
);
}
);
width = 475;
},
{
anchors = (
{
name = _top;
pos = (316,603);
},
{
name = top;
pos = (328,856);
}
);
layerId = "529A3C21-2EE4-4A9B-A6FF-34138032017A";
shapes = (
{
closed = 1;
nodes = (
(419,747,l),
(393,779,l),
(217,650,l),
(235,633,l)
);
}
);
width = 600;
}
);
note = acutecomb;
unicode = 769;
},
{
glyphname = circumflexcomb;
lastChange = "2024-04-20 13:21:10 +0000";
layers = (
{
anchors = (
{
name = _top;
pos = (300,600);
},
{
name = top;
pos = (300,795);
}
);
layerId = m01;
shapes = (
{
closed = 1;
nodes = (
(300,758,l),
(487,679,l),
(508,704,l),
(300,872,l),
(92,704,l),
(113,679,l)
);
}
);
width = 475;
},
{
anchors = (
{
name = _top;
pos = (300,500);
},
{
name = top;
pos = (300,795);
}
);
layerId = "23BFF7D0-A449-46AC-916C-A2933124BFA1";
shapes = (
{
closed = 1;
nodes = (
(300,767,l),
(604,639,l),
(638,679,l),
(300,952,l),
(-38,679,l),
(-4,639,l)
);
}
);
width = 475;
},
{
anchors = (
{
name = _top;
pos = (239,633);
},
{
name = top;
pos = (239,792);
}
);
layerId = "529A3C21-2EE4-4A9B-A6FF-34138032017A";
shapes = (
{
closed = 1;
nodes = (
(239,742,l),
(364,683,l),
(377,699,l),
(239,802,l),
(101,699,l),
(114,683,l)
);
}
);
width = 600;
}
);
note = uni0302;
unicode = 770;
},
{
glyphname = ringcomb;
lastChange = "2024-04-20 13:21:10 +0000";
layers = (
{
anchors = (
{
name = _top;
pos = (300,600);
},
{
name = top;
pos = (300,808);
}
);
layerId = m01;
shapes = (
{
closed = 1;
nodes = (
(369,648,o),
(418,702,o),
(418,779,cs),
(418,848,o),
(369,897,o),
(300,897,cs),
(231,897,o),
(181,848,o),
(181,779,cs),
(181,702,o),
(231,648,o),
(300,648,cs)
);
},
{
closed = 1;
nodes = (
(257,694,o),
(227,731,o),
(227,779,cs),
(227,822,o),
(257,851,o),
(300,851,cs),
(343,851,o),
(372,822,o),
(372,779,cs),
(372,728,o),
(343,694,o),
(300,694,cs)
);
}
);
width = 475;
},
{
anchors = (
{
name = _top;
pos = (300,500);
},
{
name = top;
pos = (300,908);
}
);
layerId = "23BFF7D0-A449-46AC-916C-A2933124BFA1";
shapes = (
{
closed = 1;
nodes = (
(396,631,o),
(463,706,o),
(463,811,cs),
(463,907,o),
(396,974,o),
(300,974,cs),
(205,974,o),
(136,907,o),
(136,811,cs),
(136,706,o),
(205,631,o),
(300,631,cs)
);
},
{
closed = 1;
nodes = (
(241,694,o),
(199,744,o),
(199,811,cs),
(199,870,o),
(241,911,o),
(300,911,cs),
(359,911,o),
(400,870,o),
(400,811,cs),
(400,742,o),
(359,694,o),
(300,694,cs)
);
}
);
width = 475;
},
{
anchors = (
{
name = _top;
pos = (290,633);
},
{
name = top;
pos = (290,849);
}
);
layerId = "529A3C21-2EE4-4A9B-A6FF-34138032017A";
shapes = (
{
closed = 1;
nodes = (
(333,696,o),
(362,729,o),
(362,776,cs),
(362,819,o),
(333,849,o),
(290,849,cs),
(247,849,o),
(217,819,o),
(217,776,cs),
(217,729,o),
(247,696,o),
(290,696,cs)
);
},
{
closed = 1;
nodes = (
(263,724,o),
(245,747,o),
(245,776,cs),
(245,803,o),
(263,821,o),
(290,821,cs),
(315,821,o),
(334,803,o),
(334,776,cs),
(334,745,o),
(315,724,o),
(290,724,cs)
);
}
);
width = 600;
}
);
note = uni030A;
unicode = 778;
},
{
glyphname = tildecomb;
lastChange = "2024-04-20 13:21:10 +0000";
layers = (
{
anchors = (
{
name = _top;
pos = (309,600);
},
{
name = top;
pos = (309,793);
}
);
layerId = m01;
shapes = (
{
closed = 1;
nodes = (
(175,696,o),
(201,720,o),
(226,727,c),
(254,730,o),
(273,720,o),
(302,700,cs),
(316,690,ls),
(347,671,o),
(371,662,o),
(403,669,cs),
(447,677,o),
(493,720,o),
(510,760,c),
(457,802,l),
(442,774,o),
(416,751,o),
(391,744,c),
(363,741,o),
(344,751,o),
(313,771,cs),
(301,780,ls),
(273,799,o),
(249,807,o),
(214,802,cs),
(169,794,o),
(124,750,o),
(107,710,c),
(160,668,l)
);
}
);
width = 475;
},
{
anchors = (
{
name = _top;
pos = (309,500);
},
{
name = top;
pos = (309,733);
}
);
layerId = "23BFF7D0-A449-46AC-916C-A2933124BFA1";
shapes = (
{
closed = 1;
nodes = (
(134,711,o),
(169,745,o),
(204,754,c),
(243,758,o),
(269,744,o),
(310,716,cs),
(329,703,ls),
(370,678,o),
(403,665,o),
(450,674,cs),
(510,685,o),
(574,744,o),
(598,799,c),
(524,858,l),
(503,819,o),
(468,787,o),
(433,778,c),
(394,774,o),
(368,787,o),
(324,815,cs),
(308,827,ls),
(269,852,o),
(235,865,o),
(187,858,cs),
(124,847,o),
(63,786,o),
(39,731,c),
(113,672,l)
);
}
);
width = 475;
},
{
anchors = (
{
name = _top;
pos = (304,633);
},
{
name = top;
pos = (304,761);
}
);
layerId = "529A3C21-2EE4-4A9B-A6FF-34138032017A";
shapes = (
{
closed = 1;
nodes = (
(171,723,o),
(205,741,o),
(241,741,cs),
(256,742,o),
(281,736,o),
(302,727,cs),
(312,722,ls),
(333,714,o),
(362,710,o),
(382,711,cs),
(413,715,o),
(448,734,o),
(467,758,c),
(444,780,l),
(432,767,o),
(406,754,o),
(382,750,cs),
(366,749,o),
(341,755,o),
(320,764,c),
(312,769,l),
(289,777,o),
(261,781,o),
(242,780,cs),
(199,776,o),
(156,756,o),
(137,733,c),
(160,710,l)
);
}
);
width = 600;
}
);
note = tildecomb;
unicode = 771;
},
{
glyphname = cedillacomb;
lastChange = "2024-04-20 13:21:10 +0000";
layers = (
{
anchors = (
{
name = _bottom;
pos = (283,0);
},
{
name = bottom;
pos = (353,-227);
}
);
layerId = m01;
shapes = (
{
closed = 1;
nodes = (
(411,-248,o),
(467,-209,o),
(467,-150,cs),
(467,-94,o),
(417,-54,o),
(345,-54,c),
(377,28,l),
(317,26,l),
(274,-103,l),
(277,-103,ls),
(318,-103,o),
(404,-113,o),
(404,-154,cs),
(404,-181,o),
(374,-199,o),
(330,-199,cs),
(293,-199,o),
(267,-196,o),
(252,-190,c),
(238,-224,l),
(266,-239,o),
(305,-248,o),
(330,-248,cs)
);
}
);
width = 475;
},
{
anchors = (
{
name = _bottom;
pos = (243,0);
},
{
name = bottom;
pos = (353,-227);
}
);
layerId = "23BFF7D0-A449-46AC-916C-A2933124BFA1";
shapes = (
{
closed = 1;
nodes = (
(433,-361,o),
(511,-306,o),
(511,-225,cs),
(511,-148,o),
(442,-92,o),
(342,-92,c),
(386,21,l),
(303,19,l),
(244,-160,l),
(247,-160,ls),
(306,-160,o),
(423,-174,o),
(423,-230,cs),
(423,-267,o),
(381,-294,o),
(321,-294,cs),
(270,-294,o),
(234,-290,o),
(213,-281,c),
(194,-328,l),
(233,-348,o),
(286,-361,o),
(321,-361,cs)
);
}
);
width = 475;
},
{
anchors = (
{
name = _bottom;
pos = (348,0);
},
{
name = bottom;
pos = (348,-210);
}
);
layerId = "529A3C21-2EE4-4A9B-A6FF-34138032017A";
shapes = (
{
closed = 1;
nodes = (
(395,-210,o),
(425,-182,o),
(425,-139,cs),
(425,-99,o),
(399,-70,o),
(347,-70,c),
(370,-10,l),
(327,-12,l),
(296,-97,l),
(298,-97,ls),
(351,-97,o),
(390,-119,o),
(390,-142,cs),
(390,-161,o),
(368,-176,o),
(336,-176,cs),
(309,-176,o),
(291,-173,o),
(280,-168,c),
(270,-192,l),
(290,-203,o),
(319,-210,o),
(336,-210,cs)
);
}
);
width = 600;
}
);
note = uni0327;
unicode = 807;
},
{
glyphname = dieresis;
lastChange = "2024-04-20 13:21:10 +0000";
layers = (
{
layerId = m01;
shapes = (
{
closed = 1;
nodes = (
(395,680,l),
(395,795,l),
(280,795,l),
(280,680,l)
);
},
{
closed = 1;
nodes = (
(195,680,l),
(195,795,l),
(80,795,l),
(80,680,l)
);
}
